<svg width="341" height="140" viewBox="0 0 341 140" fill="none" xmlns="http://www.w3.org/2000/svg">
<path d="M1.652 48.2H8.82V49.082H2.674V52.288H5.88C7.03733 52.288 7.91467 52.526 8.512 53.002C9.11867 53.478 9.422 54.1687 9.422 55.074C9.422 56.0167 9.09533 56.74 8.442 57.244C7.798 57.748 6.86933 58 5.656 58H1.652V48.2ZM5.642 57.174C6.54733 57.174 7.22867 57.0013 7.686 56.656C8.15267 56.3107 8.386 55.7973 8.386 55.116C8.386 54.444 8.15733 53.9447 7.7 53.618C7.252 53.282 6.566 53.114 5.642 53.114H2.674V57.174H5.642ZM18.0259 54.626H11.8659C11.9219 55.3913 12.2159 56.012 12.7479 56.488C13.2799 56.9547 13.9519 57.188 14.7639 57.188C15.2212 57.188 15.6412 57.1087 16.0239 56.95C16.4065 56.782 16.7379 56.5393 17.0179 56.222L17.5779 56.866C17.2512 57.258 16.8405 57.5567 16.3459 57.762C15.8605 57.9673 15.3239 58.07 14.7359 58.07C13.9799 58.07 13.3079 57.9113 12.7199 57.594C12.1412 57.2673 11.6885 56.8193 11.3619 56.25C11.0352 55.6807 10.8719 55.0367 10.8719 54.318C10.8719 53.5993 11.0259 52.9553 11.3339 52.386C11.6512 51.8167 12.0805 51.3733 12.6219 51.056C13.1725 50.7387 13.7885 50.58 14.4699 50.58C15.1512 50.58 15.7625 50.7387 16.3039 51.056C16.8452 51.3733 17.2699 51.8167 17.5779 52.386C17.8859 52.946 18.0399 53.59 18.0399 54.318L18.0259 54.626ZM14.4699 51.434C13.7605 51.434 13.1632 51.6627 12.6779 52.12C12.2019 52.568 11.9312 53.156 11.8659 53.884H17.0879C17.0225 53.156 16.7472 52.568 16.2619 52.12C15.7859 51.6627 15.1885 51.434 14.4699 51.434ZM23.3202 58.07C22.5922 58.07 21.9388 57.9113 21.3602 57.594C20.7908 57.2767 20.3428 56.8333 20.0162 56.264C19.6895 55.6853 19.5262 55.0367 19.5262 54.318C19.5262 53.5993 19.6895 52.9553 20.0162 52.386C20.3428 51.8167 20.7908 51.3733 21.3602 51.056C21.9388 50.7387 22.5922 50.58 23.3202 50.58C23.9548 50.58 24.5195 50.706 25.0142 50.958C25.5182 51.2007 25.9148 51.56 26.2042 52.036L25.4622 52.54C25.2195 52.176 24.9115 51.9053 24.5382 51.728C24.1648 51.5413 23.7588 51.448 23.3202 51.448C22.7882 51.448 22.3075 51.5693 21.8782 51.812C21.4582 52.0453 21.1268 52.3813 20.8842 52.82C20.6508 53.2587 20.5342 53.758 20.5342 54.318C20.5342 54.8873 20.6508 55.3913 20.8842 55.83C21.1268 56.2593 21.4582 56.5953 21.8782 56.838C22.3075 57.0713 22.7882 57.188 23.3202 57.188C23.7588 57.188 24.1648 57.0993 24.5382 56.922C24.9115 56.7447 25.2195 56.474 25.4622 56.11L26.2042 56.614C25.9148 57.09 25.5182 57.454 25.0142 57.706C24.5102 57.9487 23.9455 58.07 23.3202 58.07ZM34.7368 50.636V58H33.7428V51.518H29.1228V58H28.1288V50.636H34.7368ZM43.5824 50.636V58H42.5884V51.518H39.0604L38.9624 53.338C38.8878 54.8687 38.7104 56.0447 38.4304 56.866C38.1504 57.6873 37.6511 58.098 36.9324 58.098C36.7364 58.098 36.4984 58.0607 36.2184 57.986L36.2884 57.132C36.4564 57.1693 36.5731 57.188 36.6384 57.188C37.0211 57.188 37.3104 57.0107 37.5064 56.656C37.7024 56.3013 37.8331 55.8627 37.8984 55.34C37.9638 54.8173 38.0198 54.1267 38.0664 53.268L38.1924 50.636H43.5824ZM48.9421 50.58C49.9035 50.58 50.6408 50.8227 51.1541 51.308C51.6675 51.784 51.9241 52.4933 51.9241 53.436V58H50.9721V56.852C50.7481 57.2347 50.4168 57.5333 49.9781 57.748C49.5488 57.9627 49.0355 58.07 48.4381 58.07C47.6168 58.07 46.9635 57.874 46.4781 57.482C45.9928 57.09 45.7501 56.572 45.7501 55.928C45.7501 55.3027 45.9741 54.7987 46.4221 54.416C46.8795 54.0333 47.6028 53.842 48.5921 53.842H50.9301V53.394C50.9301 52.7593 50.7528 52.2787 50.3981 51.952C50.0435 51.616 49.5255 51.448 48.8441 51.448C48.3775 51.448 47.9295 51.5273 47.5001 51.686C47.0708 51.8353 46.7021 52.0453 46.3941 52.316L45.9461 51.574C46.3195 51.2567 46.7675 51.014 47.2901 50.846C47.8128 50.6687 48.3635 50.58 48.9421 50.58ZM48.5921 57.286C49.1521 57.286 49.6328 57.16 50.0341 56.908C50.4355 56.6467 50.7341 56.2733 50.9301 55.788V54.584H48.6201C47.3601 54.584 46.7301 55.0227 46.7301 55.9C46.7301 56.3293 46.8935 56.67 47.2201 56.922C47.5468 57.1647 48.0041 57.286 48.5921 57.286ZM59.7503 51.518H56.9643V58H55.9703V51.518H53.1843V50.636H59.7503V51.518ZM61.1874 50.636H62.1814V53.898H66.8154V50.636H67.8094V58H66.8154V54.752H62.1814V58H61.1874V50.636ZM73.1687 50.58C74.13 50.58 74.8674 50.8227 75.3807 51.308C75.894 51.784 76.1507 52.4933 76.1507 53.436V58H75.1987V56.852C74.9747 57.2347 74.6434 57.5333 74.2047 57.748C73.7754 57.9627 73.262 58.07 72.6647 58.07C71.8434 58.07 71.19 57.874 70.7047 57.482C70.2194 57.09 69.9767 56.572 69.9767 55.928C69.9767 55.3027 70.2007 54.7987 70.6487 54.416C71.106 54.0333 71.8294 53.842 72.8187 53.842H75.1567V53.394C75.1567 52.7593 74.9794 52.2787 74.6247 51.952C74.27 51.616 73.752 51.448 73.0707 51.448C72.604 51.448 72.156 51.5273 71.7267 51.686C71.2974 51.8353 70.9287 52.0453 70.6207 52.316L70.1727 51.574C70.546 51.2567 70.994 51.014 71.5167 50.846C72.0394 50.6687 72.59 50.58 73.1687 50.58ZM72.8187 57.286C73.3787 57.286 73.8594 57.16 74.2607 56.908C74.662 56.6467 74.9607 56.2733 75.1567 55.788V54.584H72.8467C71.5867 54.584 70.9567 55.0227 70.9567 55.9C70.9567 56.3293 71.12 56.67 71.4467 56.922C71.7734 57.1647 72.2307 57.286 72.8187 57.286ZM84.4528 50.636V58H83.5428V55.564H81.2328H80.9528L79.2448 58H78.1668L80.0008 55.424C79.4315 55.2653 78.9928 54.9947 78.6848 54.612C78.3768 54.2293 78.2228 53.744 78.2228 53.156C78.2228 52.3347 78.5028 51.7093 79.0628 51.28C79.6228 50.8507 80.3881 50.636 81.3588 50.636H84.4528ZM79.2308 53.184C79.2308 54.276 79.9261 54.822 81.3168 54.822H83.5428V51.518H81.3868C79.9495 51.518 79.2308 52.0733 79.2308 53.184ZM93.9891 58.07C93.2798 58.07 92.6404 57.9113 92.0711 57.594C91.5018 57.2673 91.0538 56.8193 90.7271 56.25C90.4004 55.6807 90.2371 55.0367 90.2371 54.318C90.2371 53.5993 90.4004 52.9553 90.7271 52.386C91.0538 51.8167 91.5018 51.3733 92.0711 51.056C92.6404 50.7387 93.2798 50.58 93.9891 50.58C94.6984 50.58 95.3378 50.7387 95.9071 51.056C96.4764 51.3733 96.9198 51.8167 97.2371 52.386C97.5638 52.9553 97.7271 53.5993 97.7271 54.318C97.7271 55.0367 97.5638 55.6807 97.2371 56.25C96.9198 56.8193 96.4764 57.2673 95.9071 57.594C95.3378 57.9113 94.6984 58.07 93.9891 58.07ZM93.9891 57.188C94.5118 57.188 94.9784 57.0713 95.3891 56.838C95.8091 56.5953 96.1358 56.2547 96.3691 55.816C96.6024 55.3773 96.7191 54.878 96.7191 54.318C96.7191 53.758 96.6024 53.2587 96.3691 52.82C96.1358 52.3813 95.8091 52.0453 95.3891 51.812C94.9784 51.5693 94.5118 51.448 93.9891 51.448C93.4664 51.448 92.9951 51.5693 92.5751 51.812C92.1644 52.0453 91.8378 52.3813 91.5951 52.82C91.3618 53.2587 91.2451 53.758 91.2451 54.318C91.2451 54.878 91.3618 55.3773 91.5951 55.816C91.8378 56.2547 92.1644 56.5953 92.5751 56.838C92.9951 57.0713 93.4664 57.188 93.9891 57.188ZM104.758 51.518H101.972V58H100.978V51.518H98.1921V50.636H104.758V51.518ZM114.427 50.636V58H113.517V52.176L110.535 57.104H110.087L107.105 52.162V58H106.195V50.636H107.203L110.325 55.942L113.503 50.636H114.427ZM123.696 54.626H117.536C117.592 55.3913 117.886 56.012 118.418 56.488C118.95 56.9547 119.622 57.188 120.434 57.188C120.891 57.188 121.311 57.1087 121.694 56.95C122.076 56.782 122.408 56.5393 122.688 56.222L123.248 56.866C122.921 57.258 122.51 57.5567 122.016 57.762C121.53 57.9673 120.994 58.07 120.406 58.07C119.65 58.07 118.978 57.9113 118.39 57.594C117.811 57.2673 117.358 56.8193 117.032 56.25C116.705 55.6807 116.542 55.0367 116.542 54.318C116.542 53.5993 116.696 52.9553 117.004 52.386C117.321 51.8167 117.75 51.3733 118.292 51.056C118.842 50.7387 119.458 50.58 120.14 50.58C120.821 50.58 121.432 50.7387 121.974 51.056C122.515 51.3733 122.94 51.8167 123.248 52.386C123.556 52.946 123.71 53.59 123.71 54.318L123.696 54.626ZM120.14 51.434C119.43 51.434 118.833 51.6627 118.348 52.12C117.872 52.568 117.601 53.156 117.536 53.884H122.758C122.692 53.156 122.417 52.568 121.932 52.12C121.456 51.6627 120.858 51.434 120.14 51.434ZM125.91 50.636H126.904V53.898H131.538V50.636H132.532V58H131.538V54.752H126.904V58H125.91V50.636ZM137.891 50.58C138.853 50.58 139.59 50.8227 140.103 51.308C140.617 51.784 140.873 52.4933 140.873 53.436V58H139.921V56.852C139.697 57.2347 139.366 57.5333 138.927 57.748C138.498 57.9627 137.985 58.07 137.387 58.07C136.566 58.07 135.913 57.874 135.427 57.482C134.942 57.09 134.699 56.572 134.699 55.928C134.699 55.3027 134.923 54.7987 135.371 54.416C135.829 54.0333 136.552 53.842 137.541 53.842H139.879V53.394C139.879 52.7593 139.702 52.2787 139.347 51.952C138.993 51.616 138.475 51.448 137.793 51.448C137.327 51.448 136.879 51.5273 136.449 51.686C136.02 51.8353 135.651 52.0453 135.343 52.316L134.895 51.574C135.269 51.2567 135.717 51.014 136.239 50.846C136.762 50.6687 137.313 50.58 137.891 50.58ZM137.541 57.286C138.101 57.286 138.582 57.16 138.983 56.908C139.385 56.6467 139.683 56.2733 139.879 55.788V54.584H137.569C136.309 54.584 135.679 55.0227 135.679 55.9C135.679 56.3293 135.843 56.67 136.169 56.922C136.496 57.1647 136.953 57.286 137.541 57.286ZM151.874 54.192C152.872 54.4253 153.372 55.0273 153.372 55.998C153.372 56.642 153.134 57.1367 152.658 57.482C152.182 57.8273 151.472 58 150.53 58H147.184V50.636H150.432C151.272 50.636 151.93 50.7993 152.406 51.126C152.882 51.4527 153.12 51.9193 153.12 52.526C153.12 52.9273 153.008 53.2727 152.784 53.562C152.569 53.842 152.266 54.052 151.874 54.192ZM148.15 53.912H150.362C150.931 53.912 151.365 53.8047 151.664 53.59C151.972 53.3753 152.126 53.0627 152.126 52.652C152.126 52.2413 151.972 51.9333 151.664 51.728C151.365 51.5227 150.931 51.42 150.362 51.42H148.15V53.912ZM150.488 57.216C151.122 57.216 151.598 57.1133 151.916 56.908C152.233 56.7027 152.392 56.3807 152.392 55.942C152.392 55.5033 152.247 55.1813 151.958 54.976C151.668 54.7613 151.211 54.654 150.586 54.654H148.15V57.216H150.488ZM164.545 51.518H161.759V58H160.765V51.518H157.979V50.636H164.545V51.518ZM172.081 54.626H165.921C165.977 55.3913 166.271 56.012 166.803 56.488C167.335 56.9547 168.007 57.188 168.819 57.188C169.276 57.188 169.696 57.1087 170.079 56.95C170.461 56.782 170.793 56.5393 171.073 56.222L171.633 56.866C171.306 57.258 170.895 57.5567 170.401 57.762C169.915 57.9673 169.379 58.07 168.791 58.07C168.035 58.07 167.363 57.9113 166.775 57.594C166.196 57.2673 165.743 56.8193 165.417 56.25C165.09 55.6807 164.927 55.0367 164.927 54.318C164.927 53.5993 165.081 52.9553 165.389 52.386C165.706 51.8167 166.135 51.3733 166.677 51.056C167.227 50.7387 167.843 50.58 168.525 50.58C169.206 50.58 169.817 50.7387 170.359 51.056C170.9 51.3733 171.325 51.8167 171.633 52.386C171.941 52.946 172.095 53.59 172.095 54.318L172.081 54.626ZM168.525 51.434C167.815 51.434 167.218 51.6627 166.733 52.12C166.257 52.568 165.986 53.156 165.921 53.884H171.143C171.077 53.156 170.802 52.568 170.317 52.12C169.841 51.6627 169.243 51.434 168.525 51.434ZM179.853 50.636V58H178.859V54.934C178.01 55.3073 177.174 55.494 176.353 55.494C175.466 55.494 174.776 55.2933 174.281 54.892C173.786 54.4813 173.539 53.87 173.539 53.058V50.636H174.533V53.002C174.533 53.5527 174.71 53.9727 175.065 54.262C175.42 54.542 175.91 54.682 176.535 54.682C177.226 54.682 178 54.5 178.859 54.136V50.636H179.853ZM189.116 54.626H182.956C183.012 55.3913 183.306 56.012 183.838 56.488C184.37 56.9547 185.042 57.188 185.854 57.188C186.311 57.188 186.731 57.1087 187.114 56.95C187.496 56.782 187.828 56.5393 188.108 56.222L188.668 56.866C188.341 57.258 187.93 57.5567 187.436 57.762C186.95 57.9673 186.414 58.07 185.826 58.07C185.07 58.07 184.398 57.9113 183.81 57.594C183.231 57.2673 182.778 56.8193 182.452 56.25C182.125 55.6807 181.962 55.0367 181.962 54.318C181.962 53.5993 182.116 52.9553 182.424 52.386C182.741 51.8167 183.17 51.3733 183.712 51.056C184.262 50.7387 184.878 50.58 185.56 50.58C186.241 50.58 186.852 50.7387 187.394 51.056C187.935 51.3733 188.36 51.8167 188.668 52.386C188.976 52.946 189.13 53.59 189.13 54.318L189.116 54.626ZM185.56 51.434C184.85 51.434 184.253 51.6627 183.768 52.12C183.292 52.568 183.021 53.156 182.956 53.884H188.178C188.112 53.156 187.837 52.568 187.352 52.12C186.876 51.6627 186.278 51.434 185.56 51.434ZM191.33 50.636H192.324V53.898H196.958V50.636H197.952V58H196.958V54.752H192.324V58H191.33V50.636ZM200.777 50.636H201.771V56.488L206.685 50.636H207.567V58H206.573V52.148L201.673 58H200.777V50.636ZM216.856 54.626H210.696C210.752 55.3913 211.046 56.012 211.578 56.488C212.11 56.9547 212.782 57.188 213.594 57.188C214.051 57.188 214.471 57.1087 214.854 56.95C215.237 56.782 215.568 56.5393 215.848 56.222L216.408 56.866C216.081 57.258 215.671 57.5567 215.176 57.762C214.691 57.9673 214.154 58.07 213.566 58.07C212.81 58.07 212.138 57.9113 211.55 57.594C210.971 57.2673 210.519 56.8193 210.192 56.25C209.865 55.6807 209.702 55.0367 209.702 54.318C209.702 53.5993 209.856 52.9553 210.164 52.386C210.481 51.8167 210.911 51.3733 211.452 51.056C212.003 50.7387 212.619 50.58 213.3 50.58C213.981 50.58 214.593 50.7387 215.134 51.056C215.675 51.3733 216.1 51.8167 216.408 52.386C216.716 52.946 216.87 53.59 216.87 54.318L216.856 54.626ZM213.3 51.434C212.591 51.434 211.993 51.6627 211.508 52.12C211.032 52.568 210.761 53.156 210.696 53.884H215.918C215.853 53.156 215.577 52.568 215.092 52.12C214.616 51.6627 214.019 51.434 213.3 51.434ZM230.378 55.424H228.418V58H227.41V55.424H221.88V54.696L227.074 48.2H228.194L223.182 54.528H227.438V52.26H228.418V54.528H230.378V55.424ZM237.055 52.862C237.671 53.0673 238.142 53.3753 238.469 53.786C238.805 54.1967 238.973 54.6913 238.973 55.27C238.973 55.8393 238.819 56.3387 238.511 56.768C238.203 57.188 237.76 57.5147 237.181 57.748C236.612 57.972 235.94 58.084 235.165 58.084C233.989 58.084 233.065 57.832 232.393 57.328C231.721 56.824 231.385 56.138 231.385 55.27C231.385 54.682 231.544 54.1873 231.861 53.786C232.188 53.3753 232.659 53.0673 233.275 52.862C232.771 52.666 232.388 52.386 232.127 52.022C231.866 51.6487 231.735 51.21 231.735 50.706C231.735 49.9127 232.043 49.2827 232.659 48.816C233.284 48.3493 234.12 48.116 235.165 48.116C235.856 48.116 236.458 48.2233 236.971 48.438C237.494 48.6433 237.9 48.942 238.189 49.334C238.478 49.726 238.623 50.1833 238.623 50.706C238.623 51.21 238.488 51.6487 238.217 52.022C237.946 52.386 237.559 52.666 237.055 52.862ZM232.743 50.734C232.743 51.2753 232.958 51.7047 233.387 52.022C233.816 52.3393 234.409 52.498 235.165 52.498C235.921 52.498 236.514 52.3393 236.943 52.022C237.382 51.7047 237.601 51.28 237.601 50.748C237.601 50.1973 237.377 49.7633 236.929 49.446C236.49 49.1287 235.902 48.97 235.165 48.97C234.418 48.97 233.826 49.1287 233.387 49.446C232.958 49.7633 232.743 50.1927 232.743 50.734ZM235.165 57.23C236.033 57.23 236.71 57.0527 237.195 56.698C237.69 56.3433 237.937 55.8627 237.937 55.256C237.937 54.6493 237.69 54.1733 237.195 53.828C236.71 53.4733 236.033 53.296 235.165 53.296C234.306 53.296 233.63 53.4733 233.135 53.828C232.65 54.1733 232.407 54.6493 232.407 55.256C232.407 55.872 232.65 56.3573 233.135 56.712C233.62 57.0573 234.297 57.23 235.165 57.23ZM250.277 50.636V58H249.283V54.934C248.433 55.3073 247.598 55.494 246.777 55.494C245.89 55.494 245.199 55.2933 244.705 54.892C244.21 54.4813 243.963 53.87 243.963 53.058V50.636H244.957V53.002C244.957 53.5527 245.134 53.9727 245.489 54.262C245.843 54.542 246.333 54.682 246.959 54.682C247.649 54.682 248.424 54.5 249.283 54.136V50.636H250.277ZM253.17 58.07C252.964 58.07 252.787 57.9953 252.638 57.846C252.498 57.6967 252.428 57.5147 252.428 57.3C252.428 57.0853 252.498 56.908 252.638 56.768C252.787 56.6187 252.964 56.544 253.17 56.544C253.375 56.544 253.552 56.6187 253.702 56.768C253.851 56.908 253.926 57.0853 253.926 57.3C253.926 57.5147 253.851 57.6967 253.702 57.846C253.552 57.9953 253.375 58.07 253.17 58.07ZM268.214 48.2V58H267.192V49.096H260.99V58H259.968V48.2H268.214ZM274.321 58.07C273.612 58.07 272.972 57.9113 272.403 57.594C271.834 57.2673 271.386 56.8193 271.059 56.25C270.732 55.6807 270.569 55.0367 270.569 54.318C270.569 53.5993 270.732 52.9553 271.059 52.386C271.386 51.8167 271.834 51.3733 272.403 51.056C272.972 50.7387 273.612 50.58 274.321 50.58C275.03 50.58 275.67 50.7387 276.239 51.056C276.808 51.3733 277.252 51.8167 277.569 52.386C277.896 52.9553 278.059 53.5993 278.059 54.318C278.059 55.0367 277.896 55.6807 277.569 56.25C277.252 56.8193 276.808 57.2673 276.239 57.594C275.67 57.9113 275.03 58.07 274.321 58.07ZM274.321 57.188C274.844 57.188 275.31 57.0713 275.721 56.838C276.141 56.5953 276.468 56.2547 276.701 55.816C276.934 55.3773 277.051 54.878 277.051 54.318C277.051 53.758 276.934 53.2587 276.701 52.82C276.468 52.3813 276.141 52.0453 275.721 51.812C275.31 51.5693 274.844 51.448 274.321 51.448C273.798 51.448 273.327 51.5693 272.907 51.812C272.496 52.0453 272.17 52.3813 271.927 52.82C271.694 53.2587 271.577 53.758 271.577 54.318C271.577 54.878 271.694 55.3773 271.927 55.816C272.17 56.2547 272.496 56.5953 272.907 56.838C273.327 57.0713 273.798 57.188 274.321 57.188ZM283.264 58.07C282.536 58.07 281.882 57.9113 281.304 57.594C280.734 57.2767 280.286 56.8333 279.96 56.264C279.633 55.6853 279.47 55.0367 279.47 54.318C279.47 53.5993 279.633 52.9553 279.96 52.386C280.286 51.8167 280.734 51.3733 281.304 51.056C281.882 50.7387 282.536 50.58 283.264 50.58C283.898 50.58 284.463 50.706 284.958 50.958C285.462 51.2007 285.858 51.56 286.148 52.036L285.406 52.54C285.163 52.176 284.855 51.9053 284.482 51.728C284.108 51.5413 283.702 51.448 283.264 51.448C282.732 51.448 282.251 51.5693 281.822 51.812C281.402 52.0453 281.07 52.3813 280.828 52.82C280.594 53.2587 280.478 53.758 280.478 54.318C280.478 54.8873 280.594 55.3913 280.828 55.83C281.07 56.2593 281.402 56.5953 281.822 56.838C282.251 57.0713 282.732 57.188 283.264 57.188C283.702 57.188 284.108 57.0993 284.482 56.922C284.855 56.7447 285.163 56.474 285.406 56.11L286.148 56.614C285.858 57.09 285.462 57.454 284.958 57.706C284.454 57.9487 283.889 58.07 283.264 58.07ZM293.846 50.636V58H292.852V51.518H289.324L289.226 53.338C289.151 54.8687 288.974 56.0447 288.694 56.866C288.414 57.6873 287.915 58.098 287.196 58.098C287 58.098 286.762 58.0607 286.482 57.986L286.552 57.132C286.72 57.1693 286.837 57.188 286.902 57.188C287.285 57.188 287.574 57.0107 287.77 56.656C287.966 56.3013 288.097 55.8627 288.162 55.34C288.227 54.8173 288.283 54.1267 288.33 53.268L288.456 50.636H293.846ZM303.112 54.626H296.952C297.008 55.3913 297.302 56.012 297.834 56.488C298.366 56.9547 299.038 57.188 299.85 57.188C300.307 57.188 300.727 57.1087 301.11 56.95C301.492 56.782 301.824 56.5393 302.104 56.222L302.664 56.866C302.337 57.258 301.926 57.5567 301.432 57.762C300.946 57.9673 300.41 58.07 299.822 58.07C299.066 58.07 298.394 57.9113 297.806 57.594C297.227 57.2673 296.774 56.8193 296.448 56.25C296.121 55.6807 295.958 55.0367 295.958 54.318C295.958 53.5993 296.112 52.9553 296.42 52.386C296.737 51.8167 297.166 51.3733 297.708 51.056C298.258 50.7387 298.874 50.58 299.556 50.58C300.237 50.58 300.848 50.7387 301.39 51.056C301.931 51.3733 302.356 51.8167 302.664 52.386C302.972 52.946 303.126 53.59 303.126 54.318L303.112 54.626ZM299.556 51.434C298.846 51.434 298.249 51.6627 297.764 52.12C297.288 52.568 297.017 53.156 296.952 53.884H302.174C302.108 53.156 301.833 52.568 301.348 52.12C300.872 51.6627 300.274 51.434 299.556 51.434ZM3.416 74.58C4.15333 74.58 4.816 74.7433 5.404 75.07C6.00133 75.3873 6.468 75.8307 6.804 76.4C7.14933 76.9693 7.322 77.6087 7.322 78.318C7.322 79.0273 7.14933 79.6713 6.804 80.25C6.468 80.8193 6.00133 81.2673 5.404 81.594C4.816 81.9207 4.15333 82.084 3.416 82.084C2.8 82.084 2.23533 81.9907 1.722 81.804C1.20867 81.608 0.774667 81.328 0.42 80.964L1.008 80.376C1.63333 80.964 2.422 81.258 3.374 81.258C3.906 81.258 4.38667 81.146 4.816 80.922C5.25467 80.698 5.60933 80.3853 5.88 79.984C6.16 79.5827 6.32333 79.1347 6.37 78.64H2.436V77.884H6.356C6.25333 77.1467 5.92667 76.5493 5.376 76.092C4.82533 75.6253 4.158 75.392 3.374 75.392C2.422 75.392 1.63333 75.686 1.008 76.274L0.42 75.7C0.774667 75.336 1.20867 75.0607 1.722 74.874C2.23533 74.678 2.8 74.58 3.416 74.58ZM14.3186 75.518H11.5326V82H10.5386V75.518H7.75261V74.636H14.3186V75.518ZM18.452 82.07C17.7427 82.07 17.1033 81.9113 16.534 81.594C15.9647 81.2673 15.5167 80.8193 15.19 80.25C14.8633 79.6807 14.7 79.0367 14.7 78.318C14.7 77.5993 14.8633 76.9553 15.19 76.386C15.5167 75.8167 15.9647 75.3733 16.534 75.056C17.1033 74.7387 17.7427 74.58 18.452 74.58C19.1613 74.58 19.8007 74.7387 20.37 75.056C20.9393 75.3733 21.3827 75.8167 21.7 76.386C22.0267 76.9553 22.19 77.5993 22.19 78.318C22.19 79.0367 22.0267 79.6807 21.7 80.25C21.3827 80.8193 20.9393 81.2673 20.37 81.594C19.8007 81.9113 19.1613 82.07 18.452 82.07ZM18.452 81.188C18.9747 81.188 19.4413 81.0713 19.852 80.838C20.272 80.5953 20.5987 80.2547 20.832 79.816C21.0653 79.3773 21.182 78.878 21.182 78.318C21.182 77.758 21.0653 77.2587 20.832 76.82C20.5987 76.3813 20.272 76.0453 19.852 75.812C19.4413 75.5693 18.9747 75.448 18.452 75.448C17.9293 75.448 17.458 75.5693 17.038 75.812C16.6273 76.0453 16.3007 76.3813 16.058 76.82C15.8247 77.2587 15.708 77.758 15.708 78.318C15.708 78.878 15.8247 79.3773 16.058 79.816C16.3007 80.2547 16.6273 80.5953 17.038 80.838C17.458 81.0713 17.9293 81.188 18.452 81.188ZM29.5224 75.518H25.3084V82H24.3144V74.636H29.5224V75.518ZM33.6551 82.07C32.9458 82.07 32.3065 81.9113 31.7371 81.594C31.1678 81.2673 30.7198 80.8193 30.3931 80.25C30.0665 79.6807 29.9031 79.0367 29.9031 78.318C29.9031 77.5993 30.0665 76.9553 30.3931 76.386C30.7198 75.8167 31.1678 75.3733 31.7371 75.056C32.3065 74.7387 32.9458 74.58 33.6551 74.58C34.3645 74.58 35.0038 74.7387 35.5731 75.056C36.1425 75.3733 36.5858 75.8167 36.9031 76.386C37.2298 76.9553 37.3931 77.5993 37.3931 78.318C37.3931 79.0367 37.2298 79.6807 36.9031 80.25C36.5858 80.8193 36.1425 81.2673 35.5731 81.594C35.0038 81.9113 34.3645 82.07 33.6551 82.07ZM33.6551 81.188C34.1778 81.188 34.6445 81.0713 35.0551 80.838C35.4751 80.5953 35.8018 80.2547 36.0351 79.816C36.2685 79.3773 36.3851 78.878 36.3851 78.318C36.3851 77.758 36.2685 77.2587 36.0351 76.82C35.8018 76.3813 35.4751 76.0453 35.0551 75.812C34.6445 75.5693 34.1778 75.448 33.6551 75.448C33.1325 75.448 32.6611 75.5693 32.2411 75.812C31.8305 76.0453 31.5038 76.3813 31.2611 76.82C31.0278 77.2587 30.9111 77.758 30.9111 78.318C30.9111 78.878 31.0278 79.3773 31.2611 79.816C31.5038 80.2547 31.8305 80.5953 32.2411 80.838C32.6611 81.0713 33.1325 81.188 33.6551 81.188ZM49.7896 74.636V82H48.7956V75.518H44.1756V82H43.1816V74.636H49.7896ZM56.4092 74.58C57.0998 74.58 57.7252 74.7387 58.2852 75.056C58.8452 75.364 59.2838 75.8027 59.6012 76.372C59.9185 76.9413 60.0772 77.59 60.0772 78.318C60.0772 79.0553 59.9185 79.7087 59.6012 80.278C59.2838 80.8473 58.8452 81.2907 58.2852 81.608C57.7345 81.916 57.1092 82.07 56.4092 82.07C55.8118 82.07 55.2705 81.9487 54.7852 81.706C54.3092 81.454 53.9172 81.09 53.6092 80.614V84.716H52.6152V74.636H53.5672V76.092C53.8658 75.6067 54.2578 75.2333 54.7432 74.972C55.2378 74.7107 55.7932 74.58 56.4092 74.58ZM56.3392 81.188C56.8525 81.188 57.3192 81.0713 57.7392 80.838C58.1592 80.5953 58.4858 80.2547 58.7192 79.816C58.9618 79.3773 59.0832 78.878 59.0832 78.318C59.0832 77.758 58.9618 77.2633 58.7192 76.834C58.4858 76.3953 58.1592 76.0547 57.7392 75.812C57.3192 75.5693 56.8525 75.448 56.3392 75.448C55.8165 75.448 55.3452 75.5693 54.9252 75.812C54.5145 76.0547 54.1878 76.3953 53.9452 76.834C53.7118 77.2633 53.5952 77.758 53.5952 78.318C53.5952 78.878 53.7118 79.3773 53.9452 79.816C54.1878 80.2547 54.5145 80.5953 54.9252 80.838C55.3452 81.0713 55.8165 81.188 56.3392 81.188ZM62.2128 74.636H63.2068V80.488L68.1208 74.636H69.0028V82H68.0088V76.148L63.1088 82H62.2128V74.636ZM78.5536 82.07C77.8442 82.07 77.2049 81.9113 76.6356 81.594C76.0662 81.2673 75.6182 80.8193 75.2916 80.25C74.9649 79.6807 74.8016 79.0367 74.8016 78.318C74.8016 77.5993 74.9649 76.9553 75.2916 76.386C75.6182 75.8167 76.0662 75.3733 76.6356 75.056C77.2049 74.7387 77.8442 74.58 78.5536 74.58C79.2629 74.58 79.9022 74.7387 80.4716 75.056C81.0409 75.3733 81.4842 75.8167 81.8016 76.386C82.1282 76.9553 82.2916 77.5993 82.2916 78.318C82.2916 79.0367 82.1282 79.6807 81.8016 80.25C81.4842 80.8193 81.0409 81.2673 80.4716 81.594C79.9022 81.9113 79.2629 82.07 78.5536 82.07ZM78.5536 81.188C79.0762 81.188 79.5429 81.0713 79.9536 80.838C80.3736 80.5953 80.7002 80.2547 80.9336 79.816C81.1669 79.3773 81.2836 78.878 81.2836 78.318C81.2836 77.758 81.1669 77.2587 80.9336 76.82C80.7002 76.3813 80.3736 76.0453 79.9536 75.812C79.5429 75.5693 79.0762 75.448 78.5536 75.448C78.0309 75.448 77.5596 75.5693 77.1396 75.812C76.7289 76.0453 76.4022 76.3813 76.1596 76.82C75.9262 77.2587 75.8096 77.758 75.8096 78.318C75.8096 78.878 75.9262 79.3773 76.1596 79.816C76.4022 80.2547 76.7289 80.5953 77.1396 80.838C77.5596 81.0713 78.0309 81.188 78.5536 81.188ZM89.3225 75.518H86.5365V82H85.5425V75.518H82.7565V74.636H89.3225V75.518ZM98.9917 74.636V82H98.0817V76.176L95.0997 81.104H94.6517L91.6697 76.162V82H90.7597V74.636H91.7677L94.8897 79.942L98.0677 74.636H98.9917ZM108.26 78.626H102.1C102.156 79.3913 102.45 80.012 102.982 80.488C103.514 80.9547 104.186 81.188 104.998 81.188C105.456 81.188 105.876 81.1087 106.258 80.95C106.641 80.782 106.972 80.5393 107.252 80.222L107.812 80.866C107.486 81.258 107.075 81.5567 106.58 81.762C106.095 81.9673 105.558 82.07 104.97 82.07C104.214 82.07 103.542 81.9113 102.954 81.594C102.376 81.2673 101.923 80.8193 101.596 80.25C101.27 79.6807 101.106 79.0367 101.106 78.318C101.106 77.5993 101.26 76.9553 101.568 76.386C101.886 75.8167 102.315 75.3733 102.856 75.056C103.407 74.7387 104.023 74.58 104.704 74.58C105.386 74.58 105.997 74.7387 106.538 75.056C107.08 75.3733 107.504 75.8167 107.812 76.386C108.12 76.946 108.274 77.59 108.274 78.318L108.26 78.626ZM104.704 75.434C103.995 75.434 103.398 75.6627 102.912 76.12C102.436 76.568 102.166 77.156 102.1 77.884H107.322C107.257 77.156 106.982 76.568 106.496 76.12C106.02 75.6627 105.423 75.434 104.704 75.434ZM110.475 74.636H111.469V77.898H116.103V74.636H117.097V82H116.103V78.752H111.469V82H110.475V74.636ZM126.362 78.626H120.202C120.258 79.3913 120.552 80.012 121.084 80.488C121.616 80.9547 122.288 81.188 123.1 81.188C123.557 81.188 123.977 81.1087 124.36 80.95C124.742 80.782 125.074 80.5393 125.354 80.222L125.914 80.866C125.587 81.258 125.176 81.5567 124.682 81.762C124.196 81.9673 123.66 82.07 123.072 82.07C122.316 82.07 121.644 81.9113 121.056 81.594C120.477 81.2673 120.024 80.8193 119.698 80.25C119.371 79.6807 119.208 79.0367 119.208 78.318C119.208 77.5993 119.362 76.9553 119.67 76.386C119.987 75.8167 120.416 75.3733 120.958 75.056C121.508 74.7387 122.124 74.58 122.806 74.58C123.487 74.58 124.098 74.7387 124.64 75.056C125.181 75.3733 125.606 75.8167 125.914 76.386C126.222 76.946 126.376 77.59 126.376 78.318L126.362 78.626ZM122.806 75.434C122.096 75.434 121.499 75.6627 121.014 76.12C120.538 76.568 120.267 77.156 120.202 77.884H125.424C125.358 77.156 125.083 76.568 124.598 76.12C124.122 75.6627 123.524 75.434 122.806 75.434ZM132.24 74.636H133.234V77.898H137.868V74.636H138.862V82H137.868V78.752H133.234V82H132.24V74.636ZM148.127 78.626H141.967C142.023 79.3913 142.317 80.012 142.849 80.488C143.381 80.9547 144.053 81.188 144.865 81.188C145.323 81.188 145.743 81.1087 146.125 80.95C146.508 80.782 146.839 80.5393 147.119 80.222L147.679 80.866C147.353 81.258 146.942 81.5567 146.447 81.762C145.962 81.9673 145.425 82.07 144.837 82.07C144.081 82.07 143.409 81.9113 142.821 81.594C142.243 81.2673 141.79 80.8193 141.463 80.25C141.137 79.6807 140.973 79.0367 140.973 78.318C140.973 77.5993 141.127 76.9553 141.435 76.386C141.753 75.8167 142.182 75.3733 142.723 75.056C143.274 74.7387 143.89 74.58 144.571 74.58C145.253 74.58 145.864 74.7387 146.405 75.056C146.947 75.3733 147.371 75.8167 147.679 76.386C147.987 76.946 148.141 77.59 148.141 78.318L148.127 78.626ZM144.571 75.434C143.862 75.434 143.265 75.6627 142.779 76.12C142.303 76.568 142.033 77.156 141.967 77.884H147.189C147.124 77.156 146.849 76.568 146.363 76.12C145.887 75.6627 145.29 75.434 144.571 75.434ZM160.614 74.636V82H159.62V75.518H155V82H154.006V74.636H160.614ZM166.477 82.07C165.768 82.07 165.129 81.9113 164.559 81.594C163.99 81.2673 163.542 80.8193 163.215 80.25C162.889 79.6807 162.725 79.0367 162.725 78.318C162.725 77.5993 162.889 76.9553 163.215 76.386C163.542 75.8167 163.99 75.3733 164.559 75.056C165.129 74.7387 165.768 74.58 166.477 74.58C167.187 74.58 167.826 74.7387 168.395 75.056C168.965 75.3733 169.408 75.8167 169.725 76.386C170.052 76.9553 170.215 77.5993 170.215 78.318C170.215 79.0367 170.052 79.6807 169.725 80.25C169.408 80.8193 168.965 81.2673 168.395 81.594C167.826 81.9113 167.187 82.07 166.477 82.07ZM166.477 81.188C167 81.188 167.467 81.0713 167.877 80.838C168.297 80.5953 168.624 80.2547 168.857 79.816C169.091 79.3773 169.207 78.878 169.207 78.318C169.207 77.758 169.091 77.2587 168.857 76.82C168.624 76.3813 168.297 76.0453 167.877 75.812C167.467 75.5693 167 75.448 166.477 75.448C165.955 75.448 165.483 75.5693 165.063 75.812C164.653 76.0453 164.326 76.3813 164.083 76.82C163.85 77.2587 163.733 77.758 163.733 78.318C163.733 78.878 163.85 79.3773 164.083 79.816C164.326 80.2547 164.653 80.5953 165.063 80.838C165.483 81.0713 165.955 81.188 166.477 81.188ZM175.869 78.164C176.392 78.2853 176.793 78.4953 177.073 78.794C177.362 79.0927 177.507 79.4567 177.507 79.886C177.507 80.3153 177.358 80.698 177.059 81.034C176.77 81.37 176.373 81.6313 175.869 81.818C175.365 81.9953 174.81 82.084 174.203 82.084C173.671 82.084 173.148 82.0093 172.635 81.86C172.122 81.7013 171.674 81.4727 171.291 81.174L171.627 80.432C171.963 80.684 172.355 80.88 172.803 81.02C173.251 81.16 173.704 81.23 174.161 81.23C174.842 81.23 175.398 81.104 175.827 80.852C176.266 80.5907 176.485 80.2407 176.485 79.802C176.485 79.41 176.308 79.1067 175.953 78.892C175.598 78.668 175.113 78.556 174.497 78.556H173.237V77.828H174.441C174.992 77.828 175.435 77.7253 175.771 77.52C176.107 77.3053 176.275 77.0207 176.275 76.666C176.275 76.274 176.084 75.966 175.701 75.742C175.328 75.518 174.838 75.406 174.231 75.406C173.438 75.406 172.654 75.6067 171.879 76.008L171.599 75.238C172.476 74.7807 173.386 74.552 174.329 74.552C174.889 74.552 175.393 74.636 175.841 74.804C176.298 74.9627 176.653 75.1913 176.905 75.49C177.166 75.7887 177.297 76.134 177.297 76.526C177.297 76.8993 177.166 77.2307 176.905 77.52C176.653 77.8093 176.308 78.024 175.869 78.164ZM186.946 81.132V83.778H186.008V82H179.414V83.778H178.476V81.132H178.896C179.39 81.104 179.726 80.74 179.904 80.04C180.081 79.34 180.202 78.36 180.268 77.1L180.366 74.636H185.798V81.132H186.946ZM181.178 77.156C181.131 78.2013 181.042 79.0647 180.912 79.746C180.781 80.418 180.548 80.88 180.212 81.132H184.804V75.518H181.262L181.178 77.156ZM188.883 74.636H189.877V77.898H194.511V74.636H195.505V82H194.511V78.752H189.877V82H188.883V74.636ZM204.77 78.626H198.61C198.666 79.3913 198.96 80.012 199.492 80.488C200.024 80.9547 200.696 81.188 201.508 81.188C201.965 81.188 202.385 81.1087 202.768 80.95C203.151 80.782 203.482 80.5393 203.762 80.222L204.322 80.866C203.995 81.258 203.585 81.5567 203.09 81.762C202.605 81.9673 202.068 82.07 201.48 82.07C200.724 82.07 200.052 81.9113 199.464 81.594C198.885 81.2673 198.433 80.8193 198.106 80.25C197.779 79.6807 197.616 79.0367 197.616 78.318C197.616 77.5993 197.77 76.9553 198.078 76.386C198.395 75.8167 198.825 75.3733 199.366 75.056C199.917 74.7387 200.533 74.58 201.214 74.58C201.895 74.58 202.507 74.7387 203.048 75.056C203.589 75.3733 204.014 75.8167 204.322 76.386C204.63 76.946 204.784 77.59 204.784 78.318L204.77 78.626ZM201.214 75.434C200.505 75.434 199.907 75.6627 199.422 76.12C198.946 76.568 198.675 77.156 198.61 77.884H203.832C203.767 77.156 203.491 76.568 203.006 76.12C202.53 75.6627 201.933 75.434 201.214 75.434ZM213.424 78.626H207.264C207.32 79.3913 207.614 80.012 208.146 80.488C208.678 80.9547 209.35 81.188 210.162 81.188C210.62 81.188 211.04 81.1087 211.422 80.95C211.805 80.782 212.136 80.5393 212.416 80.222L212.976 80.866C212.65 81.258 212.239 81.5567 211.744 81.762C211.259 81.9673 210.722 82.07 210.134 82.07C209.378 82.07 208.706 81.9113 208.118 81.594C207.54 81.2673 207.087 80.8193 206.76 80.25C206.434 79.6807 206.27 79.0367 206.27 78.318C206.27 77.5993 206.424 76.9553 206.732 76.386C207.05 75.8167 207.479 75.3733 208.02 75.056C208.571 74.7387 209.187 74.58 209.868 74.58C210.55 74.58 211.161 74.7387 211.702 75.056C212.244 75.3733 212.668 75.8167 212.976 76.386C213.284 76.946 213.438 77.59 213.438 78.318L213.424 78.626ZM209.868 75.434C209.159 75.434 208.562 75.6627 208.076 76.12C207.6 76.568 207.33 77.156 207.264 77.884H212.486C212.421 77.156 212.146 76.568 211.66 76.12C211.184 75.6627 210.587 75.434 209.868 75.434ZM224.861 74.636V82H223.867V78.934C223.017 79.3073 222.182 79.494 221.361 79.494C220.474 79.494 219.783 79.2933 219.289 78.892C218.794 78.4813 218.547 77.87 218.547 77.058V74.636H219.541V77.002C219.541 77.5527 219.718 77.9727 220.073 78.262C220.427 78.542 220.917 78.682 221.543 78.682C222.233 78.682 223.008 78.5 223.867 78.136V74.636H224.861ZM234.124 78.626H227.964C228.02 79.3913 228.314 80.012 228.846 80.488C229.378 80.9547 230.05 81.188 230.862 81.188C231.319 81.188 231.739 81.1087 232.122 80.95C232.504 80.782 232.836 80.5393 233.116 80.222L233.676 80.866C233.349 81.258 232.938 81.5567 232.444 81.762C231.958 81.9673 231.422 82.07 230.834 82.07C230.078 82.07 229.406 81.9113 228.818 81.594C228.239 81.2673 227.786 80.8193 227.46 80.25C227.133 79.6807 226.97 79.0367 226.97 78.318C226.97 77.5993 227.124 76.9553 227.432 76.386C227.749 75.8167 228.178 75.3733 228.72 75.056C229.27 74.7387 229.886 74.58 230.568 74.58C231.249 74.58 231.86 74.7387 232.402 75.056C232.943 75.3733 233.368 75.8167 233.676 76.386C233.984 76.946 234.138 77.59 234.138 78.318L234.124 78.626ZM230.568 75.434C229.858 75.434 229.261 75.6627 228.776 76.12C228.3 76.568 228.029 77.156 227.964 77.884H233.186C233.12 77.156 232.845 76.568 232.36 76.12C231.884 75.6627 231.286 75.434 230.568 75.434ZM244.57 74.636V82H243.66V76.176L240.678 81.104H240.23L237.248 76.162V82H236.338V74.636H237.346L240.468 79.942L243.646 74.636H244.57ZM254.646 78.164C255.169 78.2853 255.57 78.4953 255.85 78.794C256.14 79.0927 256.284 79.4567 256.284 79.886C256.284 80.3153 256.135 80.698 255.836 81.034C255.547 81.37 255.15 81.6313 254.646 81.818C254.142 81.9953 253.587 82.084 252.98 82.084C252.448 82.084 251.926 82.0093 251.412 81.86C250.899 81.7013 250.451 81.4727 250.068 81.174L250.404 80.432C250.74 80.684 251.132 80.88 251.58 81.02C252.028 81.16 252.481 81.23 252.938 81.23C253.62 81.23 254.175 81.104 254.604 80.852C255.043 80.5907 255.262 80.2407 255.262 79.802C255.262 79.41 255.085 79.1067 254.73 78.892C254.376 78.668 253.89 78.556 253.274 78.556H252.014V77.828H253.218C253.769 77.828 254.212 77.7253 254.548 77.52C254.884 77.3053 255.052 77.0207 255.052 76.666C255.052 76.274 254.861 75.966 254.478 75.742C254.105 75.518 253.615 75.406 253.008 75.406C252.215 75.406 251.431 75.6067 250.656 76.008L250.376 75.238C251.254 74.7807 252.164 74.552 253.106 74.552C253.666 74.552 254.17 74.636 254.618 74.804C255.076 74.9627 255.43 75.1913 255.682 75.49C255.944 75.7887 256.074 76.134 256.074 76.526C256.074 76.8993 255.944 77.2307 255.682 77.52C255.43 77.8093 255.085 78.024 254.646 78.164ZM261.075 74.58C262.036 74.58 262.774 74.8227 263.287 75.308C263.8 75.784 264.057 76.4933 264.057 77.436V82H263.105V80.852C262.881 81.2347 262.55 81.5333 262.111 81.748C261.682 81.9627 261.168 82.07 260.571 82.07C259.75 82.07 259.096 81.874 258.611 81.482C258.126 81.09 257.883 80.572 257.883 79.928C257.883 79.3027 258.107 78.7987 258.555 78.416C259.012 78.0333 259.736 77.842 260.725 77.842H263.063V77.394C263.063 76.7593 262.886 76.2787 262.531 75.952C262.176 75.616 261.658 75.448 260.977 75.448C260.51 75.448 260.062 75.5273 259.633 75.686C259.204 75.8353 258.835 76.0453 258.527 76.316L258.079 75.574C258.452 75.2567 258.9 75.014 259.423 74.846C259.946 74.6687 260.496 74.58 261.075 74.58ZM260.725 81.286C261.285 81.286 261.766 81.16 262.167 80.908C262.568 80.6467 262.867 80.2733 263.063 79.788V78.584H260.753C259.493 78.584 258.863 79.0227 258.863 79.9C258.863 80.3293 259.026 80.67 259.353 80.922C259.68 81.1647 260.137 81.286 260.725 81.286ZM272.257 76.218C273.676 76.218 274.707 76.4747 275.351 76.988C276.004 77.492 276.331 78.2013 276.331 79.116C276.331 79.6853 276.196 80.194 275.925 80.642C275.664 81.09 275.267 81.4447 274.735 81.706C274.203 81.958 273.55 82.084 272.775 82.084C272.075 82.084 271.408 81.972 270.773 81.748C270.148 81.5147 269.644 81.2067 269.261 80.824L269.751 80.026C270.078 80.362 270.507 80.6373 271.039 80.852C271.571 81.0573 272.145 81.16 272.761 81.16C273.573 81.16 274.198 80.978 274.637 80.614C275.085 80.25 275.309 79.7647 275.309 79.158C275.309 78.486 275.057 77.9773 274.553 77.632C274.058 77.2867 273.218 77.114 272.033 77.114H269.947L270.451 72.2H275.813V73.096H271.333L270.997 76.218H272.257ZM289.143 81.132V83.778H288.205V82H281.611V83.778H280.673V81.132H281.093C281.588 81.104 281.924 80.74 282.101 80.04C282.278 79.34 282.4 78.36 282.465 77.1L282.563 74.636H287.995V81.132H289.143ZM283.375 77.156C283.328 78.2013 283.24 79.0647 283.109 79.746C282.978 80.418 282.745 80.88 282.409 81.132H287.001V75.518H283.459L283.375 77.156ZM291.08 74.636H292.074V77.898H296.708V74.636H297.702V82H296.708V78.752H292.074V82H291.08V74.636ZM300.597 82.07C300.392 82.07 300.215 81.9953 300.065 81.846C299.925 81.6967 299.855 81.5147 299.855 81.3C299.855 81.0853 299.925 80.908 300.065 80.768C300.215 80.6187 300.392 80.544 300.597 80.544C300.803 80.544 300.98 80.6187 301.129 80.768C301.279 80.908 301.353 81.0853 301.353 81.3C301.353 81.5147 301.279 81.6967 301.129 81.846C300.98 81.9953 300.803 82.07 300.597 82.07ZM314.34 81.132V83.778H313.402V82H306.808V83.778H305.87V81.132H306.29C306.785 81.104 307.121 80.74 307.298 80.04C307.475 79.34 307.597 78.36 307.662 77.1L307.76 74.636H313.192V81.132H314.34ZM308.572 77.156C308.525 78.2013 308.437 79.0647 308.306 79.746C308.175 80.418 307.942 80.88 307.606 81.132H312.198V75.518H308.656L308.572 77.156ZM319.315 82.07C318.606 82.07 317.967 81.9113 317.397 81.594C316.828 81.2673 316.38 80.8193 316.053 80.25C315.727 79.6807 315.563 79.0367 315.563 78.318C315.563 77.5993 315.727 76.9553 316.053 76.386C316.38 75.8167 316.828 75.3733 317.397 75.056C317.967 74.7387 318.606 74.58 319.315 74.58C320.025 74.58 320.664 74.7387 321.233 75.056C321.803 75.3733 322.246 75.8167 322.563 76.386C322.89 76.9553 323.053 77.5993 323.053 78.318C323.053 79.0367 322.89 79.6807 322.563 80.25C322.246 80.8193 321.803 81.2673 321.233 81.594C320.664 81.9113 320.025 82.07 319.315 82.07ZM319.315 81.188C319.838 81.188 320.305 81.0713 320.715 80.838C321.135 80.5953 321.462 80.2547 321.695 79.816C321.929 79.3773 322.045 78.878 322.045 78.318C322.045 77.758 321.929 77.2587 321.695 76.82C321.462 76.3813 321.135 76.0453 320.715 75.812C320.305 75.5693 319.838 75.448 319.315 75.448C318.793 75.448 318.321 75.5693 317.901 75.812C317.491 76.0453 317.164 76.3813 316.921 76.82C316.688 77.2587 316.571 77.758 316.571 78.318C316.571 78.878 316.688 79.3773 316.921 79.816C317.164 80.2547 317.491 80.5953 317.901 80.838C318.321 81.0713 318.793 81.188 319.315 81.188ZM8.022 98.636V106H7.028V99.518H2.408V106H1.414V98.636H8.022ZM14.6416 98.58C15.3323 98.58 15.9576 98.7387 16.5176 99.056C17.0776 99.364 17.5163 99.8027 17.8336 100.372C18.1509 100.941 18.3096 101.59 18.3096 102.318C18.3096 103.055 18.1509 103.709 17.8336 104.278C17.5163 104.847 17.0776 105.291 16.5176 105.608C15.9669 105.916 15.3416 106.07 14.6416 106.07C14.0443 106.07 13.5029 105.949 13.0176 105.706C12.5416 105.454 12.1496 105.09 11.8416 104.614V108.716H10.8476V98.636H11.7996V100.092C12.0983 99.6067 12.4903 99.2333 12.9756 98.972C13.4703 98.7107 14.0256 98.58 14.6416 98.58ZM14.5716 105.188C15.0849 105.188 15.5516 105.071 15.9716 104.838C16.3916 104.595 16.7183 104.255 16.9516 103.816C17.1943 103.377 17.3156 102.878 17.3156 102.318C17.3156 101.758 17.1943 101.263 16.9516 100.834C16.7183 100.395 16.3916 100.055 15.9716 99.812C15.5516 99.5693 15.0849 99.448 14.5716 99.448C14.0489 99.448 13.5776 99.5693 13.1576 99.812C12.7469 100.055 12.4203 100.395 12.1776 100.834C11.9443 101.263 11.8276 101.758 11.8276 102.318C11.8276 102.878 11.9443 103.377 12.1776 103.816C12.4203 104.255 12.7469 104.595 13.1576 104.838C13.5776 105.071 14.0489 105.188 14.5716 105.188ZM20.4453 98.636H21.4393V104.488L26.3533 98.636H27.2353V106H26.2413V100.148L21.3413 106H20.4453V98.636ZM33.6539 98.818C34.3353 98.818 34.9419 98.972 35.4739 99.28C36.0153 99.5787 36.4353 100.003 36.7339 100.554C37.0326 101.095 37.1819 101.716 37.1819 102.416C37.1819 103.135 37.0233 103.774 36.7059 104.334C36.3979 104.885 35.9639 105.314 35.4039 105.622C34.8439 105.93 34.1999 106.084 33.4719 106.084C32.2493 106.084 31.3019 105.655 30.6299 104.796C29.9579 103.937 29.6219 102.752 29.6219 101.24C29.6219 99.6627 29.9206 98.454 30.5179 97.614C31.1246 96.774 32.0673 96.2047 33.3459 95.906L36.6499 95.15L36.8179 96.06L33.7099 96.774C32.6553 97.0073 31.8806 97.4227 31.3859 98.02C30.8913 98.608 30.6206 99.4807 30.5739 100.638C30.8726 100.069 31.2879 99.6253 31.8199 99.308C32.3519 98.9813 32.9633 98.818 33.6539 98.818ZM33.4999 105.258C34.0133 105.258 34.4706 105.141 34.8719 104.908C35.2826 104.665 35.5999 104.329 35.8239 103.9C36.0573 103.471 36.1739 102.985 36.1739 102.444C36.1739 101.903 36.0619 101.427 35.8379 101.016C35.6139 100.605 35.2966 100.288 34.8859 100.064C34.4846 99.8307 34.0226 99.714 33.4999 99.714C32.9773 99.714 32.5106 99.8307 32.0999 100.064C31.6986 100.288 31.3813 100.605 31.1479 101.016C30.9239 101.427 30.8119 101.903 30.8119 102.444C30.8119 102.985 30.9239 103.471 31.1479 103.9C31.3813 104.329 31.7033 104.665 32.1139 104.908C32.5246 105.141 32.9866 105.258 33.4999 105.258ZM42.4064 101.24C43.3304 101.249 44.0351 101.455 44.5204 101.856C45.0058 102.257 45.2484 102.836 45.2484 103.592C45.2484 104.376 44.9871 104.978 44.4644 105.398C43.9418 105.818 43.1951 106.023 42.2244 106.014L39.3124 106V98.636H40.3064V101.212L42.4064 101.24ZM46.4804 98.636H47.4744V106H46.4804V98.636ZM42.1684 105.258C42.8498 105.267 43.3631 105.132 43.7084 104.852C44.0631 104.563 44.2404 104.143 44.2404 103.592C44.2404 103.051 44.0678 102.649 43.7224 102.388C43.3771 102.127 42.8591 101.991 42.1684 101.982L40.3064 101.954V105.23L42.1684 105.258ZM55.4846 99.518H52.6986V106H51.7046V99.518H48.9186V98.636H55.4846V99.518ZM56.9218 98.636H57.9158V104.488L62.8298 98.636H63.7118V106H62.7178V100.148L57.8178 106H56.9218V98.636ZM72.2165 98.636V106H71.3065V103.564H68.9965H68.7165L67.0085 106H65.9305L67.7645 103.424C67.1952 103.265 66.7565 102.995 66.4485 102.612C66.1405 102.229 65.9865 101.744 65.9865 101.156C65.9865 100.335 66.2665 99.7093 66.8265 99.28C67.3865 98.8507 68.1518 98.636 69.1225 98.636H72.2165ZM66.9945 101.184C66.9945 102.276 67.6898 102.822 69.0805 102.822H71.3065V99.518H69.1505C67.7132 99.518 66.9945 100.073 66.9945 101.184ZM83.4048 102.192C84.4034 102.425 84.9028 103.027 84.9028 103.998C84.9028 104.642 84.6648 105.137 84.1888 105.482C83.7128 105.827 83.0034 106 82.0608 106H78.7148V98.636H81.9628C82.8028 98.636 83.4608 98.7993 83.9368 99.126C84.4128 99.4527 84.6508 99.9193 84.6508 100.526C84.6508 100.927 84.5388 101.273 84.3148 101.562C84.1001 101.842 83.7968 102.052 83.4048 102.192ZM79.6808 101.912H81.8928C82.4621 101.912 82.8961 101.805 83.1948 101.59C83.5028 101.375 83.6568 101.063 83.6568 100.652C83.6568 100.241 83.5028 99.9333 83.1948 99.728C82.8961 99.5227 82.4621 99.42 81.8928 99.42H79.6808V101.912ZM82.0188 105.216C82.6534 105.216 83.1294 105.113 83.4468 104.908C83.7641 104.703 83.9228 104.381 83.9228 103.942C83.9228 103.503 83.7781 103.181 83.4888 102.976C83.1994 102.761 82.7421 102.654 82.1168 102.654H79.6808V105.216H82.0188ZM90.3264 101.24C91.2504 101.249 91.955 101.455 92.4404 101.856C92.9257 102.257 93.1684 102.836 93.1684 103.592C93.1684 104.376 92.907 104.978 92.3844 105.398C91.8617 105.818 91.115 106.023 90.1444 106.014L87.2324 106V98.636H88.2264V101.212L90.3264 101.24ZM94.4004 98.636H95.3944V106H94.4004V98.636ZM90.0884 105.258C90.7697 105.267 91.283 105.132 91.6284 104.852C91.983 104.563 92.1604 104.143 92.1604 103.592C92.1604 103.051 91.9877 102.649 91.6424 102.388C91.297 102.127 90.779 101.991 90.0884 101.982L88.2264 101.954V105.23L90.0884 105.258ZM108.497 98.636V106H107.503V99.518H102.883V106H101.889V98.636H108.497ZM114.36 106.07C113.651 106.07 113.012 105.911 112.442 105.594C111.873 105.267 111.425 104.819 111.098 104.25C110.772 103.681 110.608 103.037 110.608 102.318C110.608 101.599 110.772 100.955 111.098 100.386C111.425 99.8167 111.873 99.3733 112.442 99.056C113.012 98.7387 113.651 98.58 114.36 98.58C115.07 98.58 115.709 98.7387 116.278 99.056C116.848 99.3733 117.291 99.8167 117.608 100.386C117.935 100.955 118.098 101.599 118.098 102.318C118.098 103.037 117.935 103.681 117.608 104.25C117.291 104.819 116.848 105.267 116.278 105.594C115.709 105.911 115.07 106.07 114.36 106.07ZM114.36 105.188C114.883 105.188 115.35 105.071 115.76 104.838C116.18 104.595 116.507 104.255 116.74 103.816C116.974 103.377 117.09 102.878 117.09 102.318C117.09 101.758 116.974 101.259 116.74 100.82C116.507 100.381 116.18 100.045 115.76 99.812C115.35 99.5693 114.883 99.448 114.36 99.448C113.838 99.448 113.366 99.5693 112.946 99.812C112.536 100.045 112.209 100.381 111.966 100.82C111.733 101.259 111.616 101.758 111.616 102.318C111.616 102.878 111.733 103.377 111.966 103.816C112.209 104.255 112.536 104.595 112.946 104.838C113.366 105.071 113.838 105.188 114.36 105.188ZM126.202 98.636V106H125.208V99.518H121.68L121.582 101.338C121.507 102.869 121.33 104.045 121.05 104.866C120.77 105.687 120.27 106.098 119.552 106.098C119.356 106.098 119.118 106.061 118.838 105.986L118.908 105.132C119.076 105.169 119.192 105.188 119.258 105.188C119.64 105.188 119.93 105.011 120.126 104.656C120.322 104.301 120.452 103.863 120.518 103.34C120.583 102.817 120.639 102.127 120.686 101.268L120.812 98.636H126.202ZM135.285 98.636L131.603 106.882C131.305 107.573 130.959 108.063 130.567 108.352C130.175 108.641 129.704 108.786 129.153 108.786C128.799 108.786 128.467 108.73 128.159 108.618C127.851 108.506 127.585 108.338 127.361 108.114L127.823 107.372C128.197 107.745 128.645 107.932 129.167 107.932C129.503 107.932 129.788 107.839 130.021 107.652C130.264 107.465 130.488 107.148 130.693 106.7L131.015 105.986L127.725 98.636H128.761L131.533 104.894L134.305 98.636H135.285ZM142.392 98.636V106H141.398V102.934C140.549 103.307 139.713 103.494 138.892 103.494C138.005 103.494 137.315 103.293 136.82 102.892C136.325 102.481 136.078 101.87 136.078 101.058V98.636H137.072V101.002C137.072 101.553 137.249 101.973 137.604 102.262C137.959 102.542 138.449 102.682 139.074 102.682C139.765 102.682 140.539 102.5 141.398 102.136V98.636H142.392ZM145.215 98.636H146.209V104.488L151.123 98.636H152.005V106H151.011V100.148L146.111 106H145.215V98.636ZM160.033 99.518H157.247V106H156.253V99.518H153.467V98.636H160.033V99.518ZM167.569 102.626H161.409C161.465 103.391 161.759 104.012 162.291 104.488C162.823 104.955 163.495 105.188 164.307 105.188C164.764 105.188 165.184 105.109 165.567 104.95C165.95 104.782 166.281 104.539 166.561 104.222L167.121 104.866C166.794 105.258 166.384 105.557 165.889 105.762C165.404 105.967 164.867 106.07 164.279 106.07C163.523 106.07 162.851 105.911 162.263 105.594C161.684 105.267 161.232 104.819 160.905 104.25C160.578 103.681 160.415 103.037 160.415 102.318C160.415 101.599 160.569 100.955 160.877 100.386C161.194 99.8167 161.624 99.3733 162.165 99.056C162.716 98.7387 163.332 98.58 164.013 98.58C164.694 98.58 165.306 98.7387 165.847 99.056C166.388 99.3733 166.813 99.8167 167.121 100.386C167.429 100.946 167.583 101.59 167.583 102.318L167.569 102.626ZM164.013 99.434C163.304 99.434 162.706 99.6627 162.221 100.12C161.745 100.568 161.474 101.156 161.409 101.884H166.631C166.566 101.156 166.29 100.568 165.805 100.12C165.329 99.6627 164.732 99.434 164.013 99.434ZM180.055 98.636V106H179.061V99.518H174.441V106H173.447V98.636H180.055ZM185.919 106.07C185.209 106.07 184.57 105.911 184.001 105.594C183.431 105.267 182.983 104.819 182.657 104.25C182.33 103.681 182.167 103.037 182.167 102.318C182.167 101.599 182.33 100.955 182.657 100.386C182.983 99.8167 183.431 99.3733 184.001 99.056C184.57 98.7387 185.209 98.58 185.919 98.58C186.628 98.58 187.267 98.7387 187.837 99.056C188.406 99.3733 188.849 99.8167 189.167 100.386C189.493 100.955 189.657 101.599 189.657 102.318C189.657 103.037 189.493 103.681 189.167 104.25C188.849 104.819 188.406 105.267 187.837 105.594C187.267 105.911 186.628 106.07 185.919 106.07ZM185.919 105.188C186.441 105.188 186.908 105.071 187.319 104.838C187.739 104.595 188.065 104.255 188.299 103.816C188.532 103.377 188.649 102.878 188.649 102.318C188.649 101.758 188.532 101.259 188.299 100.82C188.065 100.381 187.739 100.045 187.319 99.812C186.908 99.5693 186.441 99.448 185.919 99.448C185.396 99.448 184.925 99.5693 184.505 99.812C184.094 100.045 183.767 100.381 183.525 100.82C183.291 101.259 183.175 101.758 183.175 102.318C183.175 102.878 183.291 103.377 183.525 103.816C183.767 104.255 184.094 104.595 184.505 104.838C184.925 105.071 185.396 105.188 185.919 105.188ZM197.76 98.636V106H196.766V99.518H193.238L193.14 101.338C193.066 102.869 192.888 104.045 192.608 104.866C192.328 105.687 191.829 106.098 191.11 106.098C190.914 106.098 190.676 106.061 190.396 105.986L190.466 105.132C190.634 105.169 190.751 105.188 190.816 105.188C191.199 105.188 191.488 105.011 191.684 104.656C191.88 104.301 192.011 103.863 192.076 103.34C192.142 102.817 192.198 102.127 192.244 101.268L192.37 98.636H197.76ZM200.586 98.636H201.58V101.898H206.214V98.636H207.208V106H206.214V102.752H201.58V106H200.586V98.636ZM213.127 101.24C214.051 101.249 214.756 101.455 215.241 101.856C215.726 102.257 215.969 102.836 215.969 103.592C215.969 104.376 215.708 104.978 215.185 105.398C214.662 105.818 213.916 106.023 212.945 106.014L210.033 106V98.636H211.027V101.212L213.127 101.24ZM217.201 98.636H218.195V106H217.201V98.636ZM212.889 105.258C213.57 105.267 214.084 105.132 214.429 104.852C214.784 104.563 214.961 104.143 214.961 103.592C214.961 103.051 214.788 102.649 214.443 102.388C214.098 102.127 213.58 101.991 212.889 101.982L211.027 101.954V105.23L212.889 105.258ZM221.025 98.636H222.019V104.488L226.933 98.636H227.815V106H226.821V100.148L221.921 106H221.025V98.636ZM224.371 97.572C223.737 97.572 223.233 97.4133 222.859 97.096C222.486 96.7787 222.295 96.3307 222.285 95.752H222.999C223.009 96.116 223.139 96.41 223.391 96.634C223.643 96.8487 223.97 96.956 224.371 96.956C224.773 96.956 225.099 96.8487 225.351 96.634C225.613 96.41 225.748 96.116 225.757 95.752H226.471C226.462 96.3307 226.266 96.7787 225.883 97.096C225.51 97.4133 225.006 97.572 224.371 97.572ZM239.018 102.192C240.017 102.425 240.516 103.027 240.516 103.998C240.516 104.642 240.278 105.137 239.802 105.482C239.326 105.827 238.617 106 237.674 106H234.328V98.636H237.576C238.416 98.636 239.074 98.7993 239.55 99.126C240.026 99.4527 240.264 99.9193 240.264 100.526C240.264 100.927 240.152 101.273 239.928 101.562C239.713 101.842 239.41 102.052 239.018 102.192ZM235.294 101.912H237.506C238.075 101.912 238.509 101.805 238.808 101.59C239.116 101.375 239.27 101.063 239.27 100.652C239.27 100.241 239.116 99.9333 238.808 99.728C238.509 99.5227 238.075 99.42 237.506 99.42H235.294V101.912ZM237.632 105.216C238.267 105.216 238.743 105.113 239.06 104.908C239.377 104.703 239.536 104.381 239.536 103.942C239.536 103.503 239.391 103.181 239.102 102.976C238.813 102.761 238.355 102.654 237.73 102.654H235.294V105.216H237.632ZM245.884 106.07C245.174 106.07 244.535 105.911 243.966 105.594C243.396 105.267 242.948 104.819 242.622 104.25C242.295 103.681 242.132 103.037 242.132 102.318C242.132 101.599 242.295 100.955 242.622 100.386C242.948 99.8167 243.396 99.3733 243.966 99.056C244.535 98.7387 245.174 98.58 245.884 98.58C246.593 98.58 247.232 98.7387 247.802 99.056C248.371 99.3733 248.814 99.8167 249.132 100.386C249.458 100.955 249.622 101.599 249.622 102.318C249.622 103.037 249.458 103.681 249.132 104.25C248.814 104.819 248.371 105.267 247.802 105.594C247.232 105.911 246.593 106.07 245.884 106.07ZM245.884 105.188C246.406 105.188 246.873 105.071 247.284 104.838C247.704 104.595 248.03 104.255 248.264 103.816C248.497 103.377 248.614 102.878 248.614 102.318C248.614 101.758 248.497 101.259 248.264 100.82C248.03 100.381 247.704 100.045 247.284 99.812C246.873 99.5693 246.406 99.448 245.884 99.448C245.361 99.448 244.89 99.5693 244.47 99.812C244.059 100.045 243.732 100.381 243.49 100.82C243.256 101.259 243.14 101.758 243.14 102.318C243.14 102.878 243.256 103.377 243.49 103.816C243.732 104.255 244.059 104.595 244.47 104.838C244.89 105.071 245.361 105.188 245.884 105.188ZM255.275 102.164C255.798 102.285 256.199 102.495 256.479 102.794C256.769 103.093 256.913 103.457 256.913 103.886C256.913 104.315 256.764 104.698 256.465 105.034C256.176 105.37 255.779 105.631 255.275 105.818C254.771 105.995 254.216 106.084 253.609 106.084C253.077 106.084 252.555 106.009 252.041 105.86C251.528 105.701 251.08 105.473 250.697 105.174L251.033 104.432C251.369 104.684 251.761 104.88 252.209 105.02C252.657 105.16 253.11 105.23 253.567 105.23C254.249 105.23 254.804 105.104 255.233 104.852C255.672 104.591 255.891 104.241 255.891 103.802C255.891 103.41 255.714 103.107 255.359 102.892C255.005 102.668 254.519 102.556 253.903 102.556H252.643V101.828H253.847C254.398 101.828 254.841 101.725 255.177 101.52C255.513 101.305 255.681 101.021 255.681 100.666C255.681 100.274 255.49 99.966 255.107 99.742C254.734 99.518 254.244 99.406 253.637 99.406C252.844 99.406 252.06 99.6067 251.285 100.008L251.005 99.238C251.883 98.7807 252.793 98.552 253.735 98.552C254.295 98.552 254.799 98.636 255.247 98.804C255.705 98.9627 256.059 99.1913 256.311 99.49C256.573 99.7887 256.703 100.134 256.703 100.526C256.703 100.899 256.573 101.231 256.311 101.52C256.059 101.809 255.714 102.024 255.275 102.164ZM263.86 102.192C264.859 102.425 265.358 103.027 265.358 103.998C265.358 104.642 265.12 105.137 264.644 105.482C264.168 105.827 263.459 106 262.516 106H259.17V98.636H262.418C263.258 98.636 263.916 98.7993 264.392 99.126C264.868 99.4527 265.106 99.9193 265.106 100.526C265.106 100.927 264.994 101.273 264.77 101.562C264.555 101.842 264.252 102.052 263.86 102.192ZM260.136 101.912H262.348C262.917 101.912 263.351 101.805 263.65 101.59C263.958 101.375 264.112 101.063 264.112 100.652C264.112 100.241 263.958 99.9333 263.65 99.728C263.351 99.5227 262.917 99.42 262.348 99.42H260.136V101.912ZM262.474 105.216C263.109 105.216 263.585 105.113 263.902 104.908C264.219 104.703 264.378 104.381 264.378 103.942C264.378 103.503 264.233 103.181 263.944 102.976C263.655 102.761 263.197 102.654 262.572 102.654H260.136V105.216H262.474ZM271.481 98.58C272.172 98.58 272.797 98.7387 273.357 99.056C273.917 99.364 274.356 99.8027 274.673 100.372C274.991 100.941 275.149 101.59 275.149 102.318C275.149 103.055 274.991 103.709 274.673 104.278C274.356 104.847 273.917 105.291 273.357 105.608C272.807 105.916 272.181 106.07 271.481 106.07C270.884 106.07 270.343 105.949 269.857 105.706C269.381 105.454 268.989 105.09 268.681 104.614V108.716H267.687V98.636H268.639V100.092C268.938 99.6067 269.33 99.2333 269.815 98.972C270.31 98.7107 270.865 98.58 271.481 98.58ZM271.411 105.188C271.925 105.188 272.391 105.071 272.811 104.838C273.231 104.595 273.558 104.255 273.791 103.816C274.034 103.377 274.155 102.878 274.155 102.318C274.155 101.758 274.034 101.263 273.791 100.834C273.558 100.395 273.231 100.055 272.811 99.812C272.391 99.5693 271.925 99.448 271.411 99.448C270.889 99.448 270.417 99.5693 269.997 99.812C269.587 100.055 269.26 100.395 269.017 100.834C268.784 101.263 268.667 101.758 268.667 102.318C268.667 102.878 268.784 103.377 269.017 103.816C269.26 104.255 269.587 104.595 269.997 104.838C270.417 105.071 270.889 105.188 271.411 105.188ZM279.778 98.58C280.739 98.58 281.477 98.8227 281.99 99.308C282.503 99.784 282.76 100.493 282.76 101.436V106H281.808V104.852C281.584 105.235 281.253 105.533 280.814 105.748C280.385 105.963 279.871 106.07 279.274 106.07C278.453 106.07 277.799 105.874 277.314 105.482C276.829 105.09 276.586 104.572 276.586 103.928C276.586 103.303 276.81 102.799 277.258 102.416C277.715 102.033 278.439 101.842 279.428 101.842H281.766V101.394C281.766 100.759 281.589 100.279 281.234 99.952C280.879 99.616 280.361 99.448 279.68 99.448C279.213 99.448 278.765 99.5273 278.336 99.686C277.907 99.8353 277.538 100.045 277.23 100.316L276.782 99.574C277.155 99.2567 277.603 99.014 278.126 98.846C278.649 98.6687 279.199 98.58 279.778 98.58ZM279.428 105.286C279.988 105.286 280.469 105.16 280.87 104.908C281.271 104.647 281.57 104.273 281.766 103.788V102.584H279.456C278.196 102.584 277.566 103.023 277.566 103.9C277.566 104.329 277.729 104.67 278.056 104.922C278.383 105.165 278.84 105.286 279.428 105.286ZM290.586 99.518H287.8V106H286.806V99.518H284.02V98.636H290.586V99.518ZM299.271 102.164C299.794 102.285 300.195 102.495 300.475 102.794C300.765 103.093 300.909 103.457 300.909 103.886C300.909 104.315 300.76 104.698 300.461 105.034C300.172 105.37 299.775 105.631 299.271 105.818C298.767 105.995 298.212 106.084 297.605 106.084C297.073 106.084 296.551 106.009 296.037 105.86C295.524 105.701 295.076 105.473 294.693 105.174L295.029 104.432C295.365 104.684 295.757 104.88 296.205 105.02C296.653 105.16 297.106 105.23 297.563 105.23C298.245 105.23 298.8 105.104 299.229 104.852C299.668 104.591 299.887 104.241 299.887 103.802C299.887 103.41 299.71 103.107 299.355 102.892C299.001 102.668 298.515 102.556 297.899 102.556H296.639V101.828H297.843C298.394 101.828 298.837 101.725 299.173 101.52C299.509 101.305 299.677 101.021 299.677 100.666C299.677 100.274 299.486 99.966 299.103 99.742C298.73 99.518 298.24 99.406 297.633 99.406C296.84 99.406 296.056 99.6067 295.281 100.008L295.001 99.238C295.879 98.7807 296.789 98.552 297.731 98.552C298.291 98.552 298.795 98.636 299.243 98.804C299.701 98.9627 300.055 99.1913 300.307 99.49C300.569 99.7887 300.699 100.134 300.699 100.526C300.699 100.899 300.569 101.231 300.307 101.52C300.055 101.809 299.71 102.024 299.271 102.164ZM305.7 98.58C306.661 98.58 307.399 98.8227 307.912 99.308C308.425 99.784 308.682 100.493 308.682 101.436V106H307.73V104.852C307.506 105.235 307.175 105.533 306.736 105.748C306.307 105.963 305.793 106.07 305.196 106.07C304.375 106.07 303.721 105.874 303.236 105.482C302.751 105.09 302.508 104.572 302.508 103.928C302.508 103.303 302.732 102.799 303.18 102.416C303.637 102.033 304.361 101.842 305.35 101.842H307.688V101.394C307.688 100.759 307.511 100.279 307.156 99.952C306.801 99.616 306.283 99.448 305.602 99.448C305.135 99.448 304.687 99.5273 304.258 99.686C303.829 99.8353 303.46 100.045 303.152 100.316L302.704 99.574C303.077 99.2567 303.525 99.014 304.048 98.846C304.571 98.6687 305.121 98.58 305.7 98.58ZM305.35 105.286C305.91 105.286 306.391 105.16 306.792 104.908C307.193 104.647 307.492 104.273 307.688 103.788V102.584H305.378C304.118 102.584 303.488 103.023 303.488 103.9C303.488 104.329 303.651 104.67 303.978 104.922C304.305 105.165 304.762 105.286 305.35 105.286ZM6.104 126.192C7.10267 126.425 7.602 127.027 7.602 127.998C7.602 128.642 7.364 129.137 6.888 129.482C6.412 129.827 5.70267 130 4.76 130H1.414V122.636H4.662C5.502 122.636 6.16 122.799 6.636 123.126C7.112 123.453 7.35 123.919 7.35 124.526C7.35 124.927 7.238 125.273 7.014 125.562C6.79933 125.842 6.496 126.052 6.104 126.192ZM2.38 125.912H4.592C5.16133 125.912 5.59533 125.805 5.894 125.59C6.202 125.375 6.356 125.063 6.356 124.652C6.356 124.241 6.202 123.933 5.894 123.728C5.59533 123.523 5.16133 123.42 4.592 123.42H2.38V125.912ZM4.718 129.216C5.35267 129.216 5.82867 129.113 6.146 128.908C6.46333 128.703 6.622 128.381 6.622 127.942C6.622 127.503 6.47733 127.181 6.188 126.976C5.89867 126.761 5.44133 126.654 4.816 126.654H2.38V129.216H4.718ZM13.0256 125.24C13.9496 125.249 14.6542 125.455 15.1396 125.856C15.6249 126.257 15.8676 126.836 15.8676 127.592C15.8676 128.376 15.6062 128.978 15.0836 129.398C14.5609 129.818 13.8142 130.023 12.8436 130.014L9.93158 130V122.636H10.9256V125.212L13.0256 125.24ZM17.0996 122.636H18.0936V130H17.0996V122.636ZM12.7876 129.258C13.4689 129.267 13.9822 129.132 14.3276 128.852C14.6822 128.563 14.8596 128.143 14.8596 127.592C14.8596 127.051 14.6869 126.649 14.3416 126.388C13.9962 126.127 13.4782 125.991 12.7876 125.982L10.9256 125.954V129.23L12.7876 129.258ZM26.4818 122.636V130H25.4878V126.934C24.6384 127.307 23.8031 127.494 22.9818 127.494C22.0951 127.494 21.4044 127.293 20.9098 126.892C20.4151 126.481 20.1678 125.87 20.1678 125.058V122.636H21.1618V125.002C21.1618 125.553 21.3391 125.973 21.6938 126.262C22.0484 126.542 22.5384 126.682 23.1638 126.682C23.8544 126.682 24.6291 126.5 25.4878 126.136V122.636H26.4818ZM35.7446 126.626H29.5846C29.6406 127.391 29.9346 128.012 30.4666 128.488C30.9986 128.955 31.6706 129.188 32.4826 129.188C32.94 129.188 33.36 129.109 33.7426 128.95C34.1253 128.782 34.4566 128.539 34.7366 128.222L35.2966 128.866C34.97 129.258 34.5593 129.557 34.0646 129.762C33.5793 129.967 33.0426 130.07 32.4546 130.07C31.6986 130.07 31.0266 129.911 30.4386 129.594C29.86 129.267 29.4073 128.819 29.0806 128.25C28.754 127.681 28.5906 127.037 28.5906 126.318C28.5906 125.599 28.7446 124.955 29.0526 124.386C29.37 123.817 29.7993 123.373 30.3406 123.056C30.8913 122.739 31.5073 122.58 32.1886 122.58C32.87 122.58 33.4813 122.739 34.0226 123.056C34.564 123.373 34.9886 123.817 35.2966 124.386C35.6046 124.946 35.7586 125.59 35.7586 126.318L35.7446 126.626ZM32.1886 123.434C31.4793 123.434 30.882 123.663 30.3966 124.12C29.9206 124.568 29.65 125.156 29.5846 125.884H34.8066C34.7413 125.156 34.466 124.568 33.9806 124.12C33.5046 123.663 32.9073 123.434 32.1886 123.434ZM42.8108 123.518H40.0248V130H39.0308V123.518H36.2448V122.636H42.8108V123.518ZM46.9442 130.07C46.2349 130.07 45.5955 129.911 45.0262 129.594C44.4569 129.267 44.0089 128.819 43.6822 128.25C43.3555 127.681 43.1922 127.037 43.1922 126.318C43.1922 125.599 43.3555 124.955 43.6822 124.386C44.0089 123.817 44.4569 123.373 45.0262 123.056C45.5955 122.739 46.2349 122.58 46.9442 122.58C47.6535 122.58 48.2929 122.739 48.8622 123.056C49.4315 123.373 49.8749 123.817 50.1922 124.386C50.5189 124.955 50.6822 125.599 50.6822 126.318C50.6822 127.037 50.5189 127.681 50.1922 128.25C49.8749 128.819 49.4315 129.267 48.8622 129.594C48.2929 129.911 47.6535 130.07 46.9442 130.07ZM46.9442 129.188C47.4669 129.188 47.9335 129.071 48.3442 128.838C48.7642 128.595 49.0909 128.255 49.3242 127.816C49.5575 127.377 49.6742 126.878 49.6742 126.318C49.6742 125.758 49.5575 125.259 49.3242 124.82C49.0909 124.381 48.7642 124.045 48.3442 123.812C47.9335 123.569 47.4669 123.448 46.9442 123.448C46.4215 123.448 45.9502 123.569 45.5302 123.812C45.1195 124.045 44.7929 124.381 44.5502 124.82C44.3169 125.259 44.2002 125.758 44.2002 126.318C44.2002 126.878 44.3169 127.377 44.5502 127.816C44.7929 128.255 45.1195 128.595 45.5302 128.838C45.9502 129.071 46.4215 129.188 46.9442 129.188ZM61.0386 122.636V130H60.1286V124.176L57.1466 129.104H56.6986L53.7166 124.162V130H52.8066V122.636H53.8146L56.9366 127.942L60.1146 122.636H61.0386ZM70.6112 130.07C69.8832 130.07 69.2299 129.911 68.6512 129.594C68.0819 129.277 67.6339 128.833 67.3072 128.264C66.9805 127.685 66.8172 127.037 66.8172 126.318C66.8172 125.599 66.9805 124.955 67.3072 124.386C67.6339 123.817 68.0819 123.373 68.6512 123.056C69.2299 122.739 69.8832 122.58 70.6112 122.58C71.2459 122.58 71.8105 122.706 72.3052 122.958C72.8092 123.201 73.2059 123.56 73.4952 124.036L72.7532 124.54C72.5105 124.176 72.2025 123.905 71.8292 123.728C71.4559 123.541 71.0499 123.448 70.6112 123.448C70.0792 123.448 69.5985 123.569 69.1692 123.812C68.7492 124.045 68.4179 124.381 68.1752 124.82C67.9419 125.259 67.8252 125.758 67.8252 126.318C67.8252 126.887 67.9419 127.391 68.1752 127.83C68.4179 128.259 68.7492 128.595 69.1692 128.838C69.5985 129.071 70.0792 129.188 70.6112 129.188C71.0499 129.188 71.4559 129.099 71.8292 128.922C72.2025 128.745 72.5105 128.474 72.7532 128.11L73.4952 128.614C73.2059 129.09 72.8092 129.454 72.3052 129.706C71.8012 129.949 71.2365 130.07 70.6112 130.07ZM78.9625 122.818C79.6438 122.818 80.2505 122.972 80.7825 123.28C81.3238 123.579 81.7438 124.003 82.0425 124.554C82.3412 125.095 82.4905 125.716 82.4905 126.416C82.4905 127.135 82.3318 127.774 82.0145 128.334C81.7065 128.885 81.2725 129.314 80.7125 129.622C80.1525 129.93 79.5085 130.084 78.7805 130.084C77.5578 130.084 76.6105 129.655 75.9385 128.796C75.2665 127.937 74.9305 126.752 74.9305 125.24C74.9305 123.663 75.2292 122.454 75.8265 121.614C76.4332 120.774 77.3758 120.205 78.6545 119.906L81.9585 119.15L82.1265 120.06L79.0185 120.774C77.9638 121.007 77.1892 121.423 76.6945 122.02C76.1998 122.608 75.9292 123.481 75.8825 124.638C76.1812 124.069 76.5965 123.625 77.1285 123.308C77.6605 122.981 78.2718 122.818 78.9625 122.818ZM78.8085 129.258C79.3218 129.258 79.7792 129.141 80.1805 128.908C80.5912 128.665 80.9085 128.329 81.1325 127.9C81.3658 127.471 81.4825 126.985 81.4825 126.444C81.4825 125.903 81.3705 125.427 81.1465 125.016C80.9225 124.605 80.6052 124.288 80.1945 124.064C79.7932 123.831 79.3312 123.714 78.8085 123.714C78.2858 123.714 77.8192 123.831 77.4085 124.064C77.0072 124.288 76.6898 124.605 76.4565 125.016C76.2325 125.427 76.1205 125.903 76.1205 126.444C76.1205 126.985 76.2325 127.471 76.4565 127.9C76.6898 128.329 77.0118 128.665 77.4225 128.908C77.8332 129.141 78.2952 129.258 78.8085 129.258ZM87.659 130.07C86.9497 130.07 86.3104 129.911 85.741 129.594C85.1717 129.267 84.7237 128.819 84.397 128.25C84.0704 127.681 83.907 127.037 83.907 126.318C83.907 125.599 84.0704 124.955 84.397 124.386C84.7237 123.817 85.1717 123.373 85.741 123.056C86.3104 122.739 86.9497 122.58 87.659 122.58C88.3684 122.58 89.0077 122.739 89.577 123.056C90.1464 123.373 90.5897 123.817 90.907 124.386C91.2337 124.955 91.397 125.599 91.397 126.318C91.397 127.037 91.2337 127.681 90.907 128.25C90.5897 128.819 90.1464 129.267 89.577 129.594C89.0077 129.911 88.3684 130.07 87.659 130.07ZM87.659 129.188C88.1817 129.188 88.6484 129.071 89.059 128.838C89.479 128.595 89.8057 128.255 90.039 127.816C90.2724 127.377 90.389 126.878 90.389 126.318C90.389 125.758 90.2724 125.259 90.039 124.82C89.8057 124.381 89.479 124.045 89.059 123.812C88.6484 123.569 88.1817 123.448 87.659 123.448C87.1364 123.448 86.665 123.569 86.245 123.812C85.8344 124.045 85.5077 124.381 85.265 124.82C85.0317 125.259 84.915 125.758 84.915 126.318C84.915 126.878 85.0317 127.377 85.265 127.816C85.5077 128.255 85.8344 128.595 86.245 128.838C86.665 129.071 87.1364 129.188 87.659 129.188ZM97.3154 122.58C98.0061 122.58 98.6314 122.739 99.1914 123.056C99.7514 123.364 100.19 123.803 100.507 124.372C100.825 124.941 100.983 125.59 100.983 126.318C100.983 127.055 100.825 127.709 100.507 128.278C100.19 128.847 99.7514 129.291 99.1914 129.608C98.6408 129.916 98.0154 130.07 97.3154 130.07C96.7181 130.07 96.1768 129.949 95.6914 129.706C95.2154 129.454 94.8234 129.09 94.5154 128.614V132.716H93.5214V122.636H94.4734V124.092C94.7721 123.607 95.1641 123.233 95.6494 122.972C96.1441 122.711 96.6994 122.58 97.3154 122.58ZM97.2454 129.188C97.7588 129.188 98.2254 129.071 98.6454 128.838C99.0654 128.595 99.3921 128.255 99.6254 127.816C99.8681 127.377 99.9894 126.878 99.9894 126.318C99.9894 125.758 99.8681 125.263 99.6254 124.834C99.3921 124.395 99.0654 124.055 98.6454 123.812C98.2254 123.569 97.7588 123.448 97.2454 123.448C96.7228 123.448 96.2514 123.569 95.8314 123.812C95.4208 124.055 95.0941 124.395 94.8514 124.834C94.6181 125.263 94.5014 125.758 94.5014 126.318C94.5014 126.878 94.6181 127.377 94.8514 127.816C95.0941 128.255 95.4208 128.595 95.8314 128.838C96.2514 129.071 96.7228 129.188 97.2454 129.188ZM105.612 122.58C106.573 122.58 107.311 122.823 107.824 123.308C108.337 123.784 108.594 124.493 108.594 125.436V130H107.642V128.852C107.418 129.235 107.087 129.533 106.648 129.748C106.219 129.963 105.705 130.07 105.108 130.07C104.287 130.07 103.633 129.874 103.148 129.482C102.663 129.09 102.42 128.572 102.42 127.928C102.42 127.303 102.644 126.799 103.092 126.416C103.549 126.033 104.273 125.842 105.262 125.842H107.6V125.394C107.6 124.759 107.423 124.279 107.068 123.952C106.713 123.616 106.195 123.448 105.514 123.448C105.047 123.448 104.599 123.527 104.17 123.686C103.741 123.835 103.372 124.045 103.064 124.316L102.616 123.574C102.989 123.257 103.437 123.014 103.96 122.846C104.483 122.669 105.033 122.58 105.612 122.58ZM105.262 129.286C105.822 129.286 106.303 129.16 106.704 128.908C107.105 128.647 107.404 128.273 107.6 127.788V126.584H105.29C104.03 126.584 103.4 127.023 103.4 127.9C103.4 128.329 103.563 128.67 103.89 128.922C104.217 129.165 104.674 129.286 105.262 129.286ZM118.488 126.164C119.011 126.285 119.412 126.495 119.692 126.794C119.982 127.093 120.126 127.457 120.126 127.886C120.126 128.315 119.977 128.698 119.678 129.034C119.389 129.37 118.992 129.631 118.488 129.818C117.984 129.995 117.429 130.084 116.822 130.084C116.29 130.084 115.768 130.009 115.254 129.86C114.741 129.701 114.293 129.473 113.91 129.174L114.246 128.432C114.582 128.684 114.974 128.88 115.422 129.02C115.87 129.16 116.323 129.23 116.78 129.23C117.462 129.23 118.017 129.104 118.446 128.852C118.885 128.591 119.104 128.241 119.104 127.802C119.104 127.41 118.927 127.107 118.572 126.892C118.218 126.668 117.732 126.556 117.116 126.556H115.856V125.828H117.06C117.611 125.828 118.054 125.725 118.39 125.52C118.726 125.305 118.894 125.021 118.894 124.666C118.894 124.274 118.703 123.966 118.32 123.742C117.947 123.518 117.457 123.406 116.85 123.406C116.057 123.406 115.273 123.607 114.498 124.008L114.218 123.238C115.096 122.781 116.006 122.552 116.948 122.552C117.508 122.552 118.012 122.636 118.46 122.804C118.918 122.963 119.272 123.191 119.524 123.49C119.786 123.789 119.916 124.134 119.916 124.526C119.916 124.899 119.786 125.231 119.524 125.52C119.272 125.809 118.927 126.024 118.488 126.164ZM124.917 122.58C125.878 122.58 126.615 122.823 127.129 123.308C127.642 123.784 127.899 124.493 127.899 125.436V130H126.947V128.852C126.723 129.235 126.391 129.533 125.953 129.748C125.523 129.963 125.01 130.07 124.413 130.07C123.591 130.07 122.938 129.874 122.453 129.482C121.967 129.09 121.725 128.572 121.725 127.928C121.725 127.303 121.949 126.799 122.397 126.416C122.854 126.033 123.577 125.842 124.567 125.842H126.905V125.394C126.905 124.759 126.727 124.279 126.373 123.952C126.018 123.616 125.5 123.448 124.819 123.448C124.352 123.448 123.904 123.527 123.475 123.686C123.045 123.835 122.677 124.045 122.369 124.316L121.921 123.574C122.294 123.257 122.742 123.014 123.265 122.846C123.787 122.669 124.338 122.58 124.917 122.58ZM124.567 129.286C125.127 129.286 125.607 129.16 126.009 128.908C126.41 128.647 126.709 128.273 126.905 127.788V126.584H124.595C123.335 126.584 122.705 127.023 122.705 127.9C122.705 128.329 122.868 128.67 123.195 128.922C123.521 129.165 123.979 129.286 124.567 129.286ZM140.467 122.636L136.785 130.882C136.486 131.573 136.141 132.063 135.749 132.352C135.357 132.641 134.886 132.786 134.335 132.786C133.98 132.786 133.649 132.73 133.341 132.618C133.033 132.506 132.767 132.338 132.543 132.114L133.005 131.372C133.378 131.745 133.826 131.932 134.349 131.932C134.685 131.932 134.97 131.839 135.203 131.652C135.446 131.465 135.67 131.148 135.875 130.7L136.197 129.986L132.907 122.636H133.943L136.715 128.894L139.487 122.636H140.467ZM144.89 130.07C144.162 130.07 143.509 129.911 142.93 129.594C142.361 129.277 141.913 128.833 141.586 128.264C141.26 127.685 141.096 127.037 141.096 126.318C141.096 125.599 141.26 124.955 141.586 124.386C141.913 123.817 142.361 123.373 142.93 123.056C143.509 122.739 144.162 122.58 144.89 122.58C145.525 122.58 146.09 122.706 146.584 122.958C147.088 123.201 147.485 123.56 147.774 124.036L147.032 124.54C146.79 124.176 146.482 123.905 146.108 123.728C145.735 123.541 145.329 123.448 144.89 123.448C144.358 123.448 143.878 123.569 143.448 123.812C143.028 124.045 142.697 124.381 142.454 124.82C142.221 125.259 142.104 125.758 142.104 126.318C142.104 126.887 142.221 127.391 142.454 127.83C142.697 128.259 143.028 128.595 143.448 128.838C143.878 129.071 144.358 129.188 144.89 129.188C145.329 129.188 145.735 129.099 146.108 128.922C146.482 128.745 146.79 128.474 147.032 128.11L147.774 128.614C147.485 129.09 147.088 129.454 146.584 129.706C146.08 129.949 145.516 130.07 144.89 130.07ZM155.473 122.636V130H154.479V123.518H150.951L150.853 125.338C150.778 126.869 150.601 128.045 150.321 128.866C150.041 129.687 149.542 130.098 148.823 130.098C148.627 130.098 148.389 130.061 148.109 129.986L148.179 129.132C148.347 129.169 148.464 129.188 148.529 129.188C148.912 129.188 149.201 129.011 149.397 128.656C149.593 128.301 149.724 127.863 149.789 127.34C149.854 126.817 149.91 126.127 149.957 125.268L150.083 122.636H155.473ZM164.557 122.636L160.875 130.882C160.576 131.573 160.231 132.063 159.839 132.352C159.447 132.641 158.975 132.786 158.425 132.786C158.07 132.786 157.739 132.73 157.431 132.618C157.123 132.506 156.857 132.338 156.633 132.114L157.095 131.372C157.468 131.745 157.916 131.932 158.439 131.932C158.775 131.932 159.059 131.839 159.293 131.652C159.535 131.465 159.759 131.148 159.965 130.7L160.287 129.986L156.997 122.636H158.033L160.805 128.894L163.577 122.636H164.557ZM171.313 123.518H167.099V130H166.105V122.636H171.313V123.518ZM172.75 122.636H173.744V128.488L178.658 122.636H179.54V130H178.546V124.148L173.646 130H172.75V122.636ZM182.459 130.07C182.253 130.07 182.076 129.995 181.927 129.846C181.787 129.697 181.717 129.515 181.717 129.3C181.717 129.085 181.787 128.908 181.927 128.768C182.076 128.619 182.253 128.544 182.459 128.544C182.664 128.544 182.841 128.619 182.991 128.768C183.14 128.908 183.215 129.085 183.215 129.3C183.215 129.515 183.14 129.697 182.991 129.846C182.841 129.995 182.664 130.07 182.459 130.07Z" fill="#1F2041" fill-opacity="0.75"/>
<path d="M14.0181 12.1997C14.0181 14.4448 13.4614 16.1704 12.3481 17.3765C11.2349 18.5825 9.63916 19.1855 7.56104 19.1855C5.48291 19.1855 3.88721 18.5825 2.77393 17.3765C1.66064 16.1704 1.104 14.4386 1.104 12.1812C1.104 9.92367 1.66064 8.20117 2.77393 7.01367C3.89339 5.81999 5.49528 5.22314 7.57959 5.22314C9.6639 5.22314 11.2565 5.82308 12.3574 7.02295C13.4645 8.22282 14.0181 9.9484 14.0181 12.1997ZM4.11914 12.1997C4.11914 13.715 4.40674 14.8561 4.98193 15.623C5.55713 16.39 6.41683 16.7734 7.56104 16.7734C9.85563 16.7734 11.0029 15.2489 11.0029 12.1997C11.0029 9.14437 9.86182 7.6167 7.57959 7.6167C6.43538 7.6167 5.57259 8.00326 4.99121 8.77637C4.40983 9.54329 4.11914 10.6844 4.11914 12.1997ZM25.188 8.62793V10.7524H21.7925V19H18.9629V10.7524H15.5581V8.62793H25.188ZM40.1987 19H37.5547V10.8267L37.4062 11.4019C37.0723 12.7069 36.7723 13.6934 36.5063 14.3613L34.6694 19H32.6562L30.7915 14.3242C30.5256 13.6439 30.241 12.6883 29.938 11.4575L29.7617 10.8267V19H27.127V8.62793H31.0234L32.8047 13.0532C32.9902 13.5295 33.1603 14.0768 33.3149 14.6953C33.4757 15.3138 33.584 15.8426 33.6396 16.2817C33.8438 15.354 34.0015 14.6891 34.1128 14.2871C34.2303 13.8789 34.3571 13.5047 34.4932 13.1646C34.6292 12.8244 35.2446 11.3122 36.3394 8.62793H40.1987V19ZM47.4722 10.4463C46.8722 10.4463 46.4022 10.638 46.062 11.0215C45.7218 11.3988 45.527 11.9368 45.4775 12.6357H49.4482C49.4359 11.9368 49.2534 11.3988 48.9009 11.0215C48.5483 10.638 48.0721 10.4463 47.4722 10.4463ZM47.8711 19.1855C46.2012 19.1855 44.8962 18.7248 43.9561 17.8032C43.016 16.8817 42.5459 15.5767 42.5459 13.8882C42.5459 12.1502 42.9788 10.8081 43.8447 9.86182C44.7168 8.90934 45.9198 8.43311 47.4536 8.43311C48.9194 8.43311 50.0605 8.85059 50.877 9.68555C51.6934 10.5205 52.1016 11.674 52.1016 13.146V14.519H45.4126C45.4435 15.3231 45.6816 15.9508 46.127 16.4023C46.5723 16.8538 47.1969 17.0796 48.001 17.0796C48.6257 17.0796 49.2163 17.0146 49.7729 16.8848C50.3296 16.7549 50.911 16.5477 51.5171 16.2632V18.4526C51.0223 18.7 50.4935 18.8825 49.9307 19C49.3678 19.1237 48.6813 19.1855 47.8711 19.1855ZM57.2319 8.62793V12.6172H61.1841V8.62793H64.0137V19H61.1841V14.7231H57.2319V19H54.4023V8.62793H57.2319ZM73.5693 19L73.022 17.5898H72.9478C72.4715 18.1898 71.9798 18.6073 71.4727 18.8423C70.9717 19.0711 70.3161 19.1855 69.5059 19.1855C68.5101 19.1855 67.7246 18.901 67.1494 18.332C66.5804 17.763 66.2959 16.9528 66.2959 15.9014C66.2959 14.8005 66.6794 13.9902 67.4463 13.4707C68.2194 12.945 69.3822 12.6543 70.9346 12.5986L72.7344 12.543V12.0884C72.7344 11.0369 72.1963 10.5112 71.1201 10.5112C70.2913 10.5112 69.3172 10.7617 68.1978 11.2627L67.2607 9.35156C68.4544 8.72689 69.778 8.41455 71.2314 8.41455C72.623 8.41455 73.6899 8.71761 74.4321 9.32373C75.1743 9.92985 75.5454 10.8514 75.5454 12.0884V19H73.5693ZM72.7344 14.1943L71.6396 14.2314C70.8171 14.2562 70.2048 14.4046 69.8027 14.6768C69.4007 14.9489 69.1997 15.3633 69.1997 15.9199C69.1997 16.7178 69.6574 17.1167 70.5728 17.1167C71.2284 17.1167 71.751 16.9281 72.1406 16.5508C72.5365 16.1735 72.7344 15.6725 72.7344 15.0479V14.1943Z" fill="#1F2041"/>
</svg>
