<svg width="291" height="273" viewBox="0 0 291 273" fill="none" xmlns="http://www.w3.org/2000/svg">
<rect y="112" width="280" height="1" fill="#1F2041" fill-opacity="0.1"/>
<path d="M63.012 57.052H61.444V61H59.19V51.2H61.444V55.162H63.068L65.644 51.2H68.038L64.832 55.932L68.136 61H65.56L63.012 57.052ZM72.4491 61.112C71.6558 61.112 70.9418 60.9487 70.3071 60.622C69.6818 60.286 69.1918 59.824 68.8371 59.236C68.4824 58.648 68.3051 57.9807 68.3051 57.234C68.3051 56.4873 68.4824 55.82 68.8371 55.232C69.1918 54.644 69.6818 54.1867 70.3071 53.86C70.9418 53.524 71.6558 53.356 72.4491 53.356C73.2424 53.356 73.9518 53.524 74.5771 53.86C75.2024 54.1867 75.6924 54.644 76.0471 55.232C76.4018 55.82 76.5791 56.4873 76.5791 57.234C76.5791 57.9807 76.4018 58.648 76.0471 59.236C75.6924 59.824 75.2024 60.286 74.5771 60.622C73.9518 60.9487 73.2424 61.112 72.4491 61.112ZM72.4491 59.32C73.0091 59.32 73.4664 59.1333 73.8211 58.76C74.1851 58.3773 74.3671 57.8687 74.3671 57.234C74.3671 56.5993 74.1851 56.0953 73.8211 55.722C73.4664 55.3393 73.0091 55.148 72.4491 55.148C71.8891 55.148 71.4271 55.3393 71.0631 55.722C70.6991 56.0953 70.5171 56.5993 70.5171 57.234C70.5171 57.8687 70.6991 58.3773 71.0631 58.76C71.4271 59.1333 71.8891 59.32 72.4491 59.32ZM85.4313 61V56.492L83.1773 60.272H82.2533L80.0553 56.478V61H78.0813V53.468H80.3633L82.7713 57.822L85.3333 53.468H87.3773L87.4053 61H85.4313ZM99.8993 57.206C99.8993 58.3727 99.5073 59.2967 98.7233 59.978C97.9486 60.65 96.8379 61.0373 95.3913 61.14V63.716H93.3893V61.14C91.9426 61.0373 90.8273 60.6547 90.0433 59.992C89.2686 59.32 88.8813 58.3913 88.8813 57.206C88.8813 56.0393 89.2639 55.134 90.0293 54.49C90.8039 53.846 91.9239 53.4727 93.3893 53.37V50.612H95.3913V53.37C96.8379 53.4727 97.9486 53.8507 98.7233 54.504C99.5073 55.1573 99.8993 56.058 99.8993 57.206ZM90.9953 57.206C90.9953 57.878 91.1866 58.396 91.5693 58.76C91.9519 59.124 92.5586 59.3527 93.3893 59.446V55.064C92.5586 55.148 91.9519 55.3673 91.5693 55.722C91.1866 56.0673 90.9953 56.562 90.9953 57.206ZM95.3913 59.446C96.2219 59.3527 96.8286 59.124 97.2113 58.76C97.6033 58.396 97.7993 57.878 97.7993 57.206C97.7993 56.562 97.6033 56.0673 97.2113 55.722C96.8286 55.3673 96.2219 55.148 95.3913 55.064V59.446ZM104.906 61.112C104.113 61.112 103.399 60.9487 102.764 60.622C102.139 60.286 101.649 59.824 101.294 59.236C100.939 58.648 100.762 57.9807 100.762 57.234C100.762 56.4873 100.939 55.82 101.294 55.232C101.649 54.644 102.139 54.1867 102.764 53.86C103.399 53.524 104.113 53.356 104.906 53.356C105.699 53.356 106.409 53.524 107.034 53.86C107.659 54.1867 108.149 54.644 108.504 55.232C108.859 55.82 109.036 56.4873 109.036 57.234C109.036 57.9807 108.859 58.648 108.504 59.236C108.149 59.824 107.659 60.286 107.034 60.622C106.409 60.9487 105.699 61.112 104.906 61.112ZM104.906 59.32C105.466 59.32 105.923 59.1333 106.278 58.76C106.642 58.3773 106.824 57.8687 106.824 57.234C106.824 56.5993 106.642 56.0953 106.278 55.722C105.923 55.3393 105.466 55.148 104.906 55.148C104.346 55.148 103.884 55.3393 103.52 55.722C103.156 56.0953 102.974 56.5993 102.974 57.234C102.974 57.8687 103.156 58.3773 103.52 58.76C103.884 59.1333 104.346 59.32 104.906 59.32ZM114.976 53.356C115.676 53.356 116.311 53.5193 116.88 53.846C117.459 54.1633 117.912 54.616 118.238 55.204C118.565 55.7827 118.728 56.4593 118.728 57.234C118.728 58.0087 118.565 58.69 118.238 59.278C117.912 59.8567 117.459 60.3093 116.88 60.636C116.311 60.9533 115.676 61.112 114.976 61.112C114.015 61.112 113.259 60.8087 112.708 60.202V63.716H110.524V53.468H112.61V54.336C113.152 53.6827 113.94 53.356 114.976 53.356ZM114.598 59.32C115.158 59.32 115.616 59.1333 115.97 58.76C116.334 58.3773 116.516 57.8687 116.516 57.234C116.516 56.5993 116.334 56.0953 115.97 55.722C115.616 55.3393 115.158 55.148 114.598 55.148C114.038 55.148 113.576 55.3393 113.212 55.722C112.858 56.0953 112.68 56.5993 112.68 57.234C112.68 57.8687 112.858 58.3773 113.212 58.76C113.576 59.1333 114.038 59.32 114.598 59.32ZM126.314 55.26H123.766V61H121.596V55.26H119.048V53.468H126.314V55.26ZM71.664 75.2V85H59.652V75.2H60.674V84.104H65.154V75.2H66.176V84.104H70.642V75.2H71.664ZM80.9845 77.636L77.3025 85.882C77.0038 86.5727 76.6585 87.0627 76.2665 87.352C75.8745 87.6413 75.4032 87.786 74.8525 87.786C74.4978 87.786 74.1665 87.73 73.8585 87.618C73.5505 87.506 73.2845 87.338 73.0605 87.114L73.5225 86.372C73.8958 86.7453 74.3438 86.932 74.8665 86.932C75.2025 86.932 75.4872 86.8387 75.7205 86.652C75.9632 86.4653 76.1872 86.148 76.3925 85.7L76.7145 84.986L73.4245 77.636H74.4605L77.2325 83.894L80.0045 77.636H80.9845ZM90.7651 77.636V85H89.8551V79.176L86.8731 84.104H86.4251L83.4431 79.162V85H82.5331V77.636H83.5411L86.6631 82.942L89.8411 77.636H90.7651ZM96.6317 85.07C95.9224 85.07 95.283 84.9113 94.7137 84.594C94.1444 84.2673 93.6964 83.8193 93.3697 83.25C93.043 82.6807 92.8797 82.0367 92.8797 81.318C92.8797 80.5993 93.043 79.9553 93.3697 79.386C93.6964 78.8167 94.1444 78.3733 94.7137 78.056C95.283 77.7387 95.9224 77.58 96.6317 77.58C97.341 77.58 97.9804 77.7387 98.5497 78.056C99.119 78.3733 99.5624 78.8167 99.8797 79.386C100.206 79.9553 100.37 80.5993 100.37 81.318C100.37 82.0367 100.206 82.6807 99.8797 83.25C99.5624 83.8193 99.119 84.2673 98.5497 84.594C97.9804 84.9113 97.341 85.07 96.6317 85.07ZM96.6317 84.188C97.1544 84.188 97.621 84.0713 98.0317 83.838C98.4517 83.5953 98.7784 83.2547 99.0117 82.816C99.245 82.3773 99.3617 81.878 99.3617 81.318C99.3617 80.758 99.245 80.2587 99.0117 79.82C98.7784 79.3813 98.4517 79.0453 98.0317 78.812C97.621 78.5693 97.1544 78.448 96.6317 78.448C96.109 78.448 95.6377 78.5693 95.2177 78.812C94.807 79.0453 94.4804 79.3813 94.2377 79.82C94.0044 80.2587 93.8877 80.758 93.8877 81.318C93.8877 81.878 94.0044 82.3773 94.2377 82.816C94.4804 83.2547 94.807 83.5953 95.2177 83.838C95.6377 84.0713 96.109 84.188 96.6317 84.188ZM109.102 77.636V85H108.108V78.518H103.488V85H102.494V77.636H109.102ZM114.966 85.07C114.256 85.07 113.617 84.9113 113.048 84.594C112.478 84.2673 112.03 83.8193 111.704 83.25C111.377 82.6807 111.214 82.0367 111.214 81.318C111.214 80.5993 111.377 79.9553 111.704 79.386C112.03 78.8167 112.478 78.3733 113.048 78.056C113.617 77.7387 114.256 77.58 114.966 77.58C115.675 77.58 116.314 77.7387 116.884 78.056C117.453 78.3733 117.896 78.8167 118.214 79.386C118.54 79.9553 118.704 80.5993 118.704 81.318C118.704 82.0367 118.54 82.6807 118.214 83.25C117.896 83.8193 117.453 84.2673 116.884 84.594C116.314 84.9113 115.675 85.07 114.966 85.07ZM114.966 84.188C115.488 84.188 115.955 84.0713 116.366 83.838C116.786 83.5953 117.112 83.2547 117.346 82.816C117.579 82.3773 117.696 81.878 117.696 81.318C117.696 80.758 117.579 80.2587 117.346 79.82C117.112 79.3813 116.786 79.0453 116.366 78.812C115.955 78.5693 115.488 78.448 114.966 78.448C114.443 78.448 113.972 78.5693 113.552 78.812C113.141 79.0453 112.814 79.3813 112.572 79.82C112.338 80.2587 112.222 80.758 112.222 81.318C112.222 81.878 112.338 82.3773 112.572 82.816C112.814 83.2547 113.141 83.5953 113.552 83.838C113.972 84.0713 114.443 84.188 114.966 84.188ZM126.036 78.518H121.822V85H120.828V77.636H126.036V78.518ZM133.041 77.636V85H132.047V78.518H128.519L128.421 80.338C128.347 81.8687 128.169 83.0447 127.889 83.866C127.609 84.6873 127.11 85.098 126.391 85.098C126.195 85.098 125.957 85.0607 125.677 84.986L125.747 84.132C125.915 84.1693 126.032 84.188 126.097 84.188C126.48 84.188 126.769 84.0107 126.965 83.656C127.161 83.3013 127.292 82.8627 127.357 82.34C127.423 81.8173 127.479 81.1267 127.525 80.268L127.651 77.636H133.041ZM138.905 85.07C138.196 85.07 137.556 84.9113 136.987 84.594C136.418 84.2673 135.97 83.8193 135.643 83.25C135.316 82.6807 135.153 82.0367 135.153 81.318C135.153 80.5993 135.316 79.9553 135.643 79.386C135.97 78.8167 136.418 78.3733 136.987 78.056C137.556 77.7387 138.196 77.58 138.905 77.58C139.614 77.58 140.254 77.7387 140.823 78.056C141.392 78.3733 141.836 78.8167 142.153 79.386C142.48 79.9553 142.643 80.5993 142.643 81.318C142.643 82.0367 142.48 82.6807 142.153 83.25C141.836 83.8193 141.392 84.2673 140.823 84.594C140.254 84.9113 139.614 85.07 138.905 85.07ZM138.905 84.188C139.428 84.188 139.894 84.0713 140.305 83.838C140.725 83.5953 141.052 83.2547 141.285 82.816C141.518 82.3773 141.635 81.878 141.635 81.318C141.635 80.758 141.518 80.2587 141.285 79.82C141.052 79.3813 140.725 79.0453 140.305 78.812C139.894 78.5693 139.428 78.448 138.905 78.448C138.382 78.448 137.911 78.5693 137.491 78.812C137.08 79.0453 136.754 79.3813 136.511 79.82C136.278 80.2587 136.161 80.758 136.161 81.318C136.161 81.878 136.278 82.3773 136.511 82.816C136.754 83.2547 137.08 83.5953 137.491 83.838C137.911 84.0713 138.382 84.188 138.905 84.188ZM154.932 77.636V85H144.768V77.636H145.762V84.132H149.374V77.636H150.368V84.132H153.938V77.636H154.932ZM156.066 84.132V86.61H155.128V85H153.882V84.132H156.066ZM160.303 77.58C161.265 77.58 162.002 77.8227 162.515 78.308C163.029 78.784 163.285 79.4933 163.285 80.436V85H162.333V83.852C162.109 84.2347 161.778 84.5333 161.339 84.748C160.91 84.9627 160.397 85.07 159.799 85.07C158.978 85.07 158.325 84.874 157.839 84.482C157.354 84.09 157.111 83.572 157.111 82.928C157.111 82.3027 157.335 81.7987 157.783 81.416C158.241 81.0333 158.964 80.842 159.953 80.842H162.291V80.394C162.291 79.7593 162.114 79.2787 161.759 78.952C161.405 78.616 160.887 78.448 160.205 78.448C159.739 78.448 159.291 78.5273 158.861 78.686C158.432 78.8353 158.063 79.0453 157.755 79.316L157.307 78.574C157.681 78.2567 158.129 78.014 158.651 77.846C159.174 77.6687 159.725 77.58 160.303 77.58ZM159.953 84.286C160.513 84.286 160.994 84.16 161.395 83.908C161.797 83.6467 162.095 83.2733 162.291 82.788V81.584H159.981C158.721 81.584 158.091 82.0227 158.091 82.9C158.091 83.3293 158.255 83.67 158.581 83.922C158.908 84.1647 159.365 84.286 159.953 84.286ZM172.26 77.58C172.95 77.58 173.571 77.7387 174.122 78.056C174.682 78.3733 175.12 78.8167 175.438 79.386C175.755 79.9553 175.914 80.5993 175.914 81.318C175.914 82.0367 175.755 82.6807 175.438 83.25C175.12 83.8193 174.682 84.2673 174.122 84.594C173.571 84.9113 172.95 85.07 172.26 85.07C171.606 85.07 171.014 84.93 170.482 84.65C169.95 84.3607 169.516 83.964 169.18 83.46C168.853 82.956 168.662 82.3773 168.606 81.724H166.926V85H165.932V77.636H166.926V80.814H168.62C168.694 80.1793 168.895 79.6193 169.222 79.134C169.558 78.6393 169.987 78.2567 170.51 77.986C171.032 77.7153 171.616 77.58 172.26 77.58ZM172.26 84.202C172.764 84.202 173.216 84.0807 173.618 83.838C174.028 83.5953 174.35 83.2547 174.584 82.816C174.817 82.3773 174.934 81.878 174.934 81.318C174.934 80.758 174.817 80.2587 174.584 79.82C174.35 79.3813 174.028 79.0453 173.618 78.812C173.216 78.5693 172.764 78.448 172.26 78.448C171.756 78.448 171.298 78.5693 170.888 78.812C170.486 79.0453 170.169 79.3813 169.936 79.82C169.702 80.2587 169.586 80.758 169.586 81.318C169.586 81.878 169.702 82.3773 169.936 82.816C170.169 83.2547 170.486 83.5953 170.888 83.838C171.298 84.0807 171.756 84.202 172.26 84.202ZM188.209 77.636V85H178.045V77.636H179.039V84.132H182.651V77.636H183.645V84.132H187.215V77.636H188.209ZM189.343 84.132V86.61H188.405V85H187.159V84.132H189.343ZM191.047 77.636H192.041V83.488L196.955 77.636H197.837V85H196.843V79.148L191.943 85H191.047V77.636ZM207.125 81.626H200.965C201.021 82.3913 201.315 83.012 201.847 83.488C202.379 83.9547 203.051 84.188 203.863 84.188C204.321 84.188 204.741 84.1087 205.123 83.95C205.506 83.782 205.837 83.5393 206.117 83.222L206.677 83.866C206.351 84.258 205.94 84.5567 205.445 84.762C204.96 84.9673 204.423 85.07 203.835 85.07C203.079 85.07 202.407 84.9113 201.819 84.594C201.241 84.2673 200.788 83.8193 200.461 83.25C200.135 82.6807 199.971 82.0367 199.971 81.318C199.971 80.5993 200.125 79.9553 200.433 79.386C200.751 78.8167 201.18 78.3733 201.721 78.056C202.272 77.7387 202.888 77.58 203.569 77.58C204.251 77.58 204.862 77.7387 205.403 78.056C205.945 78.3733 206.369 78.8167 206.677 79.386C206.985 79.946 207.139 80.59 207.139 81.318L207.125 81.626ZM203.569 78.434C202.86 78.434 202.263 78.6627 201.777 79.12C201.301 79.568 201.031 80.156 200.965 80.884H206.187C206.122 80.156 205.847 79.568 205.361 79.12C204.885 78.6627 204.288 78.434 203.569 78.434ZM216.084 85.07C215.356 85.07 214.703 84.9113 214.124 84.594C213.555 84.2767 213.107 83.8333 212.78 83.264C212.453 82.6853 212.29 82.0367 212.29 81.318C212.29 80.5993 212.453 79.9553 212.78 79.386C213.107 78.8167 213.555 78.3733 214.124 78.056C214.703 77.7387 215.356 77.58 216.084 77.58C216.719 77.58 217.283 77.706 217.778 77.958C218.282 78.2007 218.679 78.56 218.968 79.036L218.226 79.54C217.983 79.176 217.675 78.9053 217.302 78.728C216.929 78.5413 216.523 78.448 216.084 78.448C215.552 78.448 215.071 78.5693 214.642 78.812C214.222 79.0453 213.891 79.3813 213.648 79.82C213.415 80.2587 213.298 80.758 213.298 81.318C213.298 81.8873 213.415 82.3913 213.648 82.83C213.891 83.2593 214.222 83.5953 214.642 83.838C215.071 84.0713 215.552 84.188 216.084 84.188C216.523 84.188 216.929 84.0993 217.302 83.922C217.675 83.7447 217.983 83.474 218.226 83.11L218.968 83.614C218.679 84.09 218.282 84.454 217.778 84.706C217.274 84.9487 216.709 85.07 216.084 85.07ZM225.936 78.518H223.15V85H222.156V78.518H219.37V77.636H225.936V78.518ZM233.471 81.626H227.311C227.367 82.3913 227.661 83.012 228.193 83.488C228.725 83.9547 229.397 84.188 230.209 84.188C230.667 84.188 231.087 84.1087 231.469 83.95C231.852 83.782 232.183 83.5393 232.463 83.222L233.023 83.866C232.697 84.258 232.286 84.5567 231.791 84.762C231.306 84.9673 230.769 85.07 230.181 85.07C229.425 85.07 228.753 84.9113 228.165 84.594C227.587 84.2673 227.134 83.8193 226.807 83.25C226.481 82.6807 226.317 82.0367 226.317 81.318C226.317 80.5993 226.471 79.9553 226.779 79.386C227.097 78.8167 227.526 78.3733 228.067 78.056C228.618 77.7387 229.234 77.58 229.915 77.58C230.597 77.58 231.208 77.7387 231.749 78.056C232.291 78.3733 232.715 78.8167 233.023 79.386C233.331 79.946 233.485 80.59 233.485 81.318L233.471 81.626ZM229.915 78.434C229.206 78.434 228.609 78.6627 228.123 79.12C227.647 79.568 227.377 80.156 227.311 80.884H232.533C232.468 80.156 232.193 79.568 231.707 79.12C231.231 78.6627 230.634 78.434 229.915 78.434ZM235.685 77.636H236.679V80.898H241.313V77.636H242.307V85H241.313V81.752H236.679V85H235.685V77.636ZM248.227 80.24C249.151 80.2493 249.855 80.4547 250.341 80.856C250.826 81.2573 251.069 81.836 251.069 82.592C251.069 83.376 250.807 83.978 250.285 84.398C249.762 84.818 249.015 85.0233 248.045 85.014L245.133 85V77.636H246.127V80.212L248.227 80.24ZM252.301 77.636H253.295V85H252.301V77.636ZM247.989 84.258C248.67 84.2673 249.183 84.132 249.529 83.852C249.883 83.5627 250.061 83.1427 250.061 82.592C250.061 82.0507 249.888 81.6493 249.543 81.388C249.197 81.1267 248.679 80.9913 247.989 80.982L246.127 80.954V84.23L247.989 84.258Z" fill="#1F2041" fill-opacity="0.75"/>
<path d="M30.1875 77.0938C28.375 78.3438 26.3125 78.9688 24 78.9688C21.6875 78.9688 19.5938 78.3438 17.7188 77.0938C15.9062 75.7812 14.5938 74.0938 13.7812 72.0312H34.2188C33.4062 74.0938 32.0625 75.7812 30.1875 77.0938ZM19.0312 65.1875C18.4688 65.75 17.7812 66.0312 16.9688 66.0312C16.1562 66.0312 15.4375 65.75 14.8125 65.1875C14.25 64.5625 13.9688 63.8438 13.9688 63.0312C13.9688 62.2188 14.25 61.5312 14.8125 60.9688C15.4375 60.3438 16.1562 60.0312 16.9688 60.0312C17.7812 60.0312 18.4688 60.3438 19.0312 60.9688C19.6562 61.5312 19.9688 62.2188 19.9688 63.0312C19.9688 63.8438 19.6562 64.5625 19.0312 65.1875ZM33.0938 65.1875C32.5312 65.75 31.8438 66.0312 31.0312 66.0312C30.2188 66.0312 29.5 65.75 28.875 65.1875C28.3125 64.5625 28.0312 63.8438 28.0312 63.0312C28.0312 62.2188 28.3125 61.5312 28.875 60.9688C29.5 60.3438 30.2188 60.0312 31.0312 60.0312C31.8438 60.0312 32.5312 60.3438 33.0938 60.9688C33.7188 61.5312 34.0312 62.2188 34.0312 63.0312C34.0312 63.8438 33.7188 64.5625 33.0938 65.1875ZM12.6562 79.3438C15.8438 82.4688 19.625 84.0312 24 84.0312C28.375 84.0312 32.125 82.4688 35.25 79.3438C38.4375 76.1562 40.0312 72.375 40.0312 68C40.0312 63.625 38.4375 59.875 35.25 56.75C32.125 53.5625 28.375 51.9688 24 51.9688C19.625 51.9688 15.8438 53.5625 12.6562 56.75C9.53125 59.875 7.96875 63.625 7.96875 68C7.96875 72.375 9.53125 76.1562 12.6562 79.3438ZM9.84375 53.9375C13.7812 50 18.5 48.0312 24 48.0312C29.5 48.0312 34.1875 50 38.0625 53.9375C42 57.8125 43.9688 62.5 43.9688 68C43.9688 73.5 42 78.2188 38.0625 82.1562C34.1875 86.0312 29.5 87.9688 24 87.9688C18.5 87.9688 13.7812 86.0312 9.84375 82.1562C5.96875 78.2188 4.03125 73.5 4.03125 68C4.03125 62.5 5.96875 57.8125 9.84375 53.9375Z" fill="url(#paint0_linear)"/>
<path d="M68.066 140.2L63.894 147.956C63.4927 148.703 63.0073 149.267 62.438 149.65C61.878 150.033 61.2667 150.224 60.604 150.224C60.0907 150.224 59.5587 150.112 59.008 149.888L59.554 148.166C59.946 148.287 60.2727 148.348 60.534 148.348C60.814 148.348 61.066 148.283 61.29 148.152C61.514 148.012 61.7193 147.797 61.906 147.508L61.99 147.396L58.126 140.2H60.548L63.152 145.464L65.84 140.2H68.066ZM77.0213 148.208V151.624H74.9913V150H69.6993V151.624H67.6693V148.208H67.9773C68.444 148.199 68.766 147.923 68.9433 147.382C69.1206 146.841 69.2326 146.071 69.2793 145.072L69.3773 142.468H75.9433V148.208H77.0213ZM71.2533 145.226C71.2253 145.991 71.1646 146.617 71.0713 147.102C70.9873 147.587 70.824 147.956 70.5813 148.208H73.7593V144.26H71.2953L71.2533 145.226ZM81.9237 150.112C81.1304 150.112 80.4164 149.949 79.7817 149.622C79.1564 149.286 78.6664 148.824 78.3117 148.236C77.957 147.648 77.7797 146.981 77.7797 146.234C77.7797 145.487 77.957 144.82 78.3117 144.232C78.6664 143.644 79.1564 143.187 79.7817 142.86C80.4164 142.524 81.1304 142.356 81.9237 142.356C82.717 142.356 83.4264 142.524 84.0517 142.86C84.677 143.187 85.167 143.644 85.5217 144.232C85.8764 144.82 86.0537 145.487 86.0537 146.234C86.0537 146.981 85.8764 147.648 85.5217 148.236C85.167 148.824 84.677 149.286 84.0517 149.622C83.4264 149.949 82.717 150.112 81.9237 150.112ZM81.9237 148.32C82.4837 148.32 82.941 148.133 83.2957 147.76C83.6597 147.377 83.8417 146.869 83.8417 146.234C83.8417 145.599 83.6597 145.095 83.2957 144.722C82.941 144.339 82.4837 144.148 81.9237 144.148C81.3637 144.148 80.9017 144.339 80.5377 144.722C80.1737 145.095 79.9917 145.599 79.9917 146.234C79.9917 146.869 80.1737 147.377 80.5377 147.76C80.9017 148.133 81.3637 148.32 81.9237 148.32ZM91.9099 142.986C92.6285 142.986 93.2585 143.135 93.7999 143.434C94.3412 143.723 94.7565 144.134 95.0459 144.666C95.3445 145.198 95.4939 145.814 95.4939 146.514C95.4939 147.233 95.3165 147.872 94.9619 148.432C94.6165 148.983 94.1312 149.412 93.5059 149.72C92.8805 150.019 92.1712 150.168 91.3779 150.168C90.0619 150.168 89.0259 149.748 88.2699 148.908C87.5232 148.059 87.1499 146.817 87.1499 145.184C87.1499 143.672 87.4765 142.468 88.1299 141.572C88.7925 140.667 89.8052 140.074 91.1679 139.794L94.7519 139.08L95.0459 140.956L91.8819 141.586C91.0232 141.754 90.3839 142.034 89.9639 142.426C89.5532 142.818 89.3105 143.373 89.2359 144.092C89.5625 143.737 89.9545 143.467 90.4119 143.28C90.8692 143.084 91.3685 142.986 91.9099 142.986ZM91.3919 148.474C91.9519 148.474 92.3999 148.292 92.7359 147.928C93.0812 147.564 93.2539 147.102 93.2539 146.542C93.2539 145.973 93.0812 145.52 92.7359 145.184C92.3999 144.848 91.9519 144.68 91.3919 144.68C90.8225 144.68 90.3652 144.848 90.0199 145.184C89.6745 145.52 89.5019 145.973 89.5019 146.542C89.5019 147.111 89.6792 147.578 90.0339 147.942C90.3885 148.297 90.8412 148.474 91.3919 148.474ZM100.56 150.112C99.7571 150.112 99.0338 149.949 98.3898 149.622C97.7551 149.286 97.2558 148.824 96.8918 148.236C96.5371 147.648 96.3598 146.981 96.3598 146.234C96.3598 145.487 96.5371 144.82 96.8918 144.232C97.2558 143.644 97.7551 143.187 98.3898 142.86C99.0338 142.524 99.7571 142.356 100.56 142.356C101.353 142.356 102.044 142.524 102.632 142.86C103.229 143.187 103.663 143.658 103.934 144.274L102.24 145.184C101.848 144.493 101.283 144.148 100.546 144.148C99.9764 144.148 99.5051 144.335 99.1318 144.708C98.7584 145.081 98.5718 145.59 98.5718 146.234C98.5718 146.878 98.7584 147.387 99.1318 147.76C99.5051 148.133 99.9764 148.32 100.546 148.32C101.292 148.32 101.857 147.975 102.24 147.284L103.934 148.208C103.663 148.805 103.229 149.272 102.632 149.608C102.044 149.944 101.353 150.112 100.56 150.112ZM111.562 144.26H109.014V150H106.844V144.26H104.296V142.468H111.562V144.26ZM118.48 146.066C119.366 146.365 119.81 146.962 119.81 147.858C119.81 148.539 119.553 149.067 119.04 149.44C118.526 149.813 117.761 150 116.744 150H112.726V142.468H116.576C117.518 142.468 118.256 142.641 118.788 142.986C119.32 143.322 119.586 143.798 119.586 144.414C119.586 144.787 119.488 145.119 119.292 145.408C119.105 145.688 118.834 145.907 118.48 146.066ZM114.728 145.562H116.38C117.145 145.562 117.528 145.291 117.528 144.75C117.528 144.218 117.145 143.952 116.38 143.952H114.728V145.562ZM116.562 148.516C117.364 148.516 117.766 148.241 117.766 147.69C117.766 147.401 117.672 147.191 117.486 147.06C117.299 146.92 117.005 146.85 116.604 146.85H114.728V148.516H116.562ZM124.963 150.112C124.169 150.112 123.455 149.949 122.821 149.622C122.195 149.286 121.705 148.824 121.351 148.236C120.996 147.648 120.819 146.981 120.819 146.234C120.819 145.487 120.996 144.82 121.351 144.232C121.705 143.644 122.195 143.187 122.821 142.86C123.455 142.524 124.169 142.356 124.963 142.356C125.756 142.356 126.465 142.524 127.091 142.86C127.716 143.187 128.206 143.644 128.561 144.232C128.915 144.82 129.093 145.487 129.093 146.234C129.093 146.981 128.915 147.648 128.561 148.236C128.206 148.824 127.716 149.286 127.091 149.622C126.465 149.949 125.756 150.112 124.963 150.112ZM124.963 148.32C125.523 148.32 125.98 148.133 126.335 147.76C126.699 147.377 126.881 146.869 126.881 146.234C126.881 145.599 126.699 145.095 126.335 144.722C125.98 144.339 125.523 144.148 124.963 144.148C124.403 144.148 123.941 144.339 123.577 144.722C123.213 145.095 123.031 145.599 123.031 146.234C123.031 146.869 123.213 147.377 123.577 147.76C123.941 148.133 124.403 148.32 124.963 148.32ZM63.95 174.084C62.9793 174.084 62.0973 173.869 61.304 173.44C60.52 173.001 59.904 172.404 59.456 171.648C59.0173 170.892 58.798 170.043 58.798 169.1C58.798 168.157 59.0173 167.308 59.456 166.552C59.904 165.796 60.52 165.203 61.304 164.774C62.0973 164.335 62.9793 164.116 63.95 164.116C64.9207 164.116 65.7933 164.331 66.568 164.76C67.352 165.189 67.968 165.787 68.416 166.552C68.864 167.308 69.088 168.157 69.088 169.1C69.088 170.043 68.864 170.897 68.416 171.662C67.968 172.418 67.352 173.011 66.568 173.44C65.7933 173.869 64.9207 174.084 63.95 174.084ZM63.95 173.16C64.7247 173.16 65.4247 172.987 66.05 172.642C66.6753 172.287 67.1653 171.802 67.52 171.186C67.8747 170.561 68.052 169.865 68.052 169.1C68.052 168.335 67.8747 167.644 67.52 167.028C67.1653 166.403 66.6753 165.917 66.05 165.572C65.4247 165.217 64.7247 165.04 63.95 165.04C63.1753 165.04 62.4707 165.217 61.836 165.572C61.2107 165.917 60.716 166.403 60.352 167.028C59.9973 167.644 59.82 168.335 59.82 169.1C59.82 169.865 59.9973 170.561 60.352 171.186C60.716 171.802 61.2107 172.287 61.836 172.642C62.4707 172.987 63.1753 173.16 63.95 173.16ZM73.9962 170.724H72.3162V174H71.3222V166.636H72.3162V169.87H74.0102L76.6002 166.636H77.6782L74.7802 170.206L77.8882 174H76.7122L73.9962 170.724ZM79.457 166.636H80.451V169.898H85.085V166.636H86.079V174H85.085V170.752H80.451V174H79.457V166.636ZM91.9422 174.07C91.2329 174.07 90.5936 173.911 90.0242 173.594C89.4549 173.267 89.0069 172.819 88.6802 172.25C88.3536 171.681 88.1902 171.037 88.1902 170.318C88.1902 169.599 88.3536 168.955 88.6802 168.386C89.0069 167.817 89.4549 167.373 90.0242 167.056C90.5936 166.739 91.2329 166.58 91.9422 166.58C92.6516 166.58 93.2909 166.739 93.8602 167.056C94.4296 167.373 94.8729 167.817 95.1902 168.386C95.5169 168.955 95.6802 169.599 95.6802 170.318C95.6802 171.037 95.5169 171.681 95.1902 172.25C94.8729 172.819 94.4296 173.267 93.8602 173.594C93.2909 173.911 92.6516 174.07 91.9422 174.07ZM91.9422 173.188C92.4649 173.188 92.9316 173.071 93.3422 172.838C93.7622 172.595 94.0889 172.255 94.3222 171.816C94.5556 171.377 94.6722 170.878 94.6722 170.318C94.6722 169.758 94.5556 169.259 94.3222 168.82C94.0889 168.381 93.7622 168.045 93.3422 167.812C92.9316 167.569 92.4649 167.448 91.9422 167.448C91.4196 167.448 90.9482 167.569 90.5282 167.812C90.1176 168.045 89.7909 168.381 89.5482 168.82C89.3149 169.259 89.1982 169.758 89.1982 170.318C89.1982 170.878 89.3149 171.377 89.5482 171.816C89.7909 172.255 90.1176 172.595 90.5282 172.838C90.9482 173.071 91.4196 173.188 91.9422 173.188ZM106.159 170.192C107.157 170.425 107.657 171.027 107.657 171.998C107.657 172.642 107.419 173.137 106.943 173.482C106.467 173.827 105.757 174 104.815 174H101.469V166.636H104.717C105.557 166.636 106.215 166.799 106.691 167.126C107.167 167.453 107.405 167.919 107.405 168.526C107.405 168.927 107.293 169.273 107.069 169.562C106.854 169.842 106.551 170.052 106.159 170.192ZM102.435 169.912H104.647C105.216 169.912 105.65 169.805 105.949 169.59C106.257 169.375 106.411 169.063 106.411 168.652C106.411 168.241 106.257 167.933 105.949 167.728C105.65 167.523 105.216 167.42 104.647 167.42H102.435V169.912ZM104.773 173.216C105.407 173.216 105.883 173.113 106.201 172.908C106.518 172.703 106.677 172.381 106.677 171.942C106.677 171.503 106.532 171.181 106.243 170.976C105.953 170.761 105.496 170.654 104.871 170.654H102.435V173.216H104.773ZM116.324 170.724H114.644V174H113.65V166.636H114.644V169.87H116.338L118.928 166.636H120.006L117.108 170.206L120.216 174H119.04L116.324 170.724ZM124.182 166.58C125.144 166.58 125.881 166.823 126.394 167.308C126.908 167.784 127.164 168.493 127.164 169.436V174H126.212V172.852C125.988 173.235 125.657 173.533 125.218 173.748C124.789 173.963 124.276 174.07 123.678 174.07C122.857 174.07 122.204 173.874 121.718 173.482C121.233 173.09 120.99 172.572 120.99 171.928C120.99 171.303 121.214 170.799 121.662 170.416C122.12 170.033 122.843 169.842 123.832 169.842H126.17V169.394C126.17 168.759 125.993 168.279 125.638 167.952C125.284 167.616 124.766 167.448 124.084 167.448C123.618 167.448 123.17 167.527 122.74 167.686C122.311 167.835 121.942 168.045 121.634 168.316L121.186 167.574C121.56 167.257 122.008 167.014 122.53 166.846C123.053 166.669 123.604 166.58 124.182 166.58ZM123.832 173.286C124.392 173.286 124.873 173.16 125.274 172.908C125.676 172.647 125.974 172.273 126.17 171.788V170.584H123.86C122.6 170.584 121.97 171.023 121.97 171.9C121.97 172.329 122.134 172.67 122.46 172.922C122.787 173.165 123.244 173.286 123.832 173.286ZM136.264 170.724H134.668V174H133.674V170.724H132.078L129.824 174H128.634L131.28 170.206L128.844 166.636H129.922L132.078 169.87H133.674V166.636H134.668V169.87H136.264L138.434 166.636H139.512L137.076 170.22L139.722 174H138.532L136.264 170.724ZM148.559 173.132V175.778H147.621V174H141.027V175.778H140.089V173.132H140.509C141.004 173.104 141.34 172.74 141.517 172.04C141.694 171.34 141.816 170.36 141.881 169.1L141.979 166.636H147.411V173.132H148.559ZM142.791 169.156C142.744 170.201 142.656 171.065 142.525 171.746C142.394 172.418 142.161 172.88 141.825 173.132H146.417V167.518H142.875L142.791 169.156ZM153.534 174.07C152.825 174.07 152.185 173.911 151.616 173.594C151.047 173.267 150.599 172.819 150.272 172.25C149.945 171.681 149.782 171.037 149.782 170.318C149.782 169.599 149.945 168.955 150.272 168.386C150.599 167.817 151.047 167.373 151.616 167.056C152.185 166.739 152.825 166.58 153.534 166.58C154.243 166.58 154.883 166.739 155.452 167.056C156.021 167.373 156.465 167.817 156.782 168.386C157.109 168.955 157.272 169.599 157.272 170.318C157.272 171.037 157.109 171.681 156.782 172.25C156.465 172.819 156.021 173.267 155.452 173.594C154.883 173.911 154.243 174.07 153.534 174.07ZM153.534 173.188C154.057 173.188 154.523 173.071 154.934 172.838C155.354 172.595 155.681 172.255 155.914 171.816C156.147 171.377 156.264 170.878 156.264 170.318C156.264 169.758 156.147 169.259 155.914 168.82C155.681 168.381 155.354 168.045 154.934 167.812C154.523 167.569 154.057 167.448 153.534 167.448C153.011 167.448 152.54 167.569 152.12 167.812C151.709 168.045 151.383 168.381 151.14 168.82C150.907 169.259 150.79 169.758 150.79 170.318C150.79 170.878 150.907 171.377 151.14 171.816C151.383 172.255 151.709 172.595 152.12 172.838C152.54 173.071 153.011 173.188 153.534 173.188ZM159.396 166.636H160.39V172.488L165.304 166.636H166.186V174H165.192V168.148L160.292 174H159.396V166.636ZM162.742 165.572C162.108 165.572 161.604 165.413 161.23 165.096C160.857 164.779 160.666 164.331 160.656 163.752H161.37C161.38 164.116 161.51 164.41 161.762 164.634C162.014 164.849 162.341 164.956 162.742 164.956C163.144 164.956 163.47 164.849 163.722 164.634C163.984 164.41 164.119 164.116 164.128 163.752H164.842C164.833 164.331 164.637 164.779 164.254 165.096C163.881 165.413 163.377 165.572 162.742 165.572ZM172.699 166.636H173.693V172.488L178.607 166.636H179.489V174H178.495V168.148L173.595 174H172.699V166.636ZM185.771 170.164C186.294 170.285 186.695 170.495 186.975 170.794C187.265 171.093 187.409 171.457 187.409 171.886C187.409 172.315 187.26 172.698 186.961 173.034C186.672 173.37 186.275 173.631 185.771 173.818C185.267 173.995 184.712 174.084 184.105 174.084C183.573 174.084 183.051 174.009 182.537 173.86C182.024 173.701 181.576 173.473 181.193 173.174L181.529 172.432C181.865 172.684 182.257 172.88 182.705 173.02C183.153 173.16 183.606 173.23 184.063 173.23C184.745 173.23 185.3 173.104 185.729 172.852C186.168 172.591 186.387 172.241 186.387 171.802C186.387 171.41 186.21 171.107 185.855 170.892C185.501 170.668 185.015 170.556 184.399 170.556H183.139V169.828H184.343C184.894 169.828 185.337 169.725 185.673 169.52C186.009 169.305 186.177 169.021 186.177 168.666C186.177 168.274 185.986 167.966 185.603 167.742C185.23 167.518 184.74 167.406 184.133 167.406C183.34 167.406 182.556 167.607 181.781 168.008L181.501 167.238C182.379 166.781 183.289 166.552 184.231 166.552C184.791 166.552 185.295 166.636 185.743 166.804C186.201 166.963 186.555 167.191 186.807 167.49C187.069 167.789 187.199 168.134 187.199 168.526C187.199 168.899 187.069 169.231 186.807 169.52C186.555 169.809 186.21 170.024 185.771 170.164ZM196.41 174.07C195.682 174.07 195.029 173.911 194.45 173.594C193.881 173.277 193.433 172.833 193.106 172.264C192.779 171.685 192.616 171.037 192.616 170.318C192.616 169.599 192.779 168.955 193.106 168.386C193.433 167.817 193.881 167.373 194.45 167.056C195.029 166.739 195.682 166.58 196.41 166.58C197.045 166.58 197.609 166.706 198.104 166.958C198.608 167.201 199.005 167.56 199.294 168.036L198.552 168.54C198.309 168.176 198.001 167.905 197.628 167.728C197.255 167.541 196.849 167.448 196.41 167.448C195.878 167.448 195.397 167.569 194.968 167.812C194.548 168.045 194.217 168.381 193.974 168.82C193.741 169.259 193.624 169.758 193.624 170.318C193.624 170.887 193.741 171.391 193.974 171.83C194.217 172.259 194.548 172.595 194.968 172.838C195.397 173.071 195.878 173.188 196.41 173.188C196.849 173.188 197.255 173.099 197.628 172.922C198.001 172.745 198.309 172.474 198.552 172.11L199.294 172.614C199.005 173.09 198.608 173.454 198.104 173.706C197.6 173.949 197.035 174.07 196.41 174.07ZM207.827 166.636V174H206.833V167.518H202.213V174H201.219V166.636H207.827ZM213.186 166.58C214.148 166.58 214.885 166.823 215.398 167.308C215.912 167.784 216.168 168.493 216.168 169.436V174H215.216V172.852C214.992 173.235 214.661 173.533 214.222 173.748C213.793 173.963 213.28 174.07 212.682 174.07C211.861 174.07 211.208 173.874 210.722 173.482C210.237 173.09 209.994 172.572 209.994 171.928C209.994 171.303 210.218 170.799 210.666 170.416C211.124 170.033 211.847 169.842 212.836 169.842H215.174V169.394C215.174 168.759 214.997 168.279 214.642 167.952C214.288 167.616 213.77 167.448 213.088 167.448C212.622 167.448 212.174 167.527 211.744 167.686C211.315 167.835 210.946 168.045 210.638 168.316L210.19 167.574C210.564 167.257 211.012 167.014 211.534 166.846C212.057 166.669 212.608 166.58 213.186 166.58ZM212.836 173.286C213.396 173.286 213.877 173.16 214.278 172.908C214.68 172.647 214.978 172.273 215.174 171.788V170.584H212.864C211.604 170.584 210.974 171.023 210.974 171.9C210.974 172.329 211.138 172.67 211.464 172.922C211.791 173.165 212.248 173.286 212.836 173.286ZM224.834 166.636V174H223.84V167.518H220.312L220.214 169.338C220.14 170.869 219.962 172.045 219.682 172.866C219.402 173.687 218.903 174.098 218.184 174.098C217.988 174.098 217.75 174.061 217.47 173.986L217.54 173.132C217.708 173.169 217.825 173.188 217.89 173.188C218.273 173.188 218.562 173.011 218.758 172.656C218.954 172.301 219.085 171.863 219.15 171.34C219.216 170.817 219.272 170.127 219.318 169.268L219.444 166.636H224.834ZM234.1 170.626H227.94C227.996 171.391 228.29 172.012 228.822 172.488C229.354 172.955 230.026 173.188 230.838 173.188C231.295 173.188 231.715 173.109 232.098 172.95C232.481 172.782 232.812 172.539 233.092 172.222L233.652 172.866C233.325 173.258 232.915 173.557 232.42 173.762C231.935 173.967 231.398 174.07 230.81 174.07C230.054 174.07 229.382 173.911 228.794 173.594C228.215 173.267 227.763 172.819 227.436 172.25C227.109 171.681 226.946 171.037 226.946 170.318C226.946 169.599 227.1 168.955 227.408 168.386C227.725 167.817 228.155 167.373 228.696 167.056C229.247 166.739 229.863 166.58 230.544 166.58C231.225 166.58 231.837 166.739 232.378 167.056C232.919 167.373 233.344 167.817 233.652 168.386C233.96 168.946 234.114 169.59 234.114 170.318L234.1 170.626ZM230.544 167.434C229.835 167.434 229.237 167.663 228.752 168.12C228.276 168.568 228.005 169.156 227.94 169.884H233.162C233.097 169.156 232.821 168.568 232.336 168.12C231.86 167.663 231.263 167.434 230.544 167.434ZM236.314 166.636H237.308V169.898H241.942V166.636H242.936V174H241.942V170.752H237.308V174H236.314V166.636Z" fill="#1F2041" fill-opacity="0.75"/>
<path d="M37.9688 163V158.969H34.0312V163H37.9688ZM37.9688 170.969V167.031H34.0312V170.969H37.9688ZM25.9688 146.969V143.031H22.0312V146.969H25.9688ZM25.9688 155.031V151H22.0312V155.031H25.9688ZM25.9688 163V158.969H22.0312V163H25.9688ZM25.9688 170.969V167.031H22.0312V170.969H25.9688ZM13.9688 155.031V151H10.0312V155.031H13.9688ZM13.9688 163V158.969H10.0312V163H13.9688ZM13.9688 170.969V167.031H10.0312V170.969H13.9688ZM30 155.031H42V175H6V146.969H18V143.031L24 137.031L30 143.031V155.031Z" fill="url(#paint1_linear)"/>
<rect y="201" width="280" height="1" fill="#1F2041" fill-opacity="0.1"/>
<path d="M68.066 229.2L63.894 236.956C63.4927 237.703 63.0073 238.267 62.438 238.65C61.878 239.033 61.2667 239.224 60.604 239.224C60.0907 239.224 59.5587 239.112 59.008 238.888L59.554 237.166C59.946 237.287 60.2727 237.348 60.534 237.348C60.814 237.348 61.066 237.283 61.29 237.152C61.514 237.012 61.7193 236.797 61.906 236.508L61.99 236.396L58.126 229.2H60.548L63.152 234.464L65.84 229.2H68.066ZM75.8147 231.356C76.58 231.356 77.266 231.524 77.8727 231.86C78.4793 232.187 78.9553 232.644 79.3007 233.232C79.646 233.82 79.8187 234.487 79.8187 235.234C79.8187 235.981 79.646 236.648 79.3007 237.236C78.9553 237.824 78.4793 238.286 77.8727 238.622C77.266 238.949 76.58 239.112 75.8147 239.112C75.152 239.112 74.5453 238.991 73.9947 238.748C73.444 238.496 72.9867 238.146 72.6227 237.698C72.2587 237.241 72.016 236.718 71.8947 236.13H70.8587V239H68.6887V231.468H70.8587V234.24H71.9087C72.1233 233.363 72.5807 232.663 73.2807 232.14C73.9807 231.617 74.8253 231.356 75.8147 231.356ZM75.8147 237.32C76.3467 237.32 76.7853 237.133 77.1307 236.76C77.4853 236.377 77.6627 235.869 77.6627 235.234C77.6627 234.59 77.4853 234.081 77.1307 233.708C76.7853 233.335 76.3467 233.148 75.8147 233.148C75.2733 233.148 74.8253 233.335 74.4707 233.708C74.1253 234.081 73.9527 234.59 73.9527 235.234C73.9527 235.869 74.1253 236.377 74.4707 236.76C74.8253 237.133 75.2733 237.32 75.8147 237.32ZM87.3897 233.26H84.8417V239H82.6717V233.26H80.1237V231.468H87.3897V233.26ZM67.842 253.2V263H66.82V258.478H60.688V263H59.652V253.2H60.688V257.568H66.82V253.2H67.842ZM73.95 263.07C73.2407 263.07 72.6014 262.911 72.032 262.594C71.4627 262.267 71.0147 261.819 70.688 261.25C70.3614 260.681 70.198 260.037 70.198 259.318C70.198 258.599 70.3614 257.955 70.688 257.386C71.0147 256.817 71.4627 256.373 72.032 256.056C72.6014 255.739 73.2407 255.58 73.95 255.58C74.6594 255.58 75.2987 255.739 75.868 256.056C76.4374 256.373 76.8807 256.817 77.198 257.386C77.5247 257.955 77.688 258.599 77.688 259.318C77.688 260.037 77.5247 260.681 77.198 261.25C76.8807 261.819 76.4374 262.267 75.868 262.594C75.2987 262.911 74.6594 263.07 73.95 263.07ZM73.95 262.188C74.4727 262.188 74.9394 262.071 75.35 261.838C75.77 261.595 76.0967 261.255 76.33 260.816C76.5634 260.377 76.68 259.878 76.68 259.318C76.68 258.758 76.5634 258.259 76.33 257.82C76.0967 257.381 75.77 257.045 75.35 256.812C74.9394 256.569 74.4727 256.448 73.95 256.448C73.4274 256.448 72.956 256.569 72.536 256.812C72.1254 257.045 71.7987 257.381 71.556 257.82C71.3227 258.259 71.206 258.758 71.206 259.318C71.206 259.878 71.3227 260.377 71.556 260.816C71.7987 261.255 72.1254 261.595 72.536 261.838C72.956 262.071 73.4274 262.188 73.95 262.188ZM88.0444 255.636V263H87.1344V257.176L84.1524 262.104H83.7044L80.7224 257.162V263H79.8124V255.636H80.8204L83.9424 260.942L87.1204 255.636H88.0444ZM97.313 259.626H91.153C91.209 260.391 91.503 261.012 92.035 261.488C92.567 261.955 93.239 262.188 94.051 262.188C94.5083 262.188 94.9283 262.109 95.311 261.95C95.6937 261.782 96.025 261.539 96.305 261.222L96.865 261.866C96.5383 262.258 96.1277 262.557 95.633 262.762C95.1477 262.967 94.611 263.07 94.023 263.07C93.267 263.07 92.595 262.911 92.007 262.594C91.4283 262.267 90.9757 261.819 90.649 261.25C90.3223 260.681 90.159 260.037 90.159 259.318C90.159 258.599 90.313 257.955 90.621 257.386C90.9383 256.817 91.3677 256.373 91.909 256.056C92.4597 255.739 93.0757 255.58 93.757 255.58C94.4383 255.58 95.0497 255.739 95.591 256.056C96.1323 256.373 96.557 256.817 96.865 257.386C97.173 257.946 97.327 258.59 97.327 259.318L97.313 259.626ZM93.757 256.434C93.0477 256.434 92.4503 256.663 91.965 257.12C91.489 257.568 91.2183 258.156 91.153 258.884H96.375C96.3097 258.156 96.0343 257.568 95.549 257.12C95.073 256.663 94.4757 256.434 93.757 256.434ZM103.321 255.58C104.012 255.58 104.637 255.739 105.197 256.056C105.757 256.364 106.196 256.803 106.513 257.372C106.831 257.941 106.989 258.59 106.989 259.318C106.989 260.055 106.831 260.709 106.513 261.278C106.196 261.847 105.757 262.291 105.197 262.608C104.647 262.916 104.021 263.07 103.321 263.07C102.724 263.07 102.183 262.949 101.697 262.706C101.221 262.454 100.829 262.09 100.521 261.614V265.716H99.5273V255.636H100.479V257.092C100.778 256.607 101.17 256.233 101.655 255.972C102.15 255.711 102.705 255.58 103.321 255.58ZM103.251 262.188C103.765 262.188 104.231 262.071 104.651 261.838C105.071 261.595 105.398 261.255 105.631 260.816C105.874 260.377 105.995 259.878 105.995 259.318C105.995 258.758 105.874 258.263 105.631 257.834C105.398 257.395 105.071 257.055 104.651 256.812C104.231 256.569 103.765 256.448 103.251 256.448C102.729 256.448 102.257 256.569 101.837 256.812C101.427 257.055 101.1 257.395 100.857 257.834C100.624 258.263 100.507 258.758 100.507 259.318C100.507 259.878 100.624 260.377 100.857 260.816C101.1 261.255 101.427 261.595 101.837 261.838C102.257 262.071 102.729 262.188 103.251 262.188ZM115.827 263.07C115.118 263.07 114.478 262.911 113.909 262.594C113.34 262.267 112.892 261.819 112.565 261.25C112.238 260.681 112.075 260.037 112.075 259.318C112.075 258.599 112.238 257.955 112.565 257.386C112.892 256.817 113.34 256.373 113.909 256.056C114.478 255.739 115.118 255.58 115.827 255.58C116.536 255.58 117.176 255.739 117.745 256.056C118.314 256.373 118.758 256.817 119.075 257.386C119.402 257.955 119.565 258.599 119.565 259.318C119.565 260.037 119.402 260.681 119.075 261.25C118.758 261.819 118.314 262.267 117.745 262.594C117.176 262.911 116.536 263.07 115.827 263.07ZM115.827 262.188C116.35 262.188 116.816 262.071 117.227 261.838C117.647 261.595 117.974 261.255 118.207 260.816C118.44 260.377 118.557 259.878 118.557 259.318C118.557 258.758 118.44 258.259 118.207 257.82C117.974 257.381 117.647 257.045 117.227 256.812C116.816 256.569 116.35 256.448 115.827 256.448C115.304 256.448 114.833 256.569 114.413 256.812C114.002 257.045 113.676 257.381 113.433 257.82C113.2 258.259 113.083 258.758 113.083 259.318C113.083 259.878 113.2 260.377 113.433 260.816C113.676 261.255 114.002 261.595 114.413 261.838C114.833 262.071 115.304 262.188 115.827 262.188ZM124.769 263.07C124.041 263.07 123.388 262.911 122.809 262.594C122.24 262.277 121.792 261.833 121.465 261.264C121.139 260.685 120.975 260.037 120.975 259.318C120.975 258.599 121.139 257.955 121.465 257.386C121.792 256.817 122.24 256.373 122.809 256.056C123.388 255.739 124.041 255.58 124.769 255.58C125.404 255.58 125.969 255.706 126.463 255.958C126.967 256.201 127.364 256.56 127.653 257.036L126.911 257.54C126.669 257.176 126.361 256.905 125.987 256.728C125.614 256.541 125.208 256.448 124.769 256.448C124.237 256.448 123.757 256.569 123.327 256.812C122.907 257.045 122.576 257.381 122.333 257.82C122.1 258.259 121.983 258.758 121.983 259.318C121.983 259.887 122.1 260.391 122.333 260.83C122.576 261.259 122.907 261.595 123.327 261.838C123.757 262.071 124.237 262.188 124.769 262.188C125.208 262.188 125.614 262.099 125.987 261.922C126.361 261.745 126.669 261.474 126.911 261.11L127.653 261.614C127.364 262.09 126.967 262.454 126.463 262.706C125.959 262.949 125.395 263.07 124.769 263.07ZM129.578 255.636H130.572V258.898H135.206V255.636H136.2V263H135.206V259.752H130.572V263H129.578V255.636ZM141.559 255.58C142.521 255.58 143.258 255.823 143.771 256.308C144.285 256.784 144.541 257.493 144.541 258.436V263H143.589V261.852C143.365 262.235 143.034 262.533 142.595 262.748C142.166 262.963 141.653 263.07 141.055 263.07C140.234 263.07 139.581 262.874 139.095 262.482C138.61 262.09 138.367 261.572 138.367 260.928C138.367 260.303 138.591 259.799 139.039 259.416C139.497 259.033 140.22 258.842 141.209 258.842H143.547V258.394C143.547 257.759 143.37 257.279 143.015 256.952C142.661 256.616 142.143 256.448 141.461 256.448C140.995 256.448 140.547 256.527 140.117 256.686C139.688 256.835 139.319 257.045 139.011 257.316L138.563 256.574C138.937 256.257 139.385 256.014 139.907 255.846C140.43 255.669 140.981 255.58 141.559 255.58ZM141.209 262.286C141.769 262.286 142.25 262.16 142.651 261.908C143.053 261.647 143.351 261.273 143.547 260.788V259.584H141.237C139.977 259.584 139.347 260.023 139.347 260.9C139.347 261.329 139.511 261.67 139.837 261.922C140.164 262.165 140.621 262.286 141.209 262.286ZM157.351 255.636V263H147.187V255.636H148.181V262.132H151.793V255.636H152.787V262.132H156.357V255.636H157.351ZM158.485 262.132V264.61H157.547V263H156.301V262.132H158.485ZM166.629 259.626H160.469C160.525 260.391 160.819 261.012 161.351 261.488C161.883 261.955 162.555 262.188 163.367 262.188C163.825 262.188 164.245 262.109 164.627 261.95C165.01 261.782 165.341 261.539 165.621 261.222L166.181 261.866C165.855 262.258 165.444 262.557 164.949 262.762C164.464 262.967 163.927 263.07 163.339 263.07C162.583 263.07 161.911 262.911 161.323 262.594C160.745 262.267 160.292 261.819 159.965 261.25C159.639 260.681 159.475 260.037 159.475 259.318C159.475 258.599 159.629 257.955 159.937 257.386C160.255 256.817 160.684 256.373 161.225 256.056C161.776 255.739 162.392 255.58 163.073 255.58C163.755 255.58 164.366 255.739 164.907 256.056C165.449 256.373 165.873 256.817 166.181 257.386C166.489 257.946 166.643 258.59 166.643 259.318L166.629 259.626ZM163.073 256.434C162.364 256.434 161.767 256.663 161.281 257.12C160.805 257.568 160.535 258.156 160.469 258.884H165.691C165.626 258.156 165.351 257.568 164.865 257.12C164.389 256.663 163.792 256.434 163.073 256.434ZM161.827 254.166C161.659 254.166 161.515 254.11 161.393 253.998C161.281 253.886 161.225 253.741 161.225 253.564C161.225 253.396 161.281 253.256 161.393 253.144C161.515 253.023 161.659 252.962 161.827 252.962C161.986 252.962 162.126 253.023 162.247 253.144C162.369 253.256 162.429 253.396 162.429 253.564C162.429 253.732 162.369 253.877 162.247 253.998C162.135 254.11 161.995 254.166 161.827 254.166ZM164.319 254.166C164.151 254.166 164.007 254.11 163.885 253.998C163.773 253.877 163.717 253.732 163.717 253.564C163.717 253.396 163.778 253.256 163.899 253.144C164.021 253.023 164.161 252.962 164.319 252.962C164.487 252.962 164.627 253.023 164.739 253.144C164.861 253.256 164.921 253.396 164.921 253.564C164.921 253.741 164.861 253.886 164.739 253.998C164.627 254.11 164.487 254.166 164.319 254.166ZM168.844 255.636H169.838V258.898H174.472V255.636H175.466V263H174.472V259.752H169.838V263H168.844V255.636ZM184.629 259.724H182.949V263H181.955V255.636H182.949V258.87H184.643L187.233 255.636H188.311L185.413 259.206L188.521 263H187.345L184.629 259.724ZM192.487 255.58C193.448 255.58 194.186 255.823 194.699 256.308C195.212 256.784 195.469 257.493 195.469 258.436V263H194.517V261.852C194.293 262.235 193.962 262.533 193.523 262.748C193.094 262.963 192.58 263.07 191.983 263.07C191.162 263.07 190.508 262.874 190.023 262.482C189.538 262.09 189.295 261.572 189.295 260.928C189.295 260.303 189.519 259.799 189.967 259.416C190.424 259.033 191.148 258.842 192.137 258.842H194.475V258.394C194.475 257.759 194.298 257.279 193.943 256.952C193.588 256.616 193.07 256.448 192.389 256.448C191.922 256.448 191.474 256.527 191.045 256.686C190.616 256.835 190.247 257.045 189.939 257.316L189.491 256.574C189.864 256.257 190.312 256.014 190.835 255.846C191.358 255.669 191.908 255.58 192.487 255.58ZM192.137 262.286C192.697 262.286 193.178 262.16 193.579 261.908C193.98 261.647 194.279 261.273 194.475 260.788V259.584H192.165C190.905 259.584 190.275 260.023 190.275 260.9C190.275 261.329 190.438 261.67 190.765 261.922C191.092 262.165 191.549 262.286 192.137 262.286ZM206.347 255.636V263H205.437V257.176L202.455 262.104H202.007L199.025 257.162V263H198.115V255.636H199.123L202.245 260.942L205.423 255.636H206.347ZM209.176 255.636H210.17V261.488L215.084 255.636H215.966V263H214.972V257.148L210.072 263H209.176V255.636ZM218.814 255.636H219.808V258.898H224.442V255.636H225.436V263H224.442V259.752H219.808V263H218.814V255.636ZM231.3 263.07C230.59 263.07 229.951 262.911 229.382 262.594C228.812 262.267 228.364 261.819 228.038 261.25C227.711 260.681 227.548 260.037 227.548 259.318C227.548 258.599 227.711 257.955 228.038 257.386C228.364 256.817 228.812 256.373 229.382 256.056C229.951 255.739 230.59 255.58 231.3 255.58C232.009 255.58 232.648 255.739 233.218 256.056C233.787 256.373 234.23 256.817 234.548 257.386C234.874 257.955 235.038 258.599 235.038 259.318C235.038 260.037 234.874 260.681 234.548 261.25C234.23 261.819 233.787 262.267 233.218 262.594C232.648 262.911 232.009 263.07 231.3 263.07ZM231.3 262.188C231.822 262.188 232.289 262.071 232.7 261.838C233.12 261.595 233.446 261.255 233.68 260.816C233.913 260.377 234.03 259.878 234.03 259.318C234.03 258.758 233.913 258.259 233.68 257.82C233.446 257.381 233.12 257.045 232.7 256.812C232.289 256.569 231.822 256.448 231.3 256.448C230.777 256.448 230.306 256.569 229.886 256.812C229.475 257.045 229.148 257.381 228.906 257.82C228.672 258.259 228.556 258.758 228.556 259.318C228.556 259.878 228.672 260.377 228.906 260.816C229.148 261.255 229.475 261.595 229.886 261.838C230.306 262.071 230.777 262.188 231.3 262.188ZM245.394 255.636V263H244.484V257.176L241.502 262.104H241.054L238.072 257.162V263H237.162V255.636H238.17L241.292 260.942L244.47 255.636H245.394Z" fill="#1F2041" fill-opacity="0.75"/>
<path d="M23.4375 259.969C26.125 259.969 28.375 259.062 30.1875 257.25C32.0625 255.375 33 253.094 33 250.406C33 247.656 32.625 244.969 31.875 242.344C29.9375 244.906 26.8438 246.625 22.5938 247.5C18.8438 248.312 16.9688 250.375 16.9688 253.688C16.9688 255.438 17.5938 256.938 18.8438 258.188C20.0938 259.375 21.625 259.969 23.4375 259.969ZM27 223.312C31 226.562 34.1562 230.531 36.4688 235.219C38.8438 239.844 40.0312 244.781 40.0312 250.031C40.0312 254.406 38.4688 258.156 35.3438 261.281C32.2188 264.406 28.4375 265.969 24 265.969C19.5625 265.969 15.7812 264.406 12.6562 261.281C9.53125 258.156 7.96875 254.406 7.96875 250.031C7.96875 243.281 10.125 237.344 14.4375 232.219V232.969C14.4375 235.031 15.125 236.781 16.5 238.219C17.875 239.656 19.5938 240.375 21.6562 240.375C23.6562 240.375 25.2812 239.688 26.5312 238.312C27.8438 236.875 28.5 235.094 28.5 232.969C28.5 231.719 28.375 230.281 28.125 228.656C27.875 227.031 27.625 225.75 27.375 224.812L27 223.312Z" fill="url(#paint2_linear)"/>
<path d="M7.46826 7.63525C6.3859 7.63525 5.54785 8.04346 4.9541 8.85986C4.36035 9.67008 4.06348 10.8019 4.06348 12.2554C4.06348 15.2798 5.1984 16.792 7.46826 16.792C8.42074 16.792 9.57422 16.5539 10.9287 16.0776V18.4897C9.81543 18.9536 8.57227 19.1855 7.19922 19.1855C5.22624 19.1855 3.71712 18.5887 2.67188 17.395C1.62663 16.1951 1.104 14.4757 1.104 12.2368C1.104 10.8267 1.36068 9.59277 1.87402 8.53516C2.38737 7.47135 3.12337 6.65804 4.08203 6.09521C5.04688 5.5262 6.17562 5.2417 7.46826 5.2417C8.78564 5.2417 10.1092 5.56022 11.439 6.19727L10.5112 8.53516C10.0041 8.29395 9.49382 8.08366 8.98047 7.9043C8.46712 7.72493 7.96305 7.63525 7.46826 7.63525ZM23.1748 11.3462C23.1748 11.9028 22.9985 12.3791 22.646 12.7749C22.2996 13.1646 21.7863 13.415 21.106 13.5264V13.6006C21.842 13.6872 22.4233 13.9408 22.8501 14.3613C23.283 14.7757 23.4995 15.2891 23.4995 15.9014C23.4995 16.9095 23.1037 17.6795 22.312 18.2114C21.5203 18.7371 20.3885 19 18.9165 19H13.6006V8.62793H18.9165C20.339 8.62793 21.4028 8.85986 22.1079 9.32373C22.8192 9.78141 23.1748 10.4556 23.1748 11.3462ZM20.5679 15.7529C20.5679 15.3447 20.4102 15.0509 20.0947 14.8716C19.7793 14.686 19.3062 14.5933 18.6753 14.5933H16.4302V17.0425H18.731C19.3309 17.0425 19.7855 16.9312 20.0947 16.7085C20.4102 16.4797 20.5679 16.1611 20.5679 15.7529ZM20.3081 11.5688C20.3081 10.938 19.8071 10.6226 18.8052 10.6226H16.4302V12.6729H18.4805C19.0804 12.6729 19.535 12.5863 19.8442 12.4131C20.1535 12.2399 20.3081 11.9585 20.3081 11.5688ZM30.0493 10.4463C29.4494 10.4463 28.9793 10.638 28.6392 11.0215C28.299 11.3988 28.1042 11.9368 28.0547 12.6357H32.0254C32.013 11.9368 31.8306 11.3988 31.478 11.0215C31.1255 10.638 30.6493 10.4463 30.0493 10.4463ZM30.4482 19.1855C28.7783 19.1855 27.4733 18.7248 26.5332 17.8032C25.5931 16.8817 25.123 15.5767 25.123 13.8882C25.123 12.1502 25.556 10.8081 26.4219 9.86182C27.2939 8.90934 28.4969 8.43311 30.0308 8.43311C31.4966 8.43311 32.6377 8.85059 33.4541 9.68555C34.2705 10.5205 34.6787 11.674 34.6787 13.146V14.519H27.9897C28.0207 15.3231 28.2588 15.9508 28.7041 16.4023C29.1494 16.8538 29.7741 17.0796 30.5781 17.0796C31.2028 17.0796 31.7935 17.0146 32.3501 16.8848C32.9067 16.7549 33.4881 16.5477 34.0942 16.2632V18.4526C33.5994 18.7 33.0706 18.8825 32.5078 19C31.945 19.1237 31.2585 19.1855 30.4482 19.1855ZM43.4736 16.9312V10.7524H41.3491C41.1945 11.9028 40.9811 12.9945 40.709 14.0273C40.443 15.0602 40.0719 16.0282 39.5957 16.9312H43.4736ZM47.8247 22.7202H45.2827V19H38.3062V22.7202H35.7642V16.9312H36.6362C37.23 16.0096 37.7279 14.8468 38.1299 13.4429C38.5319 12.0389 38.8133 10.4339 38.9741 8.62793H46.3032V16.9312H47.8247V22.7202ZM53.8921 10.4463C53.2922 10.4463 52.8221 10.638 52.4819 11.0215C52.1418 11.3988 51.9469 11.9368 51.8975 12.6357H55.8682C55.8558 11.9368 55.6733 11.3988 55.3208 11.0215C54.9683 10.638 54.492 10.4463 53.8921 10.4463ZM54.291 19.1855C52.6211 19.1855 51.3161 18.7248 50.376 17.8032C49.4359 16.8817 48.9658 15.5767 48.9658 13.8882C48.9658 12.1502 49.3988 10.8081 50.2646 9.86182C51.1367 8.90934 52.3397 8.43311 53.8735 8.43311C55.3394 8.43311 56.4805 8.85059 57.2969 9.68555C58.1133 10.5205 58.5215 11.674 58.5215 13.146V14.519H51.8325C51.8634 15.3231 52.1016 15.9508 52.5469 16.4023C52.9922 16.8538 53.6169 17.0796 54.4209 17.0796C55.0456 17.0796 55.6362 17.0146 56.1929 16.8848C56.7495 16.7549 57.3309 16.5477 57.937 16.2632V18.4526C57.4422 18.7 56.9134 18.8825 56.3506 19C55.7878 19.1237 55.1012 19.1855 54.291 19.1855ZM63.6519 8.62793V12.6172H67.604V8.62793H70.4336V19H67.604V14.7231H63.6519V19H60.8223V8.62793H63.6519ZM76.1392 8.62793V12.7285C76.1392 13.1615 76.068 14.2191 75.9258 15.9014L80.7129 8.62793H84.1177V19H81.3809V14.8623C81.3809 14.1263 81.4427 13.0872 81.5664 11.7451L76.7979 19H73.4023V8.62793H76.1392ZM88.6729 19H85.6113L88.4038 14.8994C87.7358 14.6211 87.2287 14.2191 86.8823 13.6934C86.5422 13.1676 86.3721 12.5492 86.3721 11.8379C86.3721 10.8359 86.7463 10.0505 87.4946 9.48145C88.2492 8.91243 89.2759 8.62793 90.5747 8.62793H95.3989V19H92.5693V15.1406H91.0107L88.6729 19ZM89.146 11.8564C89.146 12.2894 89.3161 12.6296 89.6562 12.877C89.9964 13.1182 90.4417 13.2388 90.9922 13.2388H92.5693V10.6226H90.6304C90.1665 10.6226 89.8016 10.737 89.5356 10.9658C89.2759 11.1885 89.146 11.4854 89.146 11.8564ZM105.938 13.7954C105.938 14.8221 106.105 15.5983 106.439 16.124C106.779 16.6497 107.33 16.9126 108.09 16.9126C108.845 16.9126 109.386 16.6528 109.714 16.1333C110.048 15.6076 110.215 14.8283 110.215 13.7954C110.215 12.7687 110.048 11.9987 109.714 11.4854C109.38 10.972 108.833 10.7153 108.072 10.7153C107.317 10.7153 106.773 10.972 106.439 11.4854C106.105 11.9925 105.938 12.7625 105.938 13.7954ZM113.109 13.7954C113.109 15.4839 112.664 16.8044 111.773 17.7568C110.883 18.7093 109.643 19.1855 108.053 19.1855C107.057 19.1855 106.179 18.9691 105.418 18.5361C104.658 18.097 104.073 17.4692 103.665 16.6528C103.257 15.8364 103.053 14.884 103.053 13.7954C103.053 12.1007 103.495 10.7834 104.379 9.84326C105.264 8.90316 106.507 8.43311 108.109 8.43311C109.105 8.43311 109.983 8.64958 110.744 9.08252C111.504 9.51546 112.089 10.137 112.497 10.9473C112.905 11.7575 113.109 12.7069 113.109 13.7954ZM123.602 8.62793V12.6172H127.554V8.62793H130.384V19H127.554V14.7231H123.602V19H120.772V8.62793H123.602ZM135.607 13.7954C135.607 14.8221 135.774 15.5983 136.108 16.124C136.448 16.6497 136.999 16.9126 137.759 16.9126C138.514 16.9126 139.055 16.6528 139.383 16.1333C139.717 15.6076 139.884 14.8283 139.884 13.7954C139.884 12.7687 139.717 11.9987 139.383 11.4854C139.049 10.972 138.501 10.7153 137.741 10.7153C136.986 10.7153 136.442 10.972 136.108 11.4854C135.774 11.9925 135.607 12.7625 135.607 13.7954ZM142.778 13.7954C142.778 15.4839 142.333 16.8044 141.442 17.7568C140.552 18.7093 139.312 19.1855 137.722 19.1855C136.726 19.1855 135.848 18.9691 135.087 18.5361C134.327 18.097 133.742 17.4692 133.334 16.6528C132.926 15.8364 132.722 14.884 132.722 13.7954C132.722 12.1007 133.164 10.7834 134.048 9.84326C134.933 8.90316 136.176 8.43311 137.778 8.43311C138.774 8.43311 139.652 8.64958 140.413 9.08252C141.173 9.51546 141.758 10.137 142.166 10.9473C142.574 11.7575 142.778 12.7069 142.778 13.7954ZM158.188 19H155.544V10.8267L155.396 11.4019C155.062 12.7069 154.762 13.6934 154.496 14.3613L152.659 19H150.646L148.781 14.3242C148.515 13.6439 148.23 12.6883 147.927 11.4575L147.751 10.8267V19H145.116V8.62793H149.013L150.794 13.0532C150.979 13.5295 151.15 14.0768 151.304 14.6953C151.465 15.3138 151.573 15.8426 151.629 16.2817C151.833 15.354 151.991 14.6891 152.102 14.2871C152.22 13.8789 152.346 13.5047 152.482 13.1646C152.618 12.8244 153.234 11.3122 154.329 8.62793H158.188V19ZM165.461 10.4463C164.861 10.4463 164.391 10.638 164.051 11.0215C163.711 11.3988 163.516 11.9368 163.467 12.6357H167.438C167.425 11.9368 167.243 11.3988 166.89 11.0215C166.538 10.638 166.061 10.4463 165.461 10.4463ZM165.86 19.1855C164.19 19.1855 162.885 18.7248 161.945 17.8032C161.005 16.8817 160.535 15.5767 160.535 13.8882C160.535 12.1502 160.968 10.8081 161.834 9.86182C162.706 8.90934 163.909 8.43311 165.443 8.43311C166.909 8.43311 168.05 8.85059 168.866 9.68555C169.683 10.5205 170.091 11.674 170.091 13.146V14.519H163.402C163.433 15.3231 163.671 15.9508 164.116 16.4023C164.562 16.8538 165.186 17.0796 165.99 17.0796C166.615 17.0796 167.206 17.0146 167.762 16.8848C168.319 16.7549 168.9 16.5477 169.506 16.2632V18.4526C169.012 18.7 168.483 18.8825 167.92 19C167.357 19.1237 166.671 19.1855 165.86 19.1855ZM178.088 19.1855C176.869 19.1855 175.914 18.7433 175.221 17.8589H175.073C175.172 18.7248 175.221 19.2257 175.221 19.3618V23.5645H172.392V8.62793H174.692L175.091 9.97314H175.221C175.883 8.94645 176.863 8.43311 178.162 8.43311C179.387 8.43311 180.345 8.90625 181.038 9.85254C181.731 10.7988 182.077 12.1131 182.077 13.7954C182.077 14.9025 181.913 15.8643 181.585 16.6807C181.264 17.4971 180.803 18.1187 180.203 18.5454C179.603 18.9722 178.898 19.1855 178.088 19.1855ZM177.253 10.6968C176.554 10.6968 176.044 10.9132 175.722 11.3462C175.401 11.7729 175.234 12.4811 175.221 13.4707V13.7769C175.221 14.8901 175.385 15.688 175.713 16.1704C176.047 16.6528 176.573 16.894 177.29 16.894C178.558 16.894 179.192 15.8488 179.192 13.7583C179.192 12.7378 179.034 11.974 178.719 11.4668C178.41 10.9535 177.921 10.6968 177.253 10.6968ZM188.71 10.4463C188.111 10.4463 187.64 10.638 187.3 11.0215C186.96 11.3988 186.765 11.9368 186.716 12.6357H190.687C190.674 11.9368 190.492 11.3988 190.139 11.0215C189.787 10.638 189.31 10.4463 188.71 10.4463ZM189.109 19.1855C187.439 19.1855 186.134 18.7248 185.194 17.8032C184.254 16.8817 183.784 15.5767 183.784 13.8882C183.784 12.1502 184.217 10.8081 185.083 9.86182C185.955 8.90934 187.158 8.43311 188.692 8.43311C190.158 8.43311 191.299 8.85059 192.115 9.68555C192.932 10.5205 193.34 11.674 193.34 13.146V14.519H186.651C186.682 15.3231 186.92 15.9508 187.365 16.4023C187.811 16.8538 188.435 17.0796 189.239 17.0796C189.864 17.0796 190.455 17.0146 191.011 16.8848C191.568 16.7549 192.149 16.5477 192.755 16.2632V18.4526C192.261 18.7 191.732 18.8825 191.169 19C190.606 19.1237 189.92 19.1855 189.109 19.1855Z" fill="#1F2041"/>
<defs>
<linearGradient id="paint0_linear" x1="24" y1="44" x2="24" y2="92" gradientUnits="userSpaceOnUse">
<stop stop-color="#BC9CFF"/>
<stop offset="1" stop-color="#8BA4F9"/>
</linearGradient>
<linearGradient id="paint1_linear" x1="24" y1="133" x2="24" y2="181" gradientUnits="userSpaceOnUse">
<stop stop-color="#BC9CFF"/>
<stop offset="1" stop-color="#8BA4F9"/>
</linearGradient>
<linearGradient id="paint2_linear" x1="24" y1="222" x2="24" y2="270" gradientUnits="userSpaceOnUse">
<stop stop-color="#BC9CFF"/>
<stop offset="1" stop-color="#8BA4F9"/>
</linearGradient>
</defs>
</svg>
