<svg width="311" height="170" viewBox="0 0 311 170" fill="none" xmlns="http://www.w3.org/2000/svg">
<path d="M1.70703 5.43652H5.92822C7.85173 5.43652 9.24642 5.71175 10.1123 6.26221C10.9844 6.80648 11.4204 7.67546 11.4204 8.86914C11.4204 9.67936 11.2287 10.3442 10.8452 10.8638C10.4679 11.3833 9.96387 11.6956 9.33301 11.8008V11.8936C10.1927 12.0853 10.8112 12.444 11.1885 12.9697C11.5719 13.4954 11.7637 14.1943 11.7637 15.0664C11.7637 16.3034 11.3153 17.2682 10.4185 17.9609C9.52783 18.6536 8.31559 19 6.78174 19H1.70703V5.43652ZM4.58301 10.8081H6.25293C7.03223 10.8081 7.59505 10.6875 7.94141 10.4463C8.29395 10.2051 8.47021 9.80615 8.47021 9.24951C8.47021 8.72998 8.27848 8.35889 7.89502 8.13623C7.51774 7.90739 6.91781 7.79297 6.09521 7.79297H4.58301V10.8081ZM4.58301 13.0903V16.625H6.45703C7.2487 16.625 7.83317 16.4735 8.21045 16.1704C8.58773 15.8674 8.77637 15.4035 8.77637 14.7788C8.77637 13.6532 7.97233 13.0903 6.36426 13.0903H4.58301ZM23.6758 8.62793V19H20.8369V10.7524H17.0796V19H14.25V8.62793H23.6758ZM30.9399 10.4463C30.34 10.4463 29.87 10.638 29.5298 11.0215C29.1896 11.3988 28.9948 11.9368 28.9453 12.6357H32.916C32.9036 11.9368 32.7212 11.3988 32.3687 11.0215C32.0161 10.638 31.5399 10.4463 30.9399 10.4463ZM31.3389 19.1855C29.6689 19.1855 28.3639 18.7248 27.4238 17.8032C26.4837 16.8817 26.0137 15.5767 26.0137 13.8882C26.0137 12.1502 26.4466 10.8081 27.3125 9.86182C28.1846 8.90934 29.3875 8.43311 30.9214 8.43311C32.3872 8.43311 33.5283 8.85059 34.3447 9.68555C35.1611 10.5205 35.5693 11.674 35.5693 13.146V14.519H28.8804C28.9113 15.3231 29.1494 15.9508 29.5947 16.4023C30.04 16.8538 30.6647 17.0796 31.4688 17.0796C32.0934 17.0796 32.6841 17.0146 33.2407 16.8848C33.7974 16.7549 34.3787 16.5477 34.9849 16.2632V18.4526C34.4901 18.7 33.9613 18.8825 33.3984 19C32.8356 19.1237 32.1491 19.1855 31.3389 19.1855ZM40.3564 8.62793V12.4224C40.3564 13.3254 40.7739 13.7769 41.6089 13.7769C42.1532 13.7769 42.6572 13.715 43.1211 13.5913C43.5911 13.4676 44.0643 13.3068 44.5405 13.1089V8.62793H47.3701V19H44.5405V14.8809C43.8849 15.2272 43.2757 15.4715 42.7129 15.6138C42.1501 15.756 41.6058 15.8271 41.0801 15.8271C39.9482 15.8271 39.0731 15.5396 38.4546 14.9644C37.8361 14.383 37.5269 13.5573 37.5269 12.4873V8.62793H40.3564ZM56.9258 19L56.3784 17.5898H56.3042C55.828 18.1898 55.3363 18.6073 54.8291 18.8423C54.3281 19.0711 53.6725 19.1855 52.8623 19.1855C51.8665 19.1855 51.0811 18.901 50.5059 18.332C49.9368 17.763 49.6523 16.9528 49.6523 15.9014C49.6523 14.8005 50.0358 13.9902 50.8027 13.4707C51.5758 12.945 52.7386 12.6543 54.291 12.5986L56.0908 12.543V12.0884C56.0908 11.0369 55.5527 10.5112 54.4766 10.5112C53.6478 10.5112 52.6737 10.7617 51.5542 11.2627L50.6172 9.35156C51.8109 8.72689 53.1344 8.41455 54.5879 8.41455C55.9795 8.41455 57.0464 8.71761 57.7886 9.32373C58.5308 9.92985 58.9019 10.8514 58.9019 12.0884V19H56.9258ZM56.0908 14.1943L54.9961 14.2314C54.1735 14.2562 53.5612 14.4046 53.1592 14.6768C52.7572 14.9489 52.5562 15.3633 52.5562 15.9199C52.5562 16.7178 53.0138 17.1167 53.9292 17.1167C54.5848 17.1167 55.1074 16.9281 55.4971 16.5508C55.8929 16.1735 56.0908 15.6725 56.0908 15.0479V14.1943ZM70.4058 8.62793V10.7524H67.0103V19H64.1807V10.7524H60.7759V8.62793H70.4058ZM81.353 19H78.5234V10.7524H75.9165C75.7186 13.0718 75.4774 14.8035 75.1929 15.9478C74.9084 17.0858 74.528 17.9115 74.0518 18.4248C73.5817 18.932 72.9632 19.1855 72.1963 19.1855C71.5407 19.1855 71.0026 19.0866 70.582 18.8887V16.625C70.8851 16.7487 71.1882 16.8105 71.4912 16.8105C71.8438 16.8105 72.1375 16.557 72.3726 16.0498C72.6138 15.5426 72.8271 14.6984 73.0127 13.5171C73.2044 12.3296 73.3683 10.6999 73.5044 8.62793H81.353V19ZM88.6265 10.4463C88.0265 10.4463 87.5565 10.638 87.2163 11.0215C86.8761 11.3988 86.6813 11.9368 86.6318 12.6357H90.6025C90.5902 11.9368 90.4077 11.3988 90.0552 11.0215C89.7026 10.638 89.2264 10.4463 88.6265 10.4463ZM89.0254 19.1855C87.3555 19.1855 86.0505 18.7248 85.1104 17.8032C84.1702 16.8817 83.7002 15.5767 83.7002 13.8882C83.7002 12.1502 84.1331 10.8081 84.999 9.86182C85.8711 8.90934 87.0741 8.43311 88.6079 8.43311C90.0737 8.43311 91.2148 8.85059 92.0312 9.68555C92.8477 10.5205 93.2559 11.674 93.2559 13.146V14.519H86.5669C86.5978 15.3231 86.8359 15.9508 87.2812 16.4023C87.7266 16.8538 88.3512 17.0796 89.1553 17.0796C89.7799 17.0796 90.3706 17.0146 90.9272 16.8848C91.4839 16.7549 92.0653 16.5477 92.6714 16.2632V18.4526C92.1766 18.7 91.6478 18.8825 91.085 19C90.5221 19.1237 89.8356 19.1855 89.0254 19.1855ZM98.3862 8.62793V12.6172H102.338V8.62793H105.168V19H102.338V14.7231H98.3862V19H95.5566V8.62793H98.3862ZM110.874 8.62793V12.7285C110.874 13.1615 110.802 14.2191 110.66 15.9014L115.447 8.62793H118.852V19H116.115V14.8623C116.115 14.1263 116.177 13.0872 116.301 11.7451L111.532 19H108.137V8.62793H110.874ZM123.407 19H120.346L123.138 14.8994C122.47 14.6211 121.963 14.2191 121.617 13.6934C121.277 13.1676 121.106 12.5492 121.106 11.8379C121.106 10.8359 121.481 10.0505 122.229 9.48145C122.984 8.91243 124.01 8.62793 125.309 8.62793H130.133V19H127.304V15.1406H125.745L123.407 19ZM123.88 11.8564C123.88 12.2894 124.05 12.6296 124.391 12.877C124.731 13.1182 125.176 13.2388 125.727 13.2388H127.304V10.6226H125.365C124.901 10.6226 124.536 10.737 124.27 10.9658C124.01 11.1885 123.88 11.4854 123.88 11.8564ZM140.672 13.7954C140.672 14.8221 140.839 15.5983 141.173 16.124C141.514 16.6497 142.064 16.9126 142.825 16.9126C143.579 16.9126 144.12 16.6528 144.448 16.1333C144.782 15.6076 144.949 14.8283 144.949 13.7954C144.949 12.7687 144.782 11.9987 144.448 11.4854C144.114 10.972 143.567 10.7153 142.806 10.7153C142.052 10.7153 141.507 10.972 141.173 11.4854C140.839 11.9925 140.672 12.7625 140.672 13.7954ZM147.844 13.7954C147.844 15.4839 147.398 16.8044 146.508 17.7568C145.617 18.7093 144.377 19.1855 142.788 19.1855C141.792 19.1855 140.914 18.9691 140.153 18.5361C139.392 18.097 138.808 17.4692 138.399 16.6528C137.991 15.8364 137.787 14.884 137.787 13.7954C137.787 12.1007 138.229 10.7834 139.114 9.84326C139.998 8.90316 141.241 8.43311 142.843 8.43311C143.839 8.43311 144.717 8.64958 145.478 9.08252C146.239 9.51546 146.823 10.137 147.231 10.9473C147.64 11.7575 147.844 12.7069 147.844 13.7954ZM158.67 8.62793V10.7524H155.275V19H152.445V10.7524H149.041V8.62793H158.67ZM168.764 8.62793V12.6172H172.716V8.62793H175.546V19H172.716V14.7231H168.764V19H165.935V8.62793H168.764ZM180.769 13.7954C180.769 14.8221 180.936 15.5983 181.27 16.124C181.61 16.6497 182.161 16.9126 182.921 16.9126C183.676 16.9126 184.217 16.6528 184.545 16.1333C184.879 15.6076 185.046 14.8283 185.046 13.7954C185.046 12.7687 184.879 11.9987 184.545 11.4854C184.211 10.972 183.664 10.7153 182.903 10.7153C182.148 10.7153 181.604 10.972 181.27 11.4854C180.936 11.9925 180.769 12.7625 180.769 13.7954ZM187.94 13.7954C187.94 15.4839 187.495 16.8044 186.604 17.7568C185.714 18.7093 184.474 19.1855 182.884 19.1855C181.889 19.1855 181.01 18.9691 180.25 18.5361C179.489 18.097 178.904 17.4692 178.496 16.6528C178.088 15.8364 177.884 14.884 177.884 13.7954C177.884 12.1007 178.326 10.7834 179.21 9.84326C180.095 8.90316 181.338 8.43311 182.94 8.43311C183.936 8.43311 184.814 8.64958 185.575 9.08252C186.335 9.51546 186.92 10.137 187.328 10.9473C187.736 11.7575 187.94 12.7069 187.94 13.7954ZM203.35 19H200.706V10.8267L200.558 11.4019C200.224 12.7069 199.924 13.6934 199.658 14.3613L197.821 19H195.808L193.943 14.3242C193.677 13.6439 193.392 12.6883 193.089 11.4575L192.913 10.8267V19H190.278V8.62793H194.175L195.956 13.0532C196.142 13.5295 196.312 14.0768 196.466 14.6953C196.627 15.3138 196.735 15.8426 196.791 16.2817C196.995 15.354 197.153 14.6891 197.264 14.2871C197.382 13.8789 197.508 13.5047 197.645 13.1646C197.781 12.8244 198.396 11.3122 199.491 8.62793H203.35V19ZM210.624 10.4463C210.024 10.4463 209.554 10.638 209.213 11.0215C208.873 11.3988 208.678 11.9368 208.629 12.6357H212.6C212.587 11.9368 212.405 11.3988 212.052 11.0215C211.7 10.638 211.223 10.4463 210.624 10.4463ZM211.022 19.1855C209.353 19.1855 208.048 18.7248 207.107 17.8032C206.167 16.8817 205.697 15.5767 205.697 13.8882C205.697 12.1502 206.13 10.8081 206.996 9.86182C207.868 8.90934 209.071 8.43311 210.605 8.43311C212.071 8.43311 213.212 8.85059 214.028 9.68555C214.845 10.5205 215.253 11.674 215.253 13.146V14.519H208.564C208.595 15.3231 208.833 15.9508 209.278 16.4023C209.724 16.8538 210.348 17.0796 211.152 17.0796C211.777 17.0796 212.368 17.0146 212.924 16.8848C213.481 16.7549 214.062 16.5477 214.668 16.2632V18.4526C214.174 18.7 213.645 18.8825 213.082 19C212.519 19.1237 211.833 19.1855 211.022 19.1855ZM223.25 19.1855C222.032 19.1855 221.076 18.7433 220.383 17.8589H220.235C220.334 18.7248 220.383 19.2257 220.383 19.3618V23.5645H217.554V8.62793H219.854L220.253 9.97314H220.383C221.045 8.94645 222.025 8.43311 223.324 8.43311C224.549 8.43311 225.507 8.90625 226.2 9.85254C226.893 10.7988 227.239 12.1131 227.239 13.7954C227.239 14.9025 227.075 15.8643 226.748 16.6807C226.426 17.4971 225.965 18.1187 225.365 18.5454C224.765 18.9722 224.06 19.1855 223.25 19.1855ZM222.415 10.6968C221.716 10.6968 221.206 10.9132 220.884 11.3462C220.563 11.7729 220.396 12.4811 220.383 13.4707V13.7769C220.383 14.8901 220.547 15.688 220.875 16.1704C221.209 16.6528 221.735 16.894 222.452 16.894C223.72 16.894 224.354 15.8488 224.354 13.7583C224.354 12.7378 224.196 11.974 223.881 11.4668C223.572 10.9535 223.083 10.6968 222.415 10.6968ZM236.164 19L235.617 17.5898H235.542C235.066 18.1898 234.575 18.6073 234.067 18.8423C233.566 19.0711 232.911 19.1855 232.101 19.1855C231.105 19.1855 230.319 18.901 229.744 18.332C229.175 17.763 228.891 16.9528 228.891 15.9014C228.891 14.8005 229.274 13.9902 230.041 13.4707C230.814 12.945 231.977 12.6543 233.529 12.5986L235.329 12.543V12.0884C235.329 11.0369 234.791 10.5112 233.715 10.5112C232.886 10.5112 231.912 10.7617 230.792 11.2627L229.855 9.35156C231.049 8.72689 232.373 8.41455 233.826 8.41455C235.218 8.41455 236.285 8.71761 237.027 9.32373C237.769 9.92985 238.14 10.8514 238.14 12.0884V19H236.164ZM235.329 14.1943L234.234 14.2314C233.412 14.2562 232.799 14.4046 232.397 14.6768C231.995 14.9489 231.794 15.3633 231.794 15.9199C231.794 16.7178 232.252 17.1167 233.167 17.1167C233.823 17.1167 234.346 16.9281 234.735 16.5508C235.131 16.1735 235.329 15.6725 235.329 15.0479V14.1943Z" fill="#1F2041"/>
<path d="M172.462 82.946C173.143 83.086 173.661 83.3613 174.016 83.772C174.371 84.1733 174.548 84.7007 174.548 85.354C174.548 86.2033 174.245 86.8567 173.638 87.314C173.041 87.7713 172.159 88 170.992 88H166.652V78.2H170.726C171.771 78.2 172.588 78.4147 173.176 78.844C173.764 79.2733 174.058 79.894 174.058 80.706C174.058 81.2567 173.918 81.7233 173.638 82.106C173.358 82.4793 172.966 82.7593 172.462 82.946ZM167.674 82.638H170.67C171.426 82.638 172.005 82.484 172.406 82.176C172.817 81.868 173.022 81.42 173.022 80.832C173.022 80.244 172.817 79.796 172.406 79.488C172.005 79.18 171.426 79.026 170.67 79.026H167.674V82.638ZM170.992 87.174C172.681 87.174 173.526 86.544 173.526 85.284C173.526 84.052 172.681 83.436 170.992 83.436H167.674V87.174H170.992ZM183.34 84.626H177.18C177.236 85.3913 177.53 86.012 178.062 86.488C178.594 86.9547 179.266 87.188 180.078 87.188C180.536 87.188 180.956 87.1087 181.338 86.95C181.721 86.782 182.052 86.5393 182.332 86.222L182.892 86.866C182.566 87.258 182.155 87.5567 181.66 87.762C181.175 87.9673 180.638 88.07 180.05 88.07C179.294 88.07 178.622 87.9113 178.034 87.594C177.456 87.2673 177.003 86.8193 176.676 86.25C176.35 85.6807 176.186 85.0367 176.186 84.318C176.186 83.5993 176.34 82.9553 176.648 82.386C176.966 81.8167 177.395 81.3733 177.936 81.056C178.487 80.7387 179.103 80.58 179.784 80.58C180.466 80.58 181.077 80.7387 181.618 81.056C182.16 81.3733 182.584 81.8167 182.892 82.386C183.2 82.946 183.354 83.59 183.354 84.318L183.34 84.626ZM179.784 81.434C179.075 81.434 178.478 81.6627 177.992 82.12C177.516 82.568 177.246 83.156 177.18 83.884H182.402C182.337 83.156 182.062 82.568 181.576 82.12C181.1 81.6627 180.503 81.434 179.784 81.434ZM191.424 80.636V88H190.43V81.518H186.902L186.804 83.338C186.73 84.8687 186.552 86.0447 186.272 86.866C185.992 87.6873 185.493 88.098 184.774 88.098C184.578 88.098 184.34 88.0607 184.06 87.986L184.13 87.132C184.298 87.1693 184.415 87.188 184.48 87.188C184.863 87.188 185.152 87.0107 185.348 86.656C185.544 86.3013 185.675 85.8627 185.74 85.34C185.806 84.8173 185.862 84.1267 185.908 83.268L186.034 80.636H191.424ZM194.25 80.636H195.244V86.488L200.158 80.636H201.04V88H200.046V82.148L195.146 88H194.25V80.636ZM206.563 84.724H204.883V88H203.889V80.636H204.883V83.87H206.577L209.167 80.636H210.245L207.347 84.206L210.455 88H209.279L206.563 84.724ZM214.802 88.07C214.092 88.07 213.453 87.9113 212.884 87.594C212.314 87.2673 211.866 86.8193 211.54 86.25C211.213 85.6807 211.05 85.0367 211.05 84.318C211.05 83.5993 211.213 82.9553 211.54 82.386C211.866 81.8167 212.314 81.3733 212.884 81.056C213.453 80.7387 214.092 80.58 214.802 80.58C215.511 80.58 216.15 80.7387 216.72 81.056C217.289 81.3733 217.732 81.8167 218.05 82.386C218.376 82.9553 218.54 83.5993 218.54 84.318C218.54 85.0367 218.376 85.6807 218.05 86.25C217.732 86.8193 217.289 87.2673 216.72 87.594C216.15 87.9113 215.511 88.07 214.802 88.07ZM214.802 87.188C215.324 87.188 215.791 87.0713 216.202 86.838C216.622 86.5953 216.948 86.2547 217.182 85.816C217.415 85.3773 217.532 84.878 217.532 84.318C217.532 83.758 217.415 83.2587 217.182 82.82C216.948 82.3813 216.622 82.0453 216.202 81.812C215.791 81.5693 215.324 81.448 214.802 81.448C214.279 81.448 213.808 81.5693 213.388 81.812C212.977 82.0453 212.65 82.3813 212.408 82.82C212.174 83.2587 212.058 83.758 212.058 84.318C212.058 84.878 212.174 85.3773 212.408 85.816C212.65 86.2547 212.977 86.5953 213.388 86.838C213.808 87.0713 214.279 87.188 214.802 87.188ZM226.643 80.636V88H225.649V81.518H222.121L222.023 83.338C221.948 84.8687 221.771 86.0447 221.491 86.866C221.211 87.6873 220.712 88.098 219.993 88.098C219.797 88.098 219.559 88.0607 219.279 87.986L219.349 87.132C219.517 87.1693 219.634 87.188 219.699 87.188C220.082 87.188 220.371 87.0107 220.567 86.656C220.763 86.3013 220.894 85.8627 220.959 85.34C221.024 84.8173 221.08 84.1267 221.127 83.268L221.253 80.636H226.643ZM235.909 84.626H229.749C229.805 85.3913 230.099 86.012 230.631 86.488C231.163 86.9547 231.835 87.188 232.647 87.188C233.104 87.188 233.524 87.1087 233.907 86.95C234.289 86.782 234.621 86.5393 234.901 86.222L235.461 86.866C235.134 87.258 234.723 87.5567 234.229 87.762C233.743 87.9673 233.207 88.07 232.619 88.07C231.863 88.07 231.191 87.9113 230.603 87.594C230.024 87.2673 229.571 86.8193 229.245 86.25C228.918 85.6807 228.755 85.0367 228.755 84.318C228.755 83.5993 228.909 82.9553 229.217 82.386C229.534 81.8167 229.963 81.3733 230.505 81.056C231.055 80.7387 231.671 80.58 232.353 80.58C233.034 80.58 233.645 80.7387 234.187 81.056C234.728 81.3733 235.153 81.8167 235.461 82.386C235.769 82.946 235.923 83.59 235.923 84.318L235.909 84.626ZM232.353 81.434C231.643 81.434 231.046 81.6627 230.561 82.12C230.085 82.568 229.814 83.156 229.749 83.884H234.971C234.905 83.156 234.63 82.568 234.145 82.12C233.669 81.6627 233.071 81.434 232.353 81.434ZM244.731 80.636V88H243.737V81.518H239.117V88H238.123V80.636H244.731ZM247.557 80.636H248.551V83.898H253.185V80.636H254.179V88H253.185V84.752H248.551V88H247.557V80.636ZM260.042 88.07C259.333 88.07 258.693 87.9113 258.124 87.594C257.555 87.2673 257.107 86.8193 256.78 86.25C256.453 85.6807 256.29 85.0367 256.29 84.318C256.29 83.5993 256.453 82.9553 256.78 82.386C257.107 81.8167 257.555 81.3733 258.124 81.056C258.693 80.7387 259.333 80.58 260.042 80.58C260.751 80.58 261.391 80.7387 261.96 81.056C262.529 81.3733 262.973 81.8167 263.29 82.386C263.617 82.9553 263.78 83.5993 263.78 84.318C263.78 85.0367 263.617 85.6807 263.29 86.25C262.973 86.8193 262.529 87.2673 261.96 87.594C261.391 87.9113 260.751 88.07 260.042 88.07ZM260.042 87.188C260.565 87.188 261.031 87.0713 261.442 86.838C261.862 86.5953 262.189 86.2547 262.422 85.816C262.655 85.3773 262.772 84.878 262.772 84.318C262.772 83.758 262.655 83.2587 262.422 82.82C262.189 82.3813 261.862 82.0453 261.442 81.812C261.031 81.5693 260.565 81.448 260.042 81.448C259.519 81.448 259.048 81.5693 258.628 81.812C258.217 82.0453 257.891 82.3813 257.648 82.82C257.415 83.2587 257.298 83.758 257.298 84.318C257.298 84.878 257.415 85.3773 257.648 85.816C257.891 86.2547 258.217 86.5953 258.628 86.838C259.048 87.0713 259.519 87.188 260.042 87.188ZM166.75 102.2L169.536 106.078L172.308 102.2H173.526L170.18 106.904L173.792 112H172.574L169.536 107.786L166.498 112H165.308L168.906 106.946L165.56 102.2H166.75ZM178.134 112.07C177.424 112.07 176.785 111.911 176.216 111.594C175.646 111.267 175.198 110.819 174.872 110.25C174.545 109.681 174.382 109.037 174.382 108.318C174.382 107.599 174.545 106.955 174.872 106.386C175.198 105.817 175.646 105.373 176.216 105.056C176.785 104.739 177.424 104.58 178.134 104.58C178.843 104.58 179.482 104.739 180.052 105.056C180.621 105.373 181.064 105.817 181.382 106.386C181.708 106.955 181.872 107.599 181.872 108.318C181.872 109.037 181.708 109.681 181.382 110.25C181.064 110.819 180.621 111.267 180.052 111.594C179.482 111.911 178.843 112.07 178.134 112.07ZM178.134 111.188C178.656 111.188 179.123 111.071 179.534 110.838C179.954 110.595 180.28 110.255 180.514 109.816C180.747 109.377 180.864 108.878 180.864 108.318C180.864 107.758 180.747 107.259 180.514 106.82C180.28 106.381 179.954 106.045 179.534 105.812C179.123 105.569 178.656 105.448 178.134 105.448C177.611 105.448 177.14 105.569 176.72 105.812C176.309 106.045 175.982 106.381 175.74 106.82C175.506 107.259 175.39 107.758 175.39 108.318C175.39 108.878 175.506 109.377 175.74 109.816C175.982 110.255 176.309 110.595 176.72 110.838C177.14 111.071 177.611 111.188 178.134 111.188ZM187.79 104.58C188.481 104.58 189.106 104.739 189.666 105.056C190.226 105.364 190.665 105.803 190.982 106.372C191.299 106.941 191.458 107.59 191.458 108.318C191.458 109.055 191.299 109.709 190.982 110.278C190.665 110.847 190.226 111.291 189.666 111.608C189.115 111.916 188.49 112.07 187.79 112.07C187.193 112.07 186.651 111.949 186.166 111.706C185.69 111.454 185.298 111.09 184.99 110.614V114.716H183.996V104.636H184.948V106.092C185.247 105.607 185.639 105.233 186.124 104.972C186.619 104.711 187.174 104.58 187.79 104.58ZM187.72 111.188C188.233 111.188 188.7 111.071 189.12 110.838C189.54 110.595 189.867 110.255 190.1 109.816C190.343 109.377 190.464 108.878 190.464 108.318C190.464 107.758 190.343 107.263 190.1 106.834C189.867 106.395 189.54 106.055 189.12 105.812C188.7 105.569 188.233 105.448 187.72 105.448C187.197 105.448 186.726 105.569 186.306 105.812C185.895 106.055 185.569 106.395 185.326 106.834C185.093 107.263 184.976 107.758 184.976 108.318C184.976 108.878 185.093 109.377 185.326 109.816C185.569 110.255 185.895 110.595 186.306 110.838C186.726 111.071 187.197 111.188 187.72 111.188ZM196.632 112.07C195.922 112.07 195.283 111.911 194.714 111.594C194.144 111.267 193.696 110.819 193.37 110.25C193.043 109.681 192.88 109.037 192.88 108.318C192.88 107.599 193.043 106.955 193.37 106.386C193.696 105.817 194.144 105.373 194.714 105.056C195.283 104.739 195.922 104.58 196.632 104.58C197.341 104.58 197.98 104.739 198.55 105.056C199.119 105.373 199.562 105.817 199.88 106.386C200.206 106.955 200.37 107.599 200.37 108.318C200.37 109.037 200.206 109.681 199.88 110.25C199.562 110.819 199.119 111.267 198.55 111.594C197.98 111.911 197.341 112.07 196.632 112.07ZM196.632 111.188C197.154 111.188 197.621 111.071 198.032 110.838C198.452 110.595 198.778 110.255 199.012 109.816C199.245 109.377 199.362 108.878 199.362 108.318C199.362 107.758 199.245 107.259 199.012 106.82C198.778 106.381 198.452 106.045 198.032 105.812C197.621 105.569 197.154 105.448 196.632 105.448C196.109 105.448 195.638 105.569 195.218 105.812C194.807 106.045 194.48 106.381 194.238 106.82C194.004 107.259 193.888 107.758 193.888 108.318C193.888 108.878 194.004 109.377 194.238 109.816C194.48 110.255 194.807 110.595 195.218 110.838C195.638 111.071 196.109 111.188 196.632 111.188ZM212.658 104.636V112H202.494V104.636H203.488V111.132H207.1V104.636H208.094V111.132H211.664V104.636H212.658ZM218.534 112.07C217.825 112.07 217.185 111.911 216.616 111.594C216.047 111.267 215.599 110.819 215.272 110.25C214.945 109.681 214.782 109.037 214.782 108.318C214.782 107.599 214.945 106.955 215.272 106.386C215.599 105.817 216.047 105.373 216.616 105.056C217.185 104.739 217.825 104.58 218.534 104.58C219.243 104.58 219.883 104.739 220.452 105.056C221.021 105.373 221.465 105.817 221.782 106.386C222.109 106.955 222.272 107.599 222.272 108.318C222.272 109.037 222.109 109.681 221.782 110.25C221.465 110.819 221.021 111.267 220.452 111.594C219.883 111.911 219.243 112.07 218.534 112.07ZM218.534 111.188C219.057 111.188 219.523 111.071 219.934 110.838C220.354 110.595 220.681 110.255 220.914 109.816C221.147 109.377 221.264 108.878 221.264 108.318C221.264 107.758 221.147 107.259 220.914 106.82C220.681 106.381 220.354 106.045 219.934 105.812C219.523 105.569 219.057 105.448 218.534 105.448C218.011 105.448 217.54 105.569 217.12 105.812C216.709 106.045 216.383 106.381 216.14 106.82C215.907 107.259 215.79 107.758 215.79 108.318C215.79 108.878 215.907 109.377 216.14 109.816C216.383 110.255 216.709 110.595 217.12 110.838C217.54 111.071 218.011 111.188 218.534 111.188ZM174.352 126.2L169.9 134.446C169.583 135.034 169.209 135.473 168.78 135.762C168.36 136.042 167.898 136.182 167.394 136.182C167.021 136.182 166.619 136.093 166.19 135.916L166.484 135.076C166.82 135.207 167.128 135.272 167.408 135.272C168.052 135.272 168.579 134.922 168.99 134.222L169.27 133.746L165.294 126.2H166.4L169.816 132.836L173.316 126.2H174.352ZM182.619 135.132V137.778H181.681V136H175.087V137.778H174.149V135.132H174.569C175.064 135.104 175.4 134.74 175.577 134.04C175.755 133.34 175.876 132.36 175.941 131.1L176.039 128.636H181.471V135.132H182.619ZM176.851 131.156C176.805 132.201 176.716 133.065 176.585 133.746C176.455 134.418 176.221 134.88 175.885 135.132H180.477V129.518H176.935L176.851 131.156ZM187.595 136.07C186.885 136.07 186.246 135.911 185.677 135.594C185.107 135.267 184.659 134.819 184.333 134.25C184.006 133.681 183.843 133.037 183.843 132.318C183.843 131.599 184.006 130.955 184.333 130.386C184.659 129.817 185.107 129.373 185.677 129.056C186.246 128.739 186.885 128.58 187.595 128.58C188.304 128.58 188.943 128.739 189.513 129.056C190.082 129.373 190.525 129.817 190.843 130.386C191.169 130.955 191.333 131.599 191.333 132.318C191.333 133.037 191.169 133.681 190.843 134.25C190.525 134.819 190.082 135.267 189.513 135.594C188.943 135.911 188.304 136.07 187.595 136.07ZM187.595 135.188C188.117 135.188 188.584 135.071 188.995 134.838C189.415 134.595 189.741 134.255 189.975 133.816C190.208 133.377 190.325 132.878 190.325 132.318C190.325 131.758 190.208 131.259 189.975 130.82C189.741 130.381 189.415 130.045 188.995 129.812C188.584 129.569 188.117 129.448 187.595 129.448C187.072 129.448 186.601 129.569 186.181 129.812C185.77 130.045 185.443 130.381 185.201 130.82C184.967 131.259 184.851 131.758 184.851 132.318C184.851 132.878 184.967 133.377 185.201 133.816C185.443 134.255 185.77 134.595 186.181 134.838C186.601 135.071 187.072 135.188 187.595 135.188ZM198.147 132.192C199.146 132.425 199.645 133.027 199.645 133.998C199.645 134.642 199.407 135.137 198.931 135.482C198.455 135.827 197.746 136 196.803 136H193.457V128.636H196.705C197.545 128.636 198.203 128.799 198.679 129.126C199.155 129.453 199.393 129.919 199.393 130.526C199.393 130.927 199.281 131.273 199.057 131.562C198.842 131.842 198.539 132.052 198.147 132.192ZM194.423 131.912H196.635C197.204 131.912 197.638 131.805 197.937 131.59C198.245 131.375 198.399 131.063 198.399 130.652C198.399 130.241 198.245 129.933 197.937 129.728C197.638 129.523 197.204 129.42 196.635 129.42H194.423V131.912ZM196.761 135.216C197.396 135.216 197.872 135.113 198.189 134.908C198.506 134.703 198.665 134.381 198.665 133.942C198.665 133.503 198.52 133.181 198.231 132.976C197.942 132.761 197.484 132.654 196.859 132.654H194.423V135.216H196.761ZM207.995 128.636V136H207.001V129.518H203.473L203.375 131.338C203.3 132.869 203.123 134.045 202.843 134.866C202.563 135.687 202.063 136.098 201.345 136.098C201.149 136.098 200.911 136.061 200.631 135.986L200.701 135.132C200.869 135.169 200.985 135.188 201.051 135.188C201.433 135.188 201.723 135.011 201.919 134.656C202.115 134.301 202.245 133.863 202.311 133.34C202.376 132.817 202.432 132.127 202.479 131.268L202.605 128.636H207.995ZM217.26 132.626H211.1C211.156 133.391 211.45 134.012 211.982 134.488C212.514 134.955 213.186 135.188 213.998 135.188C214.456 135.188 214.876 135.109 215.258 134.95C215.641 134.782 215.972 134.539 216.252 134.222L216.812 134.866C216.486 135.258 216.075 135.557 215.58 135.762C215.095 135.967 214.558 136.07 213.97 136.07C213.214 136.07 212.542 135.911 211.954 135.594C211.376 135.267 210.923 134.819 210.596 134.25C210.27 133.681 210.106 133.037 210.106 132.318C210.106 131.599 210.26 130.955 210.568 130.386C210.886 129.817 211.315 129.373 211.856 129.056C212.407 128.739 213.023 128.58 213.704 128.58C214.386 128.58 214.997 128.739 215.538 129.056C216.08 129.373 216.504 129.817 216.812 130.386C217.12 130.946 217.274 131.59 217.274 132.318L217.26 132.626ZM213.704 129.434C212.995 129.434 212.398 129.663 211.912 130.12C211.436 130.568 211.166 131.156 211.1 131.884H216.322C216.257 131.156 215.982 130.568 215.496 130.12C215.02 129.663 214.423 129.434 213.704 129.434ZM224.326 129.518H221.54V136H220.546V129.518H217.76V128.636H224.326V129.518ZM230.454 132.192C231.452 132.425 231.952 133.027 231.952 133.998C231.952 134.642 231.714 135.137 231.238 135.482C230.762 135.827 230.052 136 229.11 136H225.764V128.636H229.012C229.852 128.636 230.51 128.799 230.986 129.126C231.462 129.453 231.7 129.919 231.7 130.526C231.7 130.927 231.588 131.273 231.364 131.562C231.149 131.842 230.846 132.052 230.454 132.192ZM226.73 131.912H228.942C229.511 131.912 229.945 131.805 230.244 131.59C230.552 131.375 230.706 131.063 230.706 130.652C230.706 130.241 230.552 129.933 230.244 129.728C229.945 129.523 229.511 129.42 228.942 129.42H226.73V131.912ZM229.068 135.216C229.702 135.216 230.178 135.113 230.496 134.908C230.813 134.703 230.972 134.381 230.972 133.942C230.972 133.503 230.827 133.181 230.538 132.976C230.248 132.761 229.791 132.654 229.166 132.654H226.73V135.216H229.068ZM237.319 136.07C236.61 136.07 235.971 135.911 235.401 135.594C234.832 135.267 234.384 134.819 234.057 134.25C233.731 133.681 233.567 133.037 233.567 132.318C233.567 131.599 233.731 130.955 234.057 130.386C234.384 129.817 234.832 129.373 235.401 129.056C235.971 128.739 236.61 128.58 237.319 128.58C238.029 128.58 238.668 128.739 239.237 129.056C239.807 129.373 240.25 129.817 240.567 130.386C240.894 130.955 241.057 131.599 241.057 132.318C241.057 133.037 240.894 133.681 240.567 134.25C240.25 134.819 239.807 135.267 239.237 135.594C238.668 135.911 238.029 136.07 237.319 136.07ZM237.319 135.188C237.842 135.188 238.309 135.071 238.719 134.838C239.139 134.595 239.466 134.255 239.699 133.816C239.933 133.377 240.049 132.878 240.049 132.318C240.049 131.758 239.933 131.259 239.699 130.82C239.466 130.381 239.139 130.045 238.719 129.812C238.309 129.569 237.842 129.448 237.319 129.448C236.797 129.448 236.325 129.569 235.905 129.812C235.495 130.045 235.168 130.381 234.925 130.82C234.692 131.259 234.575 131.758 234.575 132.318C234.575 132.878 234.692 133.377 234.925 133.816C235.168 134.255 235.495 134.595 235.905 134.838C236.325 135.071 236.797 135.188 237.319 135.188ZM246.976 128.58C247.666 128.58 248.292 128.739 248.852 129.056C249.412 129.364 249.85 129.803 250.168 130.372C250.485 130.941 250.644 131.59 250.644 132.318C250.644 133.055 250.485 133.709 250.168 134.278C249.85 134.847 249.412 135.291 248.852 135.608C248.301 135.916 247.676 136.07 246.976 136.07C246.378 136.07 245.837 135.949 245.352 135.706C244.876 135.454 244.484 135.09 244.176 134.614V138.716H243.182V128.636H244.134V130.092C244.432 129.607 244.824 129.233 245.31 128.972C245.804 128.711 246.36 128.58 246.976 128.58ZM246.906 135.188C247.419 135.188 247.886 135.071 248.306 134.838C248.726 134.595 249.052 134.255 249.286 133.816C249.528 133.377 249.65 132.878 249.65 132.318C249.65 131.758 249.528 131.263 249.286 130.834C249.052 130.395 248.726 130.055 248.306 129.812C247.886 129.569 247.419 129.448 246.906 129.448C246.383 129.448 245.912 129.569 245.492 129.812C245.081 130.055 244.754 130.395 244.512 130.834C244.278 131.263 244.162 131.758 244.162 132.318C244.162 132.878 244.278 133.377 244.512 133.816C244.754 134.255 245.081 134.595 245.492 134.838C245.912 135.071 246.383 135.188 246.906 135.188ZM252.779 128.636H253.773V134.488L258.687 128.636H259.569V136H258.575V130.148L253.675 136H252.779V128.636ZM267.598 129.518H264.812V136H263.818V129.518H261.032V128.636H267.598V129.518ZM275.133 132.626H268.973C269.029 133.391 269.323 134.012 269.855 134.488C270.387 134.955 271.059 135.188 271.871 135.188C272.329 135.188 272.749 135.109 273.131 134.95C273.514 134.782 273.845 134.539 274.125 134.222L274.685 134.866C274.359 135.258 273.948 135.557 273.453 135.762C272.968 135.967 272.431 136.07 271.843 136.07C271.087 136.07 270.415 135.911 269.827 135.594C269.249 135.267 268.796 134.819 268.469 134.25C268.143 133.681 267.979 133.037 267.979 132.318C267.979 131.599 268.133 130.955 268.441 130.386C268.759 129.817 269.188 129.373 269.729 129.056C270.28 128.739 270.896 128.58 271.577 128.58C272.259 128.58 272.87 128.739 273.411 129.056C273.953 129.373 274.377 129.817 274.685 130.386C274.993 130.946 275.147 131.59 275.147 132.318L275.133 132.626ZM271.577 129.434C270.868 129.434 270.271 129.663 269.785 130.12C269.309 130.568 269.039 131.156 268.973 131.884H274.195C274.13 131.156 273.855 130.568 273.369 130.12C272.893 129.663 272.296 129.434 271.577 129.434ZM283.217 128.636V136H282.223V129.518H278.695L278.597 131.338C278.523 132.869 278.345 134.045 278.065 134.866C277.785 135.687 277.286 136.098 276.567 136.098C276.371 136.098 276.133 136.061 275.853 135.986L275.923 135.132C276.091 135.169 276.208 135.188 276.273 135.188C276.656 135.188 276.945 135.011 277.141 134.656C277.337 134.301 277.468 133.863 277.533 133.34C277.599 132.817 277.655 132.127 277.701 131.268L277.827 128.636H283.217ZM289.207 131.24C290.131 131.249 290.831 131.455 291.307 131.856C291.792 132.257 292.035 132.836 292.035 133.592C292.035 134.376 291.774 134.978 291.251 135.398C290.738 135.818 289.991 136.023 289.011 136.014L286.043 136V128.636H287.037V131.212L289.207 131.24ZM288.955 135.258C289.636 135.267 290.15 135.132 290.495 134.852C290.85 134.563 291.027 134.143 291.027 133.592C291.027 133.051 290.854 132.649 290.509 132.388C290.164 132.127 289.646 131.991 288.955 131.982L287.037 131.954V135.23L288.955 135.258ZM293.932 128.636H294.926V131.898H299.56V128.636H300.554V136H299.56V132.752H294.926V136H293.932V128.636ZM306.417 136.07C305.708 136.07 305.068 135.911 304.499 135.594C303.93 135.267 303.482 134.819 303.155 134.25C302.828 133.681 302.665 133.037 302.665 132.318C302.665 131.599 302.828 130.955 303.155 130.386C303.482 129.817 303.93 129.373 304.499 129.056C305.068 128.739 305.708 128.58 306.417 128.58C307.126 128.58 307.766 128.739 308.335 129.056C308.904 129.373 309.348 129.817 309.665 130.386C309.992 130.955 310.155 131.599 310.155 132.318C310.155 133.037 309.992 133.681 309.665 134.25C309.348 134.819 308.904 135.267 308.335 135.594C307.766 135.911 307.126 136.07 306.417 136.07ZM306.417 135.188C306.94 135.188 307.406 135.071 307.817 134.838C308.237 134.595 308.564 134.255 308.797 133.816C309.03 133.377 309.147 132.878 309.147 132.318C309.147 131.758 309.03 131.259 308.797 130.82C308.564 130.381 308.237 130.045 307.817 129.812C307.406 129.569 306.94 129.448 306.417 129.448C305.894 129.448 305.423 129.569 305.003 129.812C304.592 130.045 304.266 130.381 304.023 130.82C303.79 131.259 303.673 131.758 303.673 132.318C303.673 132.878 303.79 133.377 304.023 133.816C304.266 134.255 304.592 134.595 305.003 134.838C305.423 135.071 305.894 135.188 306.417 135.188ZM170.32 150.2C171.571 150.2 172.551 150.499 173.26 151.096C173.969 151.693 174.324 152.515 174.324 153.56C174.324 154.605 173.969 155.427 173.26 156.024C172.551 156.612 171.571 156.906 170.32 156.906H167.688V160H166.652V150.2H170.32ZM170.292 155.996C171.263 155.996 172.005 155.786 172.518 155.366C173.031 154.937 173.288 154.335 173.288 153.56C173.288 152.767 173.031 152.16 172.518 151.74C172.005 151.311 171.263 151.096 170.292 151.096H167.688V155.996H170.292ZM178.682 152.58C179.644 152.58 180.381 152.823 180.894 153.308C181.408 153.784 181.664 154.493 181.664 155.436V160H180.712V158.852C180.488 159.235 180.157 159.533 179.718 159.748C179.289 159.963 178.776 160.07 178.178 160.07C177.357 160.07 176.704 159.874 176.218 159.482C175.733 159.09 175.49 158.572 175.49 157.928C175.49 157.303 175.714 156.799 176.162 156.416C176.62 156.033 177.343 155.842 178.332 155.842H180.67V155.394C180.67 154.759 180.493 154.279 180.138 153.952C179.784 153.616 179.266 153.448 178.584 153.448C178.118 153.448 177.67 153.527 177.24 153.686C176.811 153.835 176.442 154.045 176.134 154.316L175.686 153.574C176.06 153.257 176.508 153.014 177.03 152.846C177.553 152.669 178.104 152.58 178.682 152.58ZM178.332 159.286C178.892 159.286 179.373 159.16 179.774 158.908C180.176 158.647 180.474 158.273 180.67 157.788V156.584H178.36C177.1 156.584 176.47 157.023 176.47 157.9C176.47 158.329 176.634 158.67 176.96 158.922C177.287 159.165 177.744 159.286 178.332 159.286ZM187.744 156.164C188.267 156.285 188.668 156.495 188.948 156.794C189.237 157.093 189.382 157.457 189.382 157.886C189.382 158.315 189.233 158.698 188.934 159.034C188.645 159.37 188.248 159.631 187.744 159.818C187.24 159.995 186.685 160.084 186.078 160.084C185.546 160.084 185.023 160.009 184.51 159.86C183.997 159.701 183.549 159.473 183.166 159.174L183.502 158.432C183.838 158.684 184.23 158.88 184.678 159.02C185.126 159.16 185.579 159.23 186.036 159.23C186.717 159.23 187.273 159.104 187.702 158.852C188.141 158.591 188.36 158.241 188.36 157.802C188.36 157.41 188.183 157.107 187.828 156.892C187.473 156.668 186.988 156.556 186.372 156.556H185.112V155.828H186.316C186.867 155.828 187.31 155.725 187.646 155.52C187.982 155.305 188.15 155.021 188.15 154.666C188.15 154.274 187.959 153.966 187.576 153.742C187.203 153.518 186.713 153.406 186.106 153.406C185.313 153.406 184.529 153.607 183.754 154.008L183.474 153.238C184.351 152.781 185.261 152.552 186.204 152.552C186.764 152.552 187.268 152.636 187.716 152.804C188.173 152.963 188.528 153.191 188.78 153.49C189.041 153.789 189.172 154.134 189.172 154.526C189.172 154.899 189.041 155.231 188.78 155.52C188.528 155.809 188.183 156.024 187.744 156.164ZM194.677 160.07C193.967 160.07 193.328 159.911 192.759 159.594C192.189 159.267 191.741 158.819 191.415 158.25C191.088 157.681 190.925 157.037 190.925 156.318C190.925 155.599 191.088 154.955 191.415 154.386C191.741 153.817 192.189 153.373 192.759 153.056C193.328 152.739 193.967 152.58 194.677 152.58C195.386 152.58 196.025 152.739 196.595 153.056C197.164 153.373 197.607 153.817 197.925 154.386C198.251 154.955 198.415 155.599 198.415 156.318C198.415 157.037 198.251 157.681 197.925 158.25C197.607 158.819 197.164 159.267 196.595 159.594C196.025 159.911 195.386 160.07 194.677 160.07ZM194.677 159.188C195.199 159.188 195.666 159.071 196.077 158.838C196.497 158.595 196.823 158.255 197.057 157.816C197.29 157.377 197.407 156.878 197.407 156.318C197.407 155.758 197.29 155.259 197.057 154.82C196.823 154.381 196.497 154.045 196.077 153.812C195.666 153.569 195.199 153.448 194.677 153.448C194.154 153.448 193.683 153.569 193.263 153.812C192.852 154.045 192.525 154.381 192.283 154.82C192.049 155.259 191.933 155.758 191.933 156.318C191.933 156.878 192.049 157.377 192.283 157.816C192.525 158.255 192.852 158.595 193.263 158.838C193.683 159.071 194.154 159.188 194.677 159.188ZM206.097 152.636V160H205.103V156.934C204.254 157.307 203.418 157.494 202.597 157.494C201.71 157.494 201.02 157.293 200.525 156.892C200.03 156.481 199.783 155.87 199.783 155.058V152.636H200.777V155.002C200.777 155.553 200.954 155.973 201.309 156.262C201.664 156.542 202.154 156.682 202.779 156.682C203.47 156.682 204.244 156.5 205.103 156.136V152.636H206.097ZM211.454 152.58C212.415 152.58 213.153 152.823 213.666 153.308C214.179 153.784 214.436 154.493 214.436 155.436V160H213.484V158.852C213.26 159.235 212.929 159.533 212.49 159.748C212.061 159.963 211.547 160.07 210.95 160.07C210.129 160.07 209.475 159.874 208.99 159.482C208.505 159.09 208.262 158.572 208.262 157.928C208.262 157.303 208.486 156.799 208.934 156.416C209.391 156.033 210.115 155.842 211.104 155.842H213.442V155.394C213.442 154.759 213.265 154.279 212.91 153.952C212.555 153.616 212.037 153.448 211.356 153.448C210.889 153.448 210.441 153.527 210.012 153.686C209.583 153.835 209.214 154.045 208.906 154.316L208.458 153.574C208.831 153.257 209.279 153.014 209.802 152.846C210.325 152.669 210.875 152.58 211.454 152.58ZM211.104 159.286C211.664 159.286 212.145 159.16 212.546 158.908C212.947 158.647 213.246 158.273 213.442 157.788V156.584H211.132C209.872 156.584 209.242 157.023 209.242 157.9C209.242 158.329 209.405 158.67 209.732 158.922C210.059 159.165 210.516 159.286 211.104 159.286ZM220.876 152.58C221.567 152.58 222.192 152.739 222.752 153.056C223.312 153.364 223.751 153.803 224.068 154.372C224.385 154.941 224.544 155.59 224.544 156.318C224.544 157.055 224.385 157.709 224.068 158.278C223.751 158.847 223.312 159.291 222.752 159.608C222.201 159.916 221.576 160.07 220.876 160.07C220.279 160.07 219.737 159.949 219.252 159.706C218.776 159.454 218.384 159.09 218.076 158.614V162.716H217.082V152.636H218.034V154.092C218.333 153.607 218.725 153.233 219.21 152.972C219.705 152.711 220.26 152.58 220.876 152.58ZM220.806 159.188C221.319 159.188 221.786 159.071 222.206 158.838C222.626 158.595 222.953 158.255 223.186 157.816C223.429 157.377 223.55 156.878 223.55 156.318C223.55 155.758 223.429 155.263 223.186 154.834C222.953 154.395 222.626 154.055 222.206 153.812C221.786 153.569 221.319 153.448 220.806 153.448C220.283 153.448 219.812 153.569 219.392 153.812C218.981 154.055 218.655 154.395 218.412 154.834C218.179 155.263 218.062 155.758 218.062 156.318C218.062 156.878 218.179 157.377 218.412 157.816C218.655 158.255 218.981 158.595 219.392 158.838C219.812 159.071 220.283 159.188 220.806 159.188ZM229.718 160.07C229.008 160.07 228.369 159.911 227.8 159.594C227.23 159.267 226.782 158.819 226.456 158.25C226.129 157.681 225.966 157.037 225.966 156.318C225.966 155.599 226.129 154.955 226.456 154.386C226.782 153.817 227.23 153.373 227.8 153.056C228.369 152.739 229.008 152.58 229.718 152.58C230.427 152.58 231.066 152.739 231.636 153.056C232.205 153.373 232.648 153.817 232.966 154.386C233.292 154.955 233.456 155.599 233.456 156.318C233.456 157.037 233.292 157.681 232.966 158.25C232.648 158.819 232.205 159.267 231.636 159.594C231.066 159.911 230.427 160.07 229.718 160.07ZM229.718 159.188C230.24 159.188 230.707 159.071 231.118 158.838C231.538 158.595 231.864 158.255 232.098 157.816C232.331 157.377 232.448 156.878 232.448 156.318C232.448 155.758 232.331 155.259 232.098 154.82C231.864 154.381 231.538 154.045 231.118 153.812C230.707 153.569 230.24 153.448 229.718 153.448C229.195 153.448 228.724 153.569 228.304 153.812C227.893 154.045 227.566 154.381 227.324 154.82C227.09 155.259 226.974 155.758 226.974 156.318C226.974 156.878 227.09 157.377 227.324 157.816C227.566 158.255 227.893 158.595 228.304 158.838C228.724 159.071 229.195 159.188 229.718 159.188ZM240.27 156.192C241.269 156.425 241.768 157.027 241.768 157.998C241.768 158.642 241.53 159.137 241.054 159.482C240.578 159.827 239.869 160 238.926 160H235.58V152.636H238.828C239.668 152.636 240.326 152.799 240.802 153.126C241.278 153.453 241.516 153.919 241.516 154.526C241.516 154.927 241.404 155.273 241.18 155.562C240.965 155.842 240.662 156.052 240.27 156.192ZM236.546 155.912H238.758C239.327 155.912 239.761 155.805 240.06 155.59C240.368 155.375 240.522 155.063 240.522 154.652C240.522 154.241 240.368 153.933 240.06 153.728C239.761 153.523 239.327 153.42 238.758 153.42H236.546V155.912ZM238.884 159.216C239.519 159.216 239.995 159.113 240.312 158.908C240.629 158.703 240.788 158.381 240.788 157.942C240.788 157.503 240.643 157.181 240.354 156.976C240.065 156.761 239.607 156.654 238.982 156.654H236.546V159.216H238.884ZM246.632 152.58C247.593 152.58 248.33 152.823 248.844 153.308C249.357 153.784 249.614 154.493 249.614 155.436V160H248.662V158.852C248.438 159.235 248.106 159.533 247.668 159.748C247.238 159.963 246.725 160.07 246.128 160.07C245.306 160.07 244.653 159.874 244.168 159.482C243.682 159.09 243.44 158.572 243.44 157.928C243.44 157.303 243.664 156.799 244.112 156.416C244.569 156.033 245.292 155.842 246.282 155.842H248.62V155.394C248.62 154.759 248.442 154.279 248.088 153.952C247.733 153.616 247.215 153.448 246.534 153.448C246.067 153.448 245.619 153.527 245.19 153.686C244.76 153.835 244.392 154.045 244.084 154.316L243.636 153.574C244.009 153.257 244.457 153.014 244.98 152.846C245.502 152.669 246.053 152.58 246.632 152.58ZM246.282 159.286C246.842 159.286 247.322 159.16 247.724 158.908C248.125 158.647 248.424 158.273 248.62 157.788V156.584H246.31C245.05 156.584 244.42 157.023 244.42 157.9C244.42 158.329 244.583 158.67 244.91 158.922C245.236 159.165 245.694 159.286 246.282 159.286ZM252.26 152.636H253.254V155.898H257.888V152.636H258.882V160H257.888V156.752H253.254V160H252.26V152.636Z" fill="#1F2041" fill-opacity="0.75"/>
<circle cx="155" cy="131" r="5" fill="url(#paint0_linear)"/>
<circle cx="155" cy="155" r="5" fill="url(#paint1_linear)"/>
<circle cx="155" cy="107" r="5" fill="url(#paint2_linear)"/>
<circle cx="155" cy="83" r="5" fill="url(#paint3_linear)"/>
<mask id="mask0" mask-type="alpha" maskUnits="userSpaceOnUse" x="0" y="44" width="59" height="121">
<path d="M0 44H59V165H0V44Z" fill="#C4C4C4"/>
</mask>
<g mask="url(#mask0)">
<circle cx="60" cy="105" r="58" stroke="url(#paint4_linear)" stroke-width="4"/>
</g>
<mask id="mask1" mask-type="alpha" maskUnits="userSpaceOnUse" x="61" y="45" width="59" height="59">
<path d="M61 45H120V104H61V45Z" fill="#C4C4C4"/>
</mask>
<g mask="url(#mask1)">
<circle cx="60" cy="105" r="58" stroke="url(#paint5_linear)" stroke-width="4"/>
</g>
<mask id="mask2" mask-type="alpha" maskUnits="userSpaceOnUse" x="61" y="106" width="59" height="59">
<path d="M120 106V165H61L61 106H120Z" fill="#C4C4C4"/>
</mask>
<g mask="url(#mask2)">
<circle cx="60" cy="105" r="58" transform="rotate(90 60 105)" stroke="url(#paint6_linear)" stroke-width="4"/>
</g>
<path d="M50.9211 101.36C51.3051 101.36 51.6251 101.488 51.8811 101.744C52.1371 102 52.2651 102.32 52.2651 102.704C52.2651 103.072 52.1371 103.384 51.8811 103.64C51.6251 103.88 51.3051 104 50.9211 104H42.7611C42.3451 104 42.0171 103.872 41.7771 103.616C41.5371 103.36 41.4171 103.032 41.4171 102.632C41.4171 102.232 41.5611 101.88 41.8491 101.576L47.0811 95.984C47.6731 95.344 48.1371 94.704 48.4731 94.064C48.8251 93.408 49.0011 92.808 49.0011 92.264C49.0011 91.544 48.7451 90.92 48.2331 90.392C47.7211 89.864 47.1291 89.6 46.4571 89.6C45.9931 89.6 45.5211 89.76 45.0411 90.08C44.5771 90.384 44.1531 90.792 43.7691 91.304C43.4811 91.688 43.1131 91.88 42.6651 91.88C42.3131 91.88 41.9851 91.744 41.6811 91.472C41.3931 91.2 41.2491 90.896 41.2491 90.56C41.2491 90.32 41.3291 90.08 41.4891 89.84C41.6491 89.584 41.8891 89.296 42.2091 88.976C42.8171 88.368 43.5211 87.88 44.3211 87.512C45.1211 87.144 45.8891 86.96 46.6251 86.96C47.6811 86.96 48.6091 87.184 49.4091 87.632C50.2091 88.08 50.8251 88.696 51.2571 89.48C51.6891 90.264 51.9051 91.152 51.9051 92.144C51.9051 93.12 51.6411 94.128 51.1131 95.168C50.6011 96.192 49.9051 97.176 49.0251 98.12L45.9771 101.36H50.9211ZM59.9723 93.104C60.8043 93.104 61.6203 93.36 62.4203 93.872C63.2363 94.368 63.9003 95.048 64.4123 95.912C64.9243 96.76 65.1803 97.68 65.1803 98.672C65.1803 99.68 64.9243 100.616 64.4123 101.48C63.9163 102.328 63.2443 103 62.3963 103.496C61.5483 103.992 60.6123 104.24 59.5883 104.24C58.4843 104.24 57.5003 103.936 56.6363 103.328C55.7723 102.704 55.1083 101.896 54.6443 100.904C54.1803 99.896 53.9483 98.824 53.9483 97.688C53.9483 96.52 54.1483 95.24 54.5483 93.848C54.9643 92.44 55.7083 91.112 56.7803 89.864C57.8683 88.616 59.3403 87.728 61.1963 87.2C61.3883 87.152 61.5723 87.128 61.7483 87.128C62.1643 87.128 62.5083 87.24 62.7803 87.464C63.0523 87.672 63.1883 88.008 63.1883 88.472C63.1883 88.824 63.0683 89.136 62.8283 89.408C62.6043 89.664 62.3003 89.848 61.9163 89.96C60.9083 90.248 59.9723 90.76 59.1083 91.496C58.2603 92.232 57.6363 93.112 57.2363 94.136C58.0363 93.448 58.9483 93.104 59.9723 93.104ZM59.5883 101.6C60.3403 101.6 60.9803 101.32 61.5083 100.76C62.0363 100.2 62.3003 99.504 62.3003 98.672C62.3003 97.84 62.0363 97.144 61.5083 96.584C60.9803 96.024 60.3403 95.744 59.5883 95.744C58.8203 95.744 58.1723 96.024 57.6443 96.584C57.1323 97.144 56.8763 97.84 56.8763 98.672C56.8763 99.504 57.1323 100.2 57.6443 100.76C58.1723 101.32 58.8203 101.6 59.5883 101.6ZM73.5047 104.24C72.1607 104.24 71.0007 103.88 70.0247 103.16C69.0647 102.44 68.3367 101.432 67.8407 100.136C67.3447 98.824 67.0967 97.312 67.0967 95.6C67.0967 93.888 67.3447 92.384 67.8407 91.088C68.3367 89.776 69.0647 88.76 70.0247 88.04C71.0007 87.32 72.1607 86.96 73.5047 86.96C74.8487 86.96 76.0007 87.32 76.9607 88.04C77.9367 88.76 78.6727 89.776 79.1687 91.088C79.6647 92.384 79.9127 93.888 79.9127 95.6C79.9127 97.312 79.6647 98.824 79.1687 100.136C78.6727 101.432 77.9367 102.44 76.9607 103.16C76.0007 103.88 74.8487 104.24 73.5047 104.24ZM73.5047 101.36C74.5287 101.36 75.3287 100.872 75.9047 99.896C76.4967 98.92 76.7927 97.488 76.7927 95.6C76.7927 93.712 76.4967 92.28 75.9047 91.304C75.3287 90.328 74.5287 89.84 73.5047 89.84C72.4807 89.84 71.6727 90.328 71.0807 91.304C70.5047 92.28 70.2167 93.712 70.2167 95.6C70.2167 97.488 70.5047 98.92 71.0807 99.896C71.6727 100.872 72.4807 101.36 73.5047 101.36Z" fill="#BC9CFF"/>
<path d="M35.2666 115.184H31.2706L31.2826 122H29.3506V113.6H35.2786L35.2666 115.184ZM39.6165 122.144C38.7445 122.144 37.9565 121.956 37.2525 121.58C36.5565 121.204 36.0085 120.688 35.6085 120.032C35.2165 119.368 35.0205 118.624 35.0205 117.8C35.0205 116.976 35.2165 116.236 35.6085 115.58C36.0085 114.916 36.5565 114.396 37.2525 114.02C37.9565 113.644 38.7445 113.456 39.6165 113.456C40.4885 113.456 41.2725 113.644 41.9685 114.02C42.6645 114.396 43.2125 114.916 43.6125 115.58C44.0125 116.236 44.2125 116.976 44.2125 117.8C44.2125 118.624 44.0125 119.368 43.6125 120.032C43.2125 120.688 42.6645 121.204 41.9685 121.58C41.2725 121.956 40.4885 122.144 39.6165 122.144ZM39.6165 120.488C40.1125 120.488 40.5605 120.376 40.9605 120.152C41.3605 119.92 41.6725 119.6 41.8965 119.192C42.1285 118.784 42.2445 118.32 42.2445 117.8C42.2445 117.28 42.1285 116.816 41.8965 116.408C41.6725 116 41.3605 115.684 40.9605 115.46C40.5605 115.228 40.1125 115.112 39.6165 115.112C39.1205 115.112 38.6725 115.228 38.2725 115.46C37.8725 115.684 37.5565 116 37.3245 116.408C37.1005 116.816 36.9885 117.28 36.9885 117.8C36.9885 118.32 37.1005 118.784 37.3245 119.192C37.5565 119.6 37.8725 119.92 38.2725 120.152C38.6725 120.376 39.1205 120.488 39.6165 120.488ZM52.9636 113.6V122H51.0436V115.184H48.1636L48.1036 116.936C48.0636 118.128 47.9676 119.096 47.8156 119.84C47.6636 120.576 47.4076 121.144 47.0476 121.544C46.6956 121.936 46.1996 122.132 45.5596 122.132C45.2956 122.132 44.9756 122.088 44.5996 122L44.7196 120.356C44.8236 120.388 44.9396 120.404 45.0676 120.404C45.5316 120.404 45.8556 120.132 46.0396 119.588C46.2236 119.036 46.3396 118.176 46.3876 117.008L46.5076 113.6H52.9636ZM59.0696 122.144C58.1976 122.144 57.4096 121.956 56.7056 121.58C56.0096 121.204 55.4616 120.688 55.0616 120.032C54.6696 119.368 54.4736 118.624 54.4736 117.8C54.4736 116.976 54.6696 116.236 55.0616 115.58C55.4616 114.916 56.0096 114.396 56.7056 114.02C57.4096 113.644 58.1976 113.456 59.0696 113.456C59.9416 113.456 60.7256 113.644 61.4216 114.02C62.1176 114.396 62.6656 114.916 63.0656 115.58C63.4656 116.236 63.6656 116.976 63.6656 117.8C63.6656 118.624 63.4656 119.368 63.0656 120.032C62.6656 120.688 62.1176 121.204 61.4216 121.58C60.7256 121.956 59.9416 122.144 59.0696 122.144ZM59.0696 120.488C59.5656 120.488 60.0136 120.376 60.4136 120.152C60.8136 119.92 61.1256 119.6 61.3496 119.192C61.5816 118.784 61.6976 118.32 61.6976 117.8C61.6976 117.28 61.5816 116.816 61.3496 116.408C61.1256 116 60.8136 115.684 60.4136 115.46C60.0136 115.228 59.5656 115.112 59.0696 115.112C58.5736 115.112 58.1256 115.228 57.7256 115.46C57.3256 115.684 57.0096 116 56.7776 116.408C56.5536 116.816 56.4416 117.28 56.4416 117.8C56.4416 118.32 56.5536 118.784 56.7776 119.192C57.0096 119.6 57.3256 119.92 57.7256 120.152C58.1256 120.376 58.5736 120.488 59.0696 120.488ZM69.1351 122.144C68.2791 122.144 67.5031 121.96 66.8071 121.592C66.1191 121.216 65.5751 120.7 65.1751 120.044C64.7831 119.38 64.5871 118.632 64.5871 117.8C64.5871 116.968 64.7831 116.224 65.1751 115.568C65.5751 114.904 66.1191 114.388 66.8071 114.02C67.5031 113.644 68.2831 113.456 69.1471 113.456C69.8751 113.456 70.5311 113.584 71.1151 113.84C71.7071 114.096 72.2031 114.464 72.6031 114.944L71.3551 116.096C70.7871 115.44 70.0831 115.112 69.2431 115.112C68.7231 115.112 68.2591 115.228 67.8511 115.46C67.4431 115.684 67.1231 116 66.8911 116.408C66.6671 116.816 66.5551 117.28 66.5551 117.8C66.5551 118.32 66.6671 118.784 66.8911 119.192C67.1231 119.6 67.4431 119.92 67.8511 120.152C68.2591 120.376 68.7231 120.488 69.2431 120.488C70.0831 120.488 70.7871 120.156 71.3551 119.492L72.6031 120.644C72.2031 121.132 71.7071 121.504 71.1151 121.76C70.5231 122.016 69.8631 122.144 69.1351 122.144ZM77.7024 122.144C76.8304 122.144 76.0424 121.956 75.3384 121.58C74.6424 121.204 74.0944 120.688 73.6944 120.032C73.3024 119.368 73.1064 118.624 73.1064 117.8C73.1064 116.976 73.3024 116.236 73.6944 115.58C74.0944 114.916 74.6424 114.396 75.3384 114.02C76.0424 113.644 76.8304 113.456 77.7024 113.456C78.5744 113.456 79.3584 113.644 80.0544 114.02C80.7504 114.396 81.2984 114.916 81.6984 115.58C82.0984 116.236 82.2984 116.976 82.2984 117.8C82.2984 118.624 82.0984 119.368 81.6984 120.032C81.2984 120.688 80.7504 121.204 80.0544 121.58C79.3584 121.956 78.5744 122.144 77.7024 122.144ZM77.7024 120.488C78.1984 120.488 78.6464 120.376 79.0464 120.152C79.4464 119.92 79.7584 119.6 79.9824 119.192C80.2144 118.784 80.3304 118.32 80.3304 117.8C80.3304 117.28 80.2144 116.816 79.9824 116.408C79.7584 116 79.4464 115.684 79.0464 115.46C78.6464 115.228 78.1984 115.112 77.7024 115.112C77.2064 115.112 76.7584 115.228 76.3584 115.46C75.9584 115.684 75.6424 116 75.4104 116.408C75.1864 116.816 75.0744 117.28 75.0744 117.8C75.0744 118.32 75.1864 118.784 75.4104 119.192C75.6424 119.6 75.9584 119.92 76.3584 120.152C76.7584 120.376 77.2064 120.488 77.7024 120.488ZM89.616 117.62C90.128 117.772 90.52 118.02 90.792 118.364C91.064 118.708 91.2 119.132 91.2 119.636C91.2 120.38 90.916 120.96 90.348 121.376C89.788 121.792 88.984 122 87.936 122H83.796V113.6H87.708C88.684 113.6 89.444 113.788 89.988 114.164C90.532 114.54 90.804 115.076 90.804 115.772C90.804 116.188 90.7 116.556 90.492 116.876C90.284 117.188 89.992 117.436 89.616 117.62ZM85.728 117.08H87.54C87.964 117.08 88.284 116.996 88.5 116.828C88.716 116.652 88.824 116.396 88.824 116.06C88.824 115.732 88.712 115.48 88.488 115.304C88.272 115.128 87.956 115.04 87.54 115.04H85.728V117.08ZM87.864 120.56C88.776 120.56 89.232 120.2 89.232 119.48C89.232 118.784 88.776 118.436 87.864 118.436H85.728V120.56H87.864Z" fill="#BC9CFF"/>
<defs>
<linearGradient id="paint0_linear" x1="155" y1="126" x2="155" y2="136" gradientUnits="userSpaceOnUse">
<stop stop-color="#BC9CFF"/>
<stop offset="1" stop-color="#8BA4F9"/>
</linearGradient>
<linearGradient id="paint1_linear" x1="155" y1="150" x2="155" y2="160" gradientUnits="userSpaceOnUse">
<stop stop-color="#919191"/>
<stop offset="1" stop-color="#3D4975"/>
</linearGradient>
<linearGradient id="paint2_linear" x1="155" y1="102" x2="155" y2="112" gradientUnits="userSpaceOnUse">
<stop stop-color="#6FCF97"/>
<stop offset="1" stop-color="#66D2EA"/>
</linearGradient>
<linearGradient id="paint3_linear" x1="155" y1="78" x2="155" y2="88" gradientUnits="userSpaceOnUse">
<stop stop-color="#FFE39C"/>
<stop offset="1" stop-color="#FFBA9C"/>
</linearGradient>
<linearGradient id="paint4_linear" x1="60" y1="45" x2="60" y2="165" gradientUnits="userSpaceOnUse">
<stop stop-color="#FFE39C"/>
<stop offset="1" stop-color="#FFBA9C"/>
</linearGradient>
<linearGradient id="paint5_linear" x1="60" y1="45" x2="60" y2="165" gradientUnits="userSpaceOnUse">
<stop stop-color="#BC9CFF"/>
<stop offset="1" stop-color="#8BA4F9"/>
</linearGradient>
<linearGradient id="paint6_linear" x1="60" y1="45" x2="60" y2="165" gradientUnits="userSpaceOnUse">
<stop stop-color="#6FCF97"/>
<stop offset="1" stop-color="#66D2EA"/>
</linearGradient>
</defs>
</svg>
