<svg width="266" height="218" viewBox="0 0 266 218" fill="none" xmlns="http://www.w3.org/2000/svg">
<path d="M7.5 24.44V26H0.996V17.6H7.344V19.16H2.928V20.984H6.828V22.496H2.928V24.44H7.5ZM14.2568 26L12.2288 23.084L10.2368 26H8.00475L11.1128 21.728L8.16075 17.6H10.3688L12.3008 20.324L14.1968 17.6H16.2968L13.3688 21.656L16.5008 26H14.2568ZM20.8976 17.6C21.6416 17.6 22.2856 17.724 22.8296 17.972C23.3816 18.22 23.8056 18.572 24.1016 19.028C24.3976 19.484 24.5456 20.024 24.5456 20.648C24.5456 21.264 24.3976 21.804 24.1016 22.268C23.8056 22.724 23.3816 23.076 22.8296 23.324C22.2856 23.564 21.6416 23.684 20.8976 23.684H19.2056V26H17.2616V17.6H20.8976ZM20.7896 22.1C21.3736 22.1 21.8176 21.976 22.1216 21.728C22.4256 21.472 22.5776 21.112 22.5776 20.648C22.5776 20.176 22.4256 19.816 22.1216 19.568C21.8176 19.312 21.3736 19.184 20.7896 19.184H19.2056V22.1H20.7896ZM31.0436 24.2H27.1436L26.3996 26H24.4076L28.1516 17.6H30.0716L33.8276 26H31.7876L31.0436 24.2ZM30.4316 22.724L29.0996 19.508L27.7676 22.724H30.4316ZM42.4031 17.6V26H40.8071L36.6191 20.9V26H34.6991V17.6H36.3071L40.4831 22.7V17.6H42.4031ZM44.3905 17.6H48.2065C49.1185 17.6 49.9225 17.776 50.6185 18.128C51.3225 18.472 51.8665 18.96 52.2505 19.592C52.6425 20.224 52.8385 20.96 52.8385 21.8C52.8385 22.64 52.6425 23.376 52.2505 24.008C51.8665 24.64 51.3225 25.132 50.6185 25.484C49.9225 25.828 49.1185 26 48.2065 26H44.3905V17.6ZM48.1105 24.404C48.9505 24.404 49.6185 24.172 50.1145 23.708C50.6185 23.236 50.8705 22.6 50.8705 21.8C50.8705 21 50.6185 20.368 50.1145 19.904C49.6185 19.432 48.9505 19.196 48.1105 19.196H46.3345V24.404H48.1105ZM59.7194 24.2H55.8194L55.0754 26H53.0834L56.8274 17.6H58.7474L62.5034 26H60.4634L59.7194 24.2ZM59.1074 22.724L57.7754 19.508L56.4434 22.724H59.1074ZM69.5429 21.632C70.0229 21.784 70.3989 22.04 70.6709 22.4C70.9429 22.752 71.0789 23.188 71.0789 23.708C71.0789 24.444 70.7909 25.012 70.2149 25.412C69.6469 25.804 68.8149 26 67.7189 26H63.3749V17.6H67.4789C68.5029 17.6 69.2869 17.796 69.8309 18.188C70.3829 18.58 70.6589 19.112 70.6589 19.784C70.6589 20.192 70.5589 20.556 70.3589 20.876C70.1669 21.196 69.8949 21.448 69.5429 21.632ZM65.3069 19.064V21.044H67.2389C67.7189 21.044 68.0829 20.96 68.3309 20.792C68.5789 20.624 68.7029 20.376 68.7029 20.048C68.7029 19.72 68.5789 19.476 68.3309 19.316C68.0829 19.148 67.7189 19.064 67.2389 19.064H65.3069ZM67.5749 24.536C68.0869 24.536 68.4709 24.452 68.7269 24.284C68.9909 24.116 69.1229 23.856 69.1229 23.504C69.1229 22.808 68.6069 22.46 67.5749 22.46H65.3069V24.536H67.5749ZM72.5507 17.6H74.4947V24.416H78.7067V26H72.5507V17.6ZM86.2969 24.44V26H79.7929V17.6H86.1409V19.16H81.7249V20.984H85.6249V22.496H81.7249V24.44H86.2969ZM95.2621 26.144C94.4061 26.144 93.6301 25.96 92.9341 25.592C92.2461 25.216 91.7021 24.7 91.3021 24.044C90.9101 23.38 90.7141 22.632 90.7141 21.8C90.7141 20.968 90.9101 20.224 91.3021 19.568C91.7021 18.904 92.2461 18.388 92.9341 18.02C93.6301 17.644 94.4101 17.456 95.2741 17.456C96.0021 17.456 96.6581 17.584 97.2421 17.84C97.8341 18.096 98.3301 18.464 98.7301 18.944L97.4821 20.096C96.9141 19.44 96.2101 19.112 95.3701 19.112C94.8501 19.112 94.3861 19.228 93.9781 19.46C93.5701 19.684 93.2501 20 93.0181 20.408C92.7941 20.816 92.6821 21.28 92.6821 21.8C92.6821 22.32 92.7941 22.784 93.0181 23.192C93.2501 23.6 93.5701 23.92 93.9781 24.152C94.3861 24.376 94.8501 24.488 95.3701 24.488C96.2101 24.488 96.9141 24.156 97.4821 23.492L98.7301 24.644C98.3301 25.132 97.8341 25.504 97.2421 25.76C96.6501 26.016 95.9901 26.144 95.2621 26.144ZM107.747 17.6V26H105.803V22.556H101.987V26H100.043V17.6H101.987V20.912H105.803V17.6H107.747ZM116.238 24.44V26H109.734V17.6H116.082V19.16H111.666V20.984H115.566V22.496H111.666V24.44H116.238ZM121.782 26.144C120.926 26.144 120.15 25.96 119.454 25.592C118.766 25.216 118.222 24.7 117.822 24.044C117.43 23.38 117.234 22.632 117.234 21.8C117.234 20.968 117.43 20.224 117.822 19.568C118.222 18.904 118.766 18.388 119.454 18.02C120.15 17.644 120.93 17.456 121.794 17.456C122.522 17.456 123.178 17.584 123.762 17.84C124.354 18.096 124.85 18.464 125.25 18.944L124.002 20.096C123.434 19.44 122.73 19.112 121.89 19.112C121.37 19.112 120.906 19.228 120.498 19.46C120.09 19.684 119.77 20 119.538 20.408C119.314 20.816 119.202 21.28 119.202 21.8C119.202 22.32 119.314 22.784 119.538 23.192C119.77 23.6 120.09 23.92 120.498 24.152C120.906 24.376 121.37 24.488 121.89 24.488C122.73 24.488 123.434 24.156 124.002 23.492L125.25 24.644C124.85 25.132 124.354 25.504 123.762 25.76C123.17 26.016 122.51 26.144 121.782 26.144ZM129.622 22.7L128.494 23.876V26H126.562V17.6H128.494V21.524L132.214 17.6H134.374L130.894 21.344L134.578 26H132.31L129.622 22.7ZM141.613 21.632C142.093 21.784 142.469 22.04 142.741 22.4C143.013 22.752 143.149 23.188 143.149 23.708C143.149 24.444 142.861 25.012 142.285 25.412C141.717 25.804 140.885 26 139.789 26H135.445V17.6H139.549C140.573 17.6 141.357 17.796 141.901 18.188C142.453 18.58 142.729 19.112 142.729 19.784C142.729 20.192 142.629 20.556 142.429 20.876C142.237 21.196 141.965 21.448 141.613 21.632ZM137.377 19.064V21.044H139.309C139.789 21.044 140.153 20.96 140.401 20.792C140.649 20.624 140.773 20.376 140.773 20.048C140.773 19.72 140.649 19.476 140.401 19.316C140.153 19.148 139.789 19.064 139.309 19.064H137.377ZM139.645 24.536C140.157 24.536 140.541 24.452 140.797 24.284C141.061 24.116 141.193 23.856 141.193 23.504C141.193 22.808 140.677 22.46 139.645 22.46H137.377V24.536H139.645ZM148.689 26.144C147.817 26.144 147.029 25.956 146.325 25.58C145.629 25.204 145.081 24.688 144.681 24.032C144.289 23.368 144.093 22.624 144.093 21.8C144.093 20.976 144.289 20.236 144.681 19.58C145.081 18.916 145.629 18.396 146.325 18.02C147.029 17.644 147.817 17.456 148.689 17.456C149.561 17.456 150.345 17.644 151.041 18.02C151.737 18.396 152.285 18.916 152.685 19.58C153.085 20.236 153.285 20.976 153.285 21.8C153.285 22.624 153.085 23.368 152.685 24.032C152.285 24.688 151.737 25.204 151.041 25.58C150.345 25.956 149.561 26.144 148.689 26.144ZM148.689 24.488C149.185 24.488 149.633 24.376 150.033 24.152C150.433 23.92 150.745 23.6 150.969 23.192C151.201 22.784 151.317 22.32 151.317 21.8C151.317 21.28 151.201 20.816 150.969 20.408C150.745 20 150.433 19.684 150.033 19.46C149.633 19.228 149.185 19.112 148.689 19.112C148.193 19.112 147.745 19.228 147.345 19.46C146.945 19.684 146.629 20 146.397 20.408C146.173 20.816 146.061 21.28 146.061 21.8C146.061 22.32 146.173 22.784 146.397 23.192C146.629 23.6 146.945 23.92 147.345 24.152C147.745 24.376 148.193 24.488 148.689 24.488ZM159.733 26L157.705 23.084L155.713 26H153.481L156.589 21.728L153.637 17.6H155.845L157.777 20.324L159.673 17.6H161.773L158.845 21.656L161.977 26H159.733ZM166.406 17.6H168.35V24.416H172.562V26H166.406V17.6ZM173.648 17.6H175.592V26H173.648V17.6ZM180.346 26.144C179.682 26.144 179.038 26.056 178.414 25.88C177.798 25.696 177.302 25.46 176.926 25.172L177.586 23.708C177.946 23.972 178.374 24.184 178.87 24.344C179.366 24.504 179.862 24.584 180.358 24.584C180.91 24.584 181.318 24.504 181.582 24.344C181.846 24.176 181.978 23.956 181.978 23.684C181.978 23.484 181.898 23.32 181.738 23.192C181.586 23.056 181.386 22.948 181.138 22.868C180.898 22.788 180.57 22.7 180.154 22.604C179.514 22.452 178.99 22.3 178.582 22.148C178.174 21.996 177.822 21.752 177.526 21.416C177.238 21.08 177.094 20.632 177.094 20.072C177.094 19.584 177.226 19.144 177.49 18.752C177.754 18.352 178.15 18.036 178.678 17.804C179.214 17.572 179.866 17.456 180.634 17.456C181.17 17.456 181.694 17.52 182.206 17.648C182.718 17.776 183.166 17.96 183.55 18.2L182.95 19.676C182.174 19.236 181.398 19.016 180.622 19.016C180.078 19.016 179.674 19.104 179.41 19.28C179.154 19.456 179.026 19.688 179.026 19.976C179.026 20.264 179.174 20.48 179.47 20.624C179.774 20.76 180.234 20.896 180.85 21.032C181.49 21.184 182.014 21.336 182.422 21.488C182.83 21.64 183.178 21.88 183.466 22.208C183.762 22.536 183.91 22.98 183.91 23.54C183.91 24.02 183.774 24.46 183.502 24.86C183.238 25.252 182.838 25.564 182.302 25.796C181.766 26.028 181.114 26.144 180.346 26.144ZM186.861 19.184H184.173V17.6H191.493V19.184H188.805V26H186.861V19.184Z" fill="#1F2041"/>
<path d="M239.406 25.4219L238 24.0156L244 18.0156L250 24.0156L248.594 25.4219L244 20.8281L239.406 25.4219Z" fill="#1F2041" fill-opacity="0.5"/>
<path d="M39.898 82.2V92H38.876V83.096H32.674V92H31.652V82.2H39.898ZM42.9667 84.636H43.9607V90.488L48.8747 84.636H49.7567V92H48.7627V86.148L43.8627 92H42.9667V84.636ZM55.6854 92.07C54.9574 92.07 54.3041 91.9113 53.7254 91.594C53.1561 91.2767 52.7081 90.8333 52.3814 90.264C52.0547 89.6853 51.8914 89.0367 51.8914 88.318C51.8914 87.5993 52.0547 86.9553 52.3814 86.386C52.7081 85.8167 53.1561 85.3733 53.7254 85.056C54.3041 84.7387 54.9574 84.58 55.6854 84.58C56.3201 84.58 56.8847 84.706 57.3794 84.958C57.8834 85.2007 58.2801 85.56 58.5694 86.036L57.8274 86.54C57.5847 86.176 57.2767 85.9053 56.9034 85.728C56.5301 85.5413 56.1241 85.448 55.6854 85.448C55.1534 85.448 54.6727 85.5693 54.2434 85.812C53.8234 86.0453 53.4921 86.3813 53.2494 86.82C53.0161 87.2587 52.8994 87.758 52.8994 88.318C52.8994 88.8873 53.0161 89.3913 53.2494 89.83C53.4921 90.2593 53.8234 90.5953 54.2434 90.838C54.6727 91.0713 55.1534 91.188 55.6854 91.188C56.1241 91.188 56.5301 91.0993 56.9034 90.922C57.2767 90.7447 57.5847 90.474 57.8274 90.11L58.5694 90.614C58.2801 91.09 57.8834 91.454 57.3794 91.706C56.8754 91.9487 56.3107 92.07 55.6854 92.07ZM63.6581 87.24C64.5821 87.2493 65.2821 87.4547 65.7581 87.856C66.2434 88.2573 66.4861 88.836 66.4861 89.592C66.4861 90.376 66.2247 90.978 65.7021 91.398C65.1887 91.818 64.4421 92.0233 63.4621 92.014L60.4941 92V84.636H61.4881V87.212L63.6581 87.24ZM63.4061 91.258C64.0874 91.2673 64.6007 91.132 64.9461 90.852C65.3007 90.5627 65.4781 90.1427 65.4781 89.592C65.4781 89.0507 65.3054 88.6493 64.9601 88.388C64.6147 88.1267 64.0967 87.9913 63.4061 87.982L61.4881 87.954V91.23L63.4061 91.258ZM76.6148 84.636V92H75.7048V86.176L72.7228 91.104H72.2748L69.2928 86.162V92H68.3828V84.636H69.3908L72.5128 89.942L75.6908 84.636H76.6148ZM85.8833 88.626H79.7233C79.7793 89.3913 80.0733 90.012 80.6053 90.488C81.1373 90.9547 81.8093 91.188 82.6213 91.188C83.0786 91.188 83.4986 91.1087 83.8813 90.95C84.264 90.782 84.5953 90.5393 84.8753 90.222L85.4353 90.866C85.1086 91.258 84.698 91.5567 84.2033 91.762C83.718 91.9673 83.1813 92.07 82.5933 92.07C81.8373 92.07 81.1653 91.9113 80.5773 91.594C79.9986 91.2673 79.546 90.8193 79.2193 90.25C78.8926 89.6807 78.7293 89.0367 78.7293 88.318C78.7293 87.5993 78.8833 86.9553 79.1913 86.386C79.5086 85.8167 79.938 85.3733 80.4793 85.056C81.03 84.7387 81.646 84.58 82.3273 84.58C83.0086 84.58 83.62 84.7387 84.1613 85.056C84.7026 85.3733 85.1273 85.8167 85.4353 86.386C85.7433 86.946 85.8973 87.59 85.8973 88.318L85.8833 88.626ZM82.3273 85.434C81.618 85.434 81.0206 85.6627 80.5353 86.12C80.0593 86.568 79.7886 87.156 79.7233 87.884H84.9453C84.88 87.156 84.6046 86.568 84.1193 86.12C83.6433 85.6627 83.046 85.434 82.3273 85.434ZM88.0976 84.636H89.0916V87.898H93.7256V84.636H94.7196V92H93.7256V88.752H89.0916V92H88.0976V84.636ZM97.5449 84.636H98.5389V87.898H103.173V84.636H104.167V92H103.173V88.752H98.5389V92H97.5449V84.636ZM110.086 87.24C111.01 87.2493 111.715 87.4547 112.2 87.856C112.685 88.2573 112.928 88.836 112.928 89.592C112.928 90.376 112.667 90.978 112.144 91.398C111.621 91.818 110.875 92.0233 109.904 92.014L106.992 92V84.636H107.986V87.212L110.086 87.24ZM114.16 84.636H115.154V92H114.16V84.636ZM109.848 91.258C110.529 91.2673 111.043 91.132 111.388 90.852C111.743 90.5627 111.92 90.1427 111.92 89.592C111.92 89.0507 111.747 88.6493 111.402 88.388C111.057 88.1267 110.539 87.9913 109.848 87.982L107.986 87.954V91.23L109.848 91.258ZM117.984 84.636H118.978V90.488L123.892 84.636H124.774V92H123.78V86.148L118.88 92H117.984V84.636ZM121.33 83.572C120.696 83.572 120.192 83.4133 119.818 83.096C119.445 82.7787 119.254 82.3307 119.244 81.752H119.958C119.968 82.116 120.098 82.41 120.35 82.634C120.602 82.8487 120.929 82.956 121.33 82.956C121.732 82.956 122.058 82.8487 122.31 82.634C122.572 82.41 122.707 82.116 122.716 81.752H123.43C123.421 82.3307 123.225 82.7787 122.842 83.096C122.469 83.4133 121.965 83.572 121.33 83.572ZM134.367 92.07C133.639 92.07 132.986 91.9113 132.407 91.594C131.838 91.2767 131.39 90.8333 131.063 90.264C130.736 89.6853 130.573 89.0367 130.573 88.318C130.573 87.5993 130.736 86.9553 131.063 86.386C131.39 85.8167 131.838 85.3733 132.407 85.056C132.986 84.7387 133.639 84.58 134.367 84.58C135.002 84.58 135.566 84.706 136.061 84.958C136.565 85.2007 136.962 85.56 137.251 86.036L136.509 86.54C136.266 86.176 135.958 85.9053 135.585 85.728C135.212 85.5413 134.806 85.448 134.367 85.448C133.835 85.448 133.354 85.5693 132.925 85.812C132.505 86.0453 132.174 86.3813 131.931 86.82C131.698 87.2587 131.581 87.758 131.581 88.318C131.581 88.8873 131.698 89.3913 131.931 89.83C132.174 90.2593 132.505 90.5953 132.925 90.838C133.354 91.0713 133.835 91.188 134.367 91.188C134.806 91.188 135.212 91.0993 135.585 90.922C135.958 90.7447 136.266 90.474 136.509 90.11L137.251 90.614C136.962 91.09 136.565 91.454 136.061 91.706C135.557 91.9487 134.992 92.07 134.367 92.07ZM144.219 85.518H141.433V92H140.439V85.518H137.653V84.636H144.219V85.518ZM148.352 92.07C147.643 92.07 147.004 91.9113 146.434 91.594C145.865 91.2673 145.417 90.8193 145.09 90.25C144.764 89.6807 144.6 89.0367 144.6 88.318C144.6 87.5993 144.764 86.9553 145.09 86.386C145.417 85.8167 145.865 85.3733 146.434 85.056C147.004 84.7387 147.643 84.58 148.352 84.58C149.062 84.58 149.701 84.7387 150.27 85.056C150.84 85.3733 151.283 85.8167 151.6 86.386C151.927 86.9553 152.09 87.5993 152.09 88.318C152.09 89.0367 151.927 89.6807 151.6 90.25C151.283 90.8193 150.84 91.2673 150.27 91.594C149.701 91.9113 149.062 92.07 148.352 92.07ZM148.352 91.188C148.875 91.188 149.342 91.0713 149.752 90.838C150.172 90.5953 150.499 90.2547 150.732 89.816C150.966 89.3773 151.082 88.878 151.082 88.318C151.082 87.758 150.966 87.2587 150.732 86.82C150.499 86.3813 150.172 86.0453 149.752 85.812C149.342 85.5693 148.875 85.448 148.352 85.448C147.83 85.448 147.358 85.5693 146.938 85.812C146.528 86.0453 146.201 86.3813 145.958 86.82C145.725 87.2587 145.608 87.758 145.608 88.318C145.608 88.878 145.725 89.3773 145.958 89.816C146.201 90.2547 146.528 90.5953 146.938 90.838C147.358 91.0713 147.83 91.188 148.352 91.188ZM160.194 84.636V92H159.2V85.518H155.672L155.574 87.338C155.499 88.8687 155.322 90.0447 155.042 90.866C154.762 91.6873 154.262 92.098 153.544 92.098C153.348 92.098 153.11 92.0607 152.83 91.986L152.9 91.132C153.068 91.1693 153.184 91.188 153.25 91.188C153.632 91.188 153.922 91.0107 154.118 90.656C154.314 90.3013 154.444 89.8627 154.51 89.34C154.575 88.8173 154.631 88.1267 154.678 87.268L154.804 84.636H160.194Z" fill="#1F2041" fill-opacity="0.5"/>
<rect x="0.5" y="77.5" width="19" height="19" rx="3.5" fill="white" stroke="#BC9CFF"/>
<path d="M6.46439 85.2924L10.707 89.5351L9.29282 90.9493L5.05018 86.7067L6.46439 85.2924Z" fill="url(#paint0_linear)"/>
<path d="M13.5355 83.8782L14.9497 85.2924L9.29282 90.9493L7.8786 89.5351L13.5355 83.8782Z" fill="url(#paint1_linear)"/>
<path d="M35.936 122.084C34.9653 122.084 34.088 121.869 33.304 121.44C32.5293 121.011 31.918 120.418 31.47 119.662C31.0313 118.897 30.812 118.043 30.812 117.1C30.812 116.157 31.0313 115.308 31.47 114.552C31.918 113.787 32.534 113.189 33.318 112.76C34.102 112.331 34.9793 112.116 35.95 112.116C36.678 112.116 37.35 112.237 37.966 112.48C38.582 112.723 39.1047 113.077 39.534 113.544L38.876 114.202C38.1107 113.427 37.1447 113.04 35.978 113.04C35.2033 113.04 34.4987 113.217 33.864 113.572C33.2293 113.927 32.73 114.412 32.366 115.028C32.0113 115.644 31.834 116.335 31.834 117.1C31.834 117.865 32.0113 118.556 32.366 119.172C32.73 119.788 33.2293 120.273 33.864 120.628C34.4987 120.983 35.2033 121.16 35.978 121.16C37.154 121.16 38.12 120.768 38.876 119.984L39.534 120.642C39.1047 121.109 38.5773 121.468 37.952 121.72C37.336 121.963 36.664 122.084 35.936 122.084ZM46.4104 115.518H43.6244V122H42.6304V115.518H39.8444V114.636H46.4104V115.518ZM54.1329 114.636L50.4509 122.882C50.1523 123.573 49.8069 124.063 49.4149 124.352C49.0229 124.641 48.5516 124.786 48.0009 124.786C47.6463 124.786 47.3149 124.73 47.0069 124.618C46.6989 124.506 46.4329 124.338 46.2089 124.114L46.6709 123.372C47.0443 123.745 47.4923 123.932 48.0149 123.932C48.3509 123.932 48.6356 123.839 48.8689 123.652C49.1116 123.465 49.3356 123.148 49.5409 122.7L49.8629 121.986L46.5729 114.636H47.6089L50.3809 120.894L53.1529 114.636H54.1329ZM61.3735 114.636V122H60.3795V115.518H56.8515L56.7535 117.338C56.6788 118.869 56.5015 120.045 56.2215 120.866C55.9415 121.687 55.4421 122.098 54.7235 122.098C54.5275 122.098 54.2895 122.061 54.0095 121.986L54.0795 121.132C54.2475 121.169 54.3641 121.188 54.4295 121.188C54.8121 121.188 55.1015 121.011 55.2975 120.656C55.4935 120.301 55.6241 119.863 55.6895 119.34C55.7548 118.817 55.8108 118.127 55.8575 117.268L55.9835 114.636H61.3735ZM75.0452 121.132V123.778H74.1072V122H67.5132V123.778H66.5752V121.132H66.9952C67.4899 121.104 67.8259 120.74 68.0032 120.04C68.1806 119.34 68.3019 118.36 68.3672 117.1L68.4652 114.636H73.8972V121.132H75.0452ZM69.2772 117.156C69.2306 118.201 69.1419 119.065 69.0112 119.746C68.8806 120.418 68.6472 120.88 68.3112 121.132H72.9032V115.518H69.3612L69.2772 117.156ZM83.0024 114.636V122H82.0084V115.518H78.4804L78.3824 117.338C78.3077 118.869 78.1304 120.045 77.8504 120.866C77.5704 121.687 77.071 122.098 76.3524 122.098C76.1564 122.098 75.9184 122.061 75.6384 121.986L75.7084 121.132C75.8764 121.169 75.993 121.188 76.0584 121.188C76.441 121.188 76.7304 121.011 76.9264 120.656C77.1224 120.301 77.253 119.863 77.3184 119.34C77.3837 118.817 77.4397 118.127 77.4864 117.268L77.6124 114.636H83.0024ZM91.4841 114.636V122H90.5741V119.564H88.2641H87.9841L86.2761 122H85.1981L87.0321 119.424C86.4627 119.265 86.0241 118.995 85.7161 118.612C85.4081 118.229 85.2541 117.744 85.2541 117.156C85.2541 116.335 85.5341 115.709 86.0941 115.28C86.6541 114.851 87.4194 114.636 88.3901 114.636H91.4841ZM86.2621 117.184C86.2621 118.276 86.9574 118.822 88.3481 118.822H90.5741V115.518H88.4181C86.9807 115.518 86.2621 116.073 86.2621 117.184ZM100.656 118.724H98.9764V122H97.9824V114.636H98.9764V117.87H100.67L103.26 114.636H104.338L101.44 118.206L104.548 122H103.372L100.656 118.724ZM108.895 122.07C108.186 122.07 107.547 121.911 106.977 121.594C106.408 121.267 105.96 120.819 105.633 120.25C105.307 119.681 105.143 119.037 105.143 118.318C105.143 117.599 105.307 116.955 105.633 116.386C105.96 115.817 106.408 115.373 106.977 115.056C107.547 114.739 108.186 114.58 108.895 114.58C109.605 114.58 110.244 114.739 110.813 115.056C111.383 115.373 111.826 115.817 112.143 116.386C112.47 116.955 112.633 117.599 112.633 118.318C112.633 119.037 112.47 119.681 112.143 120.25C111.826 120.819 111.383 121.267 110.813 121.594C110.244 121.911 109.605 122.07 108.895 122.07ZM108.895 121.188C109.418 121.188 109.885 121.071 110.295 120.838C110.715 120.595 111.042 120.255 111.275 119.816C111.509 119.377 111.625 118.878 111.625 118.318C111.625 117.758 111.509 117.259 111.275 116.82C111.042 116.381 110.715 116.045 110.295 115.812C109.885 115.569 109.418 115.448 108.895 115.448C108.373 115.448 107.901 115.569 107.481 115.812C107.071 116.045 106.744 116.381 106.501 116.82C106.268 117.259 106.151 117.758 106.151 118.318C106.151 118.878 106.268 119.377 106.501 119.816C106.744 120.255 107.071 120.595 107.481 120.838C107.901 121.071 108.373 121.188 108.895 121.188ZM118.552 114.58C119.242 114.58 119.868 114.739 120.428 115.056C120.988 115.364 121.426 115.803 121.744 116.372C122.061 116.941 122.22 117.59 122.22 118.318C122.22 119.055 122.061 119.709 121.744 120.278C121.426 120.847 120.988 121.291 120.428 121.608C119.877 121.916 119.252 122.07 118.552 122.07C117.954 122.07 117.413 121.949 116.928 121.706C116.452 121.454 116.06 121.09 115.752 120.614V124.716H114.758V114.636H115.71V116.092C116.008 115.607 116.4 115.233 116.886 114.972C117.38 114.711 117.936 114.58 118.552 114.58ZM118.482 121.188C118.995 121.188 119.462 121.071 119.882 120.838C120.302 120.595 120.628 120.255 120.862 119.816C121.104 119.377 121.226 118.878 121.226 118.318C121.226 117.758 121.104 117.263 120.862 116.834C120.628 116.395 120.302 116.055 119.882 115.812C119.462 115.569 118.995 115.448 118.482 115.448C117.959 115.448 117.488 115.569 117.068 115.812C116.657 116.055 116.33 116.395 116.088 116.834C115.854 117.263 115.738 117.758 115.738 118.318C115.738 118.878 115.854 119.377 116.088 119.816C116.33 120.255 116.657 120.595 117.068 120.838C117.488 121.071 117.959 121.188 118.482 121.188ZM132.587 114.636V122H131.677V116.176L128.695 121.104H128.247L125.265 116.162V122H124.355V114.636H125.363L128.485 119.942L131.663 114.636H132.587ZM141.436 114.636V122H140.442V115.518H136.914L136.816 117.338C136.741 118.869 136.564 120.045 136.284 120.866C136.004 121.687 135.505 122.098 134.786 122.098C134.59 122.098 134.352 122.061 134.072 121.986L134.142 121.132C134.31 121.169 134.427 121.188 134.492 121.188C134.875 121.188 135.164 121.011 135.36 120.656C135.556 120.301 135.687 119.863 135.752 119.34C135.817 118.817 135.873 118.127 135.92 117.268L136.046 114.636H141.436ZM150.702 118.626H144.542C144.598 119.391 144.892 120.012 145.424 120.488C145.956 120.955 146.628 121.188 147.44 121.188C147.897 121.188 148.317 121.109 148.7 120.95C149.082 120.782 149.414 120.539 149.694 120.222L150.254 120.866C149.927 121.258 149.516 121.557 149.022 121.762C148.536 121.967 148 122.07 147.412 122.07C146.656 122.07 145.984 121.911 145.396 121.594C144.817 121.267 144.364 120.819 144.038 120.25C143.711 119.681 143.548 119.037 143.548 118.318C143.548 117.599 143.702 116.955 144.01 116.386C144.327 115.817 144.756 115.373 145.298 115.056C145.848 114.739 146.464 114.58 147.146 114.58C147.827 114.58 148.438 114.739 148.98 115.056C149.521 115.373 149.946 115.817 150.254 116.386C150.562 116.946 150.716 117.59 150.716 118.318L150.702 118.626ZM147.146 115.434C146.436 115.434 145.839 115.663 145.354 116.12C144.878 116.568 144.607 117.156 144.542 117.884H149.764C149.698 117.156 149.423 116.568 148.938 116.12C148.462 115.663 147.864 115.434 147.146 115.434ZM152.916 114.636H153.91V117.898H158.544V114.636H159.538V122H158.544V118.752H153.91V122H152.916V114.636ZM162.363 114.636H163.357V120.488L168.271 114.636H169.153V122H168.159V116.148L163.259 122H162.363V114.636ZM177.658 114.636V122H176.748V119.564H174.438H174.158L172.45 122H171.372L173.206 119.424C172.637 119.265 172.198 118.995 171.89 118.612C171.582 118.229 171.428 117.744 171.428 117.156C171.428 116.335 171.708 115.709 172.268 115.28C172.828 114.851 173.593 114.636 174.564 114.636H177.658ZM172.436 117.184C172.436 118.276 173.131 118.822 174.522 118.822H176.748V115.518H174.592C173.155 115.518 172.436 116.073 172.436 117.184Z" fill="#1F2041" fill-opacity="0.5"/>
<rect x="0.5" y="107.5" width="19" height="19" rx="3.5" fill="white" stroke="#BC9CFF"/>
<path d="M6.46439 115.292L10.707 119.535L9.29282 120.949L5.05018 116.707L6.46439 115.292Z" fill="url(#paint2_linear)"/>
<path d="M13.5355 113.878L14.9497 115.292L9.29282 120.949L7.8786 119.535L13.5355 113.878Z" fill="url(#paint3_linear)"/>
<path d="M34.9 147.506H32.66V152H31.652V142.2H32.66V146.596H34.9L38.218 142.2H39.338L35.698 146.96L39.548 152H38.358L34.9 147.506ZM44.9014 144.58C45.592 144.58 46.2174 144.739 46.7774 145.056C47.3374 145.364 47.776 145.803 48.0934 146.372C48.4107 146.941 48.5694 147.59 48.5694 148.318C48.5694 149.055 48.4107 149.709 48.0934 150.278C47.776 150.847 47.3374 151.291 46.7774 151.608C46.2267 151.916 45.6014 152.07 44.9014 152.07C44.304 152.07 43.7627 151.949 43.2774 151.706C42.8014 151.454 42.4094 151.09 42.1014 150.614V154.716H41.1074V144.636H42.0594V146.092C42.358 145.607 42.75 145.233 43.2354 144.972C43.73 144.711 44.2854 144.58 44.9014 144.58ZM44.8314 151.188C45.3447 151.188 45.8114 151.071 46.2314 150.838C46.6514 150.595 46.978 150.255 47.2114 149.816C47.454 149.377 47.5754 148.878 47.5754 148.318C47.5754 147.758 47.454 147.263 47.2114 146.834C46.978 146.395 46.6514 146.055 46.2314 145.812C45.8114 145.569 45.3447 145.448 44.8314 145.448C44.3087 145.448 43.8374 145.569 43.4174 145.812C43.0067 146.055 42.68 146.395 42.4374 146.834C42.204 147.263 42.0874 147.758 42.0874 148.318C42.0874 148.878 42.204 149.377 42.4374 149.816C42.68 150.255 43.0067 150.595 43.4174 150.838C43.8374 151.071 44.3087 151.188 44.8314 151.188ZM53.743 152.07C53.0337 152.07 52.3943 151.911 51.825 151.594C51.2557 151.267 50.8077 150.819 50.481 150.25C50.1543 149.681 49.991 149.037 49.991 148.318C49.991 147.599 50.1543 146.955 50.481 146.386C50.8077 145.817 51.2557 145.373 51.825 145.056C52.3943 144.739 53.0337 144.58 53.743 144.58C54.4523 144.58 55.0917 144.739 55.661 145.056C56.2303 145.373 56.6737 145.817 56.991 146.386C57.3177 146.955 57.481 147.599 57.481 148.318C57.481 149.037 57.3177 149.681 56.991 150.25C56.6737 150.819 56.2303 151.267 55.661 151.594C55.0917 151.911 54.4523 152.07 53.743 152.07ZM53.743 151.188C54.2657 151.188 54.7323 151.071 55.143 150.838C55.563 150.595 55.8897 150.255 56.123 149.816C56.3563 149.377 56.473 148.878 56.473 148.318C56.473 147.758 56.3563 147.259 56.123 146.82C55.8897 146.381 55.563 146.045 55.143 145.812C54.7323 145.569 54.2657 145.448 53.743 145.448C53.2203 145.448 52.749 145.569 52.329 145.812C51.9183 146.045 51.5917 146.381 51.349 146.82C51.1157 147.259 50.999 147.758 50.999 148.318C50.999 148.878 51.1157 149.377 51.349 149.816C51.5917 150.255 51.9183 150.595 52.329 150.838C52.749 151.071 53.2203 151.188 53.743 151.188ZM64.2954 148.192C65.2941 148.425 65.7934 149.027 65.7934 149.998C65.7934 150.642 65.5554 151.137 65.0794 151.482C64.6034 151.827 63.8941 152 62.9514 152H59.6054V144.636H62.8534C63.6934 144.636 64.3514 144.799 64.8274 145.126C65.3034 145.453 65.5414 145.919 65.5414 146.526C65.5414 146.927 65.4294 147.273 65.2054 147.562C64.9907 147.842 64.6874 148.052 64.2954 148.192ZM60.5714 147.912H62.7834C63.3527 147.912 63.7867 147.805 64.0854 147.59C64.3934 147.375 64.5474 147.063 64.5474 146.652C64.5474 146.241 64.3934 145.933 64.0854 145.728C63.7867 145.523 63.3527 145.42 62.7834 145.42H60.5714V147.912ZM62.9094 151.216C63.5441 151.216 64.0201 151.113 64.3374 150.908C64.6547 150.703 64.8134 150.381 64.8134 149.942C64.8134 149.503 64.6687 149.181 64.3794 148.976C64.0901 148.761 63.6327 148.654 63.0074 148.654H60.5714V151.216H62.9094ZM70.657 144.58C71.6183 144.58 72.3557 144.823 72.869 145.308C73.3823 145.784 73.639 146.493 73.639 147.436V152H72.687V150.852C72.463 151.235 72.1317 151.533 71.693 151.748C71.2637 151.963 70.7503 152.07 70.153 152.07C69.3317 152.07 68.6783 151.874 68.193 151.482C67.7077 151.09 67.465 150.572 67.465 149.928C67.465 149.303 67.689 148.799 68.137 148.416C68.5943 148.033 69.3177 147.842 70.307 147.842H72.645V147.394C72.645 146.759 72.4677 146.279 72.113 145.952C71.7583 145.616 71.2403 145.448 70.559 145.448C70.0923 145.448 69.6443 145.527 69.215 145.686C68.7857 145.835 68.417 146.045 68.109 146.316L67.661 145.574C68.0343 145.257 68.4823 145.014 69.005 144.846C69.5277 144.669 70.0783 144.58 70.657 144.58ZM70.307 151.286C70.867 151.286 71.3477 151.16 71.749 150.908C72.1503 150.647 72.449 150.273 72.645 149.788V148.584H70.335C69.075 148.584 68.445 149.023 68.445 149.9C68.445 150.329 68.6083 150.67 68.935 150.922C69.2617 151.165 69.719 151.286 70.307 151.286ZM81.4651 145.518H78.6791V152H77.6851V145.518H74.8991V144.636H81.4651V145.518ZM85.5763 148.724H83.8963V152H82.9023V144.636H83.8963V147.87H85.5903L88.1803 144.636H89.2583L86.3603 148.206L89.4683 152H88.2923L85.5763 148.724ZM93.4343 144.58C94.3957 144.58 95.133 144.823 95.6463 145.308C96.1597 145.784 96.4163 146.493 96.4163 147.436V152H95.4643V150.852C95.2403 151.235 94.909 151.533 94.4703 151.748C94.041 151.963 93.5277 152.07 92.9303 152.07C92.109 152.07 91.4557 151.874 90.9703 151.482C90.485 151.09 90.2423 150.572 90.2423 149.928C90.2423 149.303 90.4663 148.799 90.9143 148.416C91.3717 148.033 92.095 147.842 93.0843 147.842H95.4223V147.394C95.4223 146.759 95.245 146.279 94.8903 145.952C94.5357 145.616 94.0177 145.448 93.3363 145.448C92.8697 145.448 92.4217 145.527 91.9923 145.686C91.563 145.835 91.1943 146.045 90.8863 146.316L90.4383 145.574C90.8117 145.257 91.2597 145.014 91.7823 144.846C92.305 144.669 92.8557 144.58 93.4343 144.58ZM93.0843 151.286C93.6443 151.286 94.125 151.16 94.5263 150.908C94.9277 150.647 95.2263 150.273 95.4223 149.788V148.584H93.1123C91.8523 148.584 91.2223 149.023 91.2223 149.9C91.2223 150.329 91.3857 150.67 91.7123 150.922C92.039 151.165 92.4963 151.286 93.0843 151.286Z" fill="#1F2041" fill-opacity="0.5"/>
<rect x="0.5" y="137.5" width="19" height="19" rx="3.5" fill="white" stroke="#BC9CFF"/>
<path d="M6.46439 145.292L10.707 149.535L9.29282 150.949L5.05018 146.707L6.46439 145.292Z" fill="url(#paint4_linear)"/>
<path d="M13.5355 143.878L14.9497 145.292L9.29282 150.949L7.8786 149.535L13.5355 143.878Z" fill="url(#paint5_linear)"/>
<rect y="46.4424" width="20" height="20" rx="4" fill="white"/>
<rect x="0.5" y="46.9424" width="19" height="19" rx="3.5" stroke="#1F2041" stroke-opacity="0.25"/>
<path d="M35.6443 55.876C36.2883 56.0347 36.7923 56.324 37.1563 56.744C37.5297 57.164 37.7163 57.668 37.7163 58.256C37.7163 58.8253 37.539 59.3247 37.1843 59.754C36.8297 60.1833 36.3583 60.5147 35.7703 60.748C35.1823 60.972 34.543 61.084 33.8523 61.084C33.199 61.084 32.555 60.9813 31.9203 60.776C31.295 60.5613 30.7303 60.244 30.2263 59.824L30.6043 59.082C31.0337 59.446 31.5237 59.726 32.0743 59.922C32.625 60.1087 33.1803 60.202 33.7403 60.202C34.2723 60.202 34.7623 60.118 35.2103 59.95C35.6583 59.782 36.013 59.544 36.2743 59.236C36.545 58.9187 36.6803 58.5453 36.6803 58.116C36.6803 57.5467 36.4563 57.108 36.0083 56.8C35.5603 56.492 34.9303 56.338 34.1183 56.338H32.0183V55.498H34.0623C34.753 55.498 35.2897 55.3533 35.6723 55.064C36.0643 54.7653 36.2603 54.3547 36.2603 53.832C36.2603 53.2533 36.013 52.8007 35.5183 52.474C35.0237 52.138 34.403 51.97 33.6563 51.97C33.1897 51.97 32.7183 52.04 32.2423 52.18C31.7663 52.3107 31.3137 52.5113 30.8843 52.782L30.5343 51.928C31.505 51.3493 32.555 51.06 33.6843 51.06C34.347 51.06 34.9537 51.1673 35.5043 51.382C36.055 51.5967 36.489 51.9047 36.8063 52.306C37.133 52.7073 37.2963 53.1787 37.2963 53.72C37.2963 54.2427 37.1517 54.6953 36.8623 55.078C36.573 55.4513 36.167 55.7173 35.6443 55.876ZM42.5847 53.58C43.5461 53.58 44.2834 53.8227 44.7967 54.308C45.3101 54.784 45.5667 55.4933 45.5667 56.436V61H44.6147V59.852C44.3907 60.2347 44.0594 60.5333 43.6207 60.748C43.1914 60.9627 42.6781 61.07 42.0807 61.07C41.2594 61.07 40.6061 60.874 40.1207 60.482C39.6354 60.09 39.3927 59.572 39.3927 58.928C39.3927 58.3027 39.6167 57.7987 40.0647 57.416C40.5221 57.0333 41.2454 56.842 42.2347 56.842H44.5727V56.394C44.5727 55.7593 44.3954 55.2787 44.0407 54.952C43.6861 54.616 43.1681 54.448 42.4867 54.448C42.0201 54.448 41.5721 54.5273 41.1427 54.686C40.7134 54.8353 40.3447 55.0453 40.0367 55.316L39.5887 54.574C39.9621 54.2567 40.4101 54.014 40.9327 53.846C41.4554 53.6687 42.0061 53.58 42.5847 53.58ZM42.2347 60.286C42.7947 60.286 43.2754 60.16 43.6767 59.908C44.0781 59.6467 44.3767 59.2733 44.5727 58.788V57.584H42.2627C41.0027 57.584 40.3727 58.0227 40.3727 58.9C40.3727 59.3293 40.5361 59.67 40.8627 59.922C41.1894 60.1647 41.6467 60.286 42.2347 60.286ZM52.9028 57.192C53.9015 57.4253 54.4008 58.0273 54.4008 58.998C54.4008 59.642 54.1628 60.1367 53.6868 60.482C53.2108 60.8273 52.5015 61 51.5588 61H48.2128V53.636H51.4608C52.3008 53.636 52.9588 53.7993 53.4348 54.126C53.9108 54.4527 54.1488 54.9193 54.1488 55.526C54.1488 55.9273 54.0368 56.2727 53.8128 56.562C53.5982 56.842 53.2948 57.052 52.9028 57.192ZM49.1788 56.912H51.3908C51.9602 56.912 52.3942 56.8047 52.6928 56.59C53.0008 56.3753 53.1548 56.0627 53.1548 55.652C53.1548 55.2413 53.0008 54.9333 52.6928 54.728C52.3942 54.5227 51.9602 54.42 51.3908 54.42H49.1788V56.912ZM51.5168 60.216C52.1515 60.216 52.6275 60.1133 52.9448 59.908C53.2622 59.7027 53.4208 59.3807 53.4208 58.942C53.4208 58.5033 53.2762 58.1813 52.9868 57.976C52.6975 57.7613 52.2402 57.654 51.6148 57.654H49.1788V60.216H51.5168ZM61.9104 54.518H59.1244V61H58.1304V54.518H55.3444V53.636H61.9104V54.518ZM67.1416 53.58C67.8323 53.58 68.4576 53.7387 69.0176 54.056C69.5776 54.364 70.0163 54.8027 70.3336 55.372C70.6509 55.9413 70.8096 56.59 70.8096 57.318C70.8096 58.0553 70.6509 58.7087 70.3336 59.278C70.0163 59.8473 69.5776 60.2907 69.0176 60.608C68.4669 60.916 67.8416 61.07 67.1416 61.07C66.5443 61.07 66.0029 60.9487 65.5176 60.706C65.0416 60.454 64.6496 60.09 64.3416 59.614V63.716H63.3476V53.636H64.2996V55.092C64.5983 54.6067 64.9903 54.2333 65.4756 53.972C65.9703 53.7107 66.5256 53.58 67.1416 53.58ZM67.0716 60.188C67.5849 60.188 68.0516 60.0713 68.4716 59.838C68.8916 59.5953 69.2183 59.2547 69.4516 58.816C69.6943 58.3773 69.8156 57.878 69.8156 57.318C69.8156 56.758 69.6943 56.2633 69.4516 55.834C69.2183 55.3953 68.8916 55.0547 68.4716 54.812C68.0516 54.5693 67.5849 54.448 67.0716 54.448C66.5489 54.448 66.0776 54.5693 65.6576 54.812C65.2469 55.0547 64.9203 55.3953 64.6776 55.834C64.4443 56.2633 64.3276 56.758 64.3276 57.318C64.3276 57.878 64.4443 58.3773 64.6776 58.816C64.9203 59.2547 65.2469 59.5953 65.6576 59.838C66.0776 60.0713 66.5489 60.188 67.0716 60.188ZM75.4382 53.58C76.3996 53.58 77.1369 53.8227 77.6502 54.308C78.1636 54.784 78.4202 55.4933 78.4202 56.436V61H77.4682V59.852C77.2442 60.2347 76.9129 60.5333 76.4742 60.748C76.0449 60.9627 75.5316 61.07 74.9342 61.07C74.1129 61.07 73.4596 60.874 72.9742 60.482C72.4889 60.09 72.2462 59.572 72.2462 58.928C72.2462 58.3027 72.4702 57.7987 72.9182 57.416C73.3756 57.0333 74.0989 56.842 75.0882 56.842H77.4262V56.394C77.4262 55.7593 77.2489 55.2787 76.8942 54.952C76.5396 54.616 76.0216 54.448 75.3402 54.448C74.8736 54.448 74.4256 54.5273 73.9962 54.686C73.5669 54.8353 73.1982 55.0453 72.8902 55.316L72.4422 54.574C72.8156 54.2567 73.2636 54.014 73.7862 53.846C74.3089 53.6687 74.8596 53.58 75.4382 53.58ZM75.0882 60.286C75.6482 60.286 76.1289 60.16 76.5302 59.908C76.9316 59.6467 77.2302 59.2733 77.4262 58.788V57.584H75.1162C73.8562 57.584 73.2262 58.0227 73.2262 58.9C73.2262 59.3293 73.3896 59.67 73.7162 59.922C74.0429 60.1647 74.5002 60.286 75.0882 60.286ZM83.7403 57.724H82.0603V61H81.0663V53.636H82.0603V56.87H83.7543L86.3443 53.636H87.4223L84.5243 57.206L87.6323 61H86.4563L83.7403 57.724Z" fill="#1F2041" fill-opacity="0.5"/>
<rect y="197.442" width="20" height="20" rx="4" fill="white"/>
<rect x="0.5" y="197.942" width="19" height="19" rx="3.5" stroke="#1F2041" stroke-opacity="0.25"/>
<path d="M43.4003 202.2V212H31.3883V202.2H32.4103V211.104H36.8903V202.2H37.9123V211.104H42.3783V202.2H43.4003ZM48.9968 204.58C49.9582 204.58 50.6955 204.823 51.2088 205.308C51.7222 205.784 51.9788 206.493 51.9788 207.436V212H51.0268V210.852C50.8028 211.235 50.4715 211.533 50.0328 211.748C49.6035 211.963 49.0902 212.07 48.4928 212.07C47.6715 212.07 47.0182 211.874 46.5328 211.482C46.0475 211.09 45.8048 210.572 45.8048 209.928C45.8048 209.303 46.0288 208.799 46.4768 208.416C46.9342 208.033 47.6575 207.842 48.6468 207.842H50.9848V207.394C50.9848 206.759 50.8075 206.279 50.4528 205.952C50.0982 205.616 49.5802 205.448 48.8988 205.448C48.4322 205.448 47.9842 205.527 47.5548 205.686C47.1255 205.835 46.7568 206.045 46.4488 206.316L46.0008 205.574C46.3742 205.257 46.8222 205.014 47.3448 204.846C47.8675 204.669 48.4182 204.58 48.9968 204.58ZM48.6468 211.286C49.2068 211.286 49.6875 211.16 50.0888 210.908C50.4902 210.647 50.7888 210.273 50.9848 209.788V208.584H48.6748C47.4148 208.584 46.7848 209.023 46.7848 209.9C46.7848 210.329 46.9482 210.67 47.2748 210.922C47.6015 211.165 48.0588 211.286 48.6468 211.286ZM62.8569 204.636V212H61.9469V206.176L58.9649 211.104H58.5169L55.5349 206.162V212H54.6249V204.636H55.6329L58.7549 209.942L61.9329 204.636H62.8569ZM72.2935 204.636V212H71.2995V205.518H66.6795V212H65.6855V204.636H72.2935ZM81.3771 204.636L77.6951 212.882C77.3964 213.573 77.0511 214.063 76.6591 214.352C76.2671 214.641 75.7957 214.786 75.2451 214.786C74.8904 214.786 74.5591 214.73 74.2511 214.618C73.9431 214.506 73.6771 214.338 73.4531 214.114L73.9151 213.372C74.2884 213.745 74.7364 213.932 75.2591 213.932C75.5951 213.932 75.8797 213.839 76.1131 213.652C76.3557 213.465 76.5797 213.148 76.7851 212.7L77.1071 211.986L73.8171 204.636H74.8531L77.6251 210.894L80.3971 204.636H81.3771ZM82.9257 204.636H83.9197V207.898H88.5537V204.636H89.5477V212H88.5537V208.752H83.9197V212H82.9257V204.636ZM95.537 207.24C96.461 207.249 97.161 207.455 97.637 207.856C98.1223 208.257 98.365 208.836 98.365 209.592C98.365 210.376 98.1037 210.978 97.581 211.398C97.0677 211.818 96.321 212.023 95.341 212.014L92.373 212V204.636H93.367V207.212L95.537 207.24ZM95.285 211.258C95.9663 211.267 96.4797 211.132 96.825 210.852C97.1797 210.563 97.357 210.143 97.357 209.592C97.357 209.051 97.1843 208.649 96.839 208.388C96.4937 208.127 95.9757 207.991 95.285 207.982L93.367 207.954V211.23L95.285 211.258Z" fill="#1F2041" fill-opacity="0.5"/>
<rect y="167.442" width="20" height="20" rx="4" fill="white"/>
<rect x="0.5" y="167.942" width="19" height="19" rx="3.5" stroke="#1F2041" stroke-opacity="0.25"/>
<path d="M37.8003 173.096H34.3563V182H33.3343V173.096H29.8903V172.2H37.8003V173.096ZM45.0552 178.626H38.8952C38.9512 179.391 39.2452 180.012 39.7772 180.488C40.3092 180.955 40.9812 181.188 41.7932 181.188C42.2505 181.188 42.6705 181.109 43.0532 180.95C43.4358 180.782 43.7672 180.539 44.0472 180.222L44.6072 180.866C44.2805 181.258 43.8698 181.557 43.3752 181.762C42.8898 181.967 42.3532 182.07 41.7652 182.07C41.0092 182.07 40.3372 181.911 39.7492 181.594C39.1705 181.267 38.7178 180.819 38.3912 180.25C38.0645 179.681 37.9012 179.037 37.9012 178.318C37.9012 177.599 38.0552 176.955 38.3632 176.386C38.6805 175.817 39.1098 175.373 39.6512 175.056C40.2018 174.739 40.8178 174.58 41.4992 174.58C42.1805 174.58 42.7918 174.739 43.3332 175.056C43.8745 175.373 44.2992 175.817 44.6072 176.386C44.9152 176.946 45.0692 177.59 45.0692 178.318L45.0552 178.626ZM41.4992 175.434C40.7898 175.434 40.1925 175.663 39.7072 176.12C39.2312 176.568 38.9605 177.156 38.8952 177.884H44.1172C44.0518 177.156 43.7765 176.568 43.2912 176.12C42.8152 175.663 42.2178 175.434 41.4992 175.434ZM53.1391 174.636V182H52.1451V175.518H48.6171L48.5191 177.338C48.4444 178.869 48.2671 180.045 47.9871 180.866C47.7071 181.687 47.2077 182.098 46.4891 182.098C46.2931 182.098 46.0551 182.061 45.7751 181.986L45.8451 181.132C46.0131 181.169 46.1297 181.188 46.1951 181.188C46.5777 181.188 46.8671 181.011 47.0631 180.656C47.2591 180.301 47.3897 179.863 47.4551 179.34C47.5204 178.817 47.5764 178.127 47.6231 177.268L47.7491 174.636H53.1391ZM62.4048 178.626H56.2448C56.3008 179.391 56.5948 180.012 57.1268 180.488C57.6588 180.955 58.3308 181.188 59.1428 181.188C59.6001 181.188 60.0201 181.109 60.4028 180.95C60.7854 180.782 61.1168 180.539 61.3968 180.222L61.9568 180.866C61.6301 181.258 61.2194 181.557 60.7248 181.762C60.2394 181.967 59.7028 182.07 59.1148 182.07C58.3588 182.07 57.6868 181.911 57.0988 181.594C56.5201 181.267 56.0674 180.819 55.7408 180.25C55.4141 179.681 55.2508 179.037 55.2508 178.318C55.2508 177.599 55.4048 176.955 55.7128 176.386C56.0301 175.817 56.4594 175.373 57.0008 175.056C57.5514 174.739 58.1674 174.58 58.8488 174.58C59.5301 174.58 60.1414 174.739 60.6828 175.056C61.2241 175.373 61.6488 175.817 61.9568 176.386C62.2648 176.946 62.4188 177.59 62.4188 178.318L62.4048 178.626ZM58.8488 175.434C58.1394 175.434 57.5421 175.663 57.0568 176.12C56.5808 176.568 56.3101 177.156 56.2448 177.884H61.4668C61.4014 177.156 61.1261 176.568 60.6408 176.12C60.1648 175.663 59.5674 175.434 58.8488 175.434ZM69.3091 178.192C70.3077 178.425 70.8071 179.027 70.8071 179.998C70.8071 180.642 70.5691 181.137 70.0931 181.482C69.6171 181.827 68.9077 182 67.9651 182H64.6191V174.636H67.8671C68.7071 174.636 69.3651 174.799 69.8411 175.126C70.3171 175.453 70.5551 175.919 70.5551 176.526C70.5551 176.927 70.4431 177.273 70.2191 177.562C70.0044 177.842 69.7011 178.052 69.3091 178.192ZM65.5851 177.912H67.7971C68.3664 177.912 68.8004 177.805 69.0991 177.59C69.4071 177.375 69.5611 177.063 69.5611 176.652C69.5611 176.241 69.4071 175.933 69.0991 175.728C68.8004 175.523 68.3664 175.42 67.7971 175.42H65.5851V177.912ZM67.9231 181.216C68.5577 181.216 69.0337 181.113 69.3511 180.908C69.6684 180.703 69.8271 180.381 69.8271 179.942C69.8271 179.503 69.6824 179.181 69.3931 178.976C69.1037 178.761 68.6464 178.654 68.0211 178.654H65.5851V181.216H67.9231ZM73.1367 174.636H74.1307V180.488L79.0447 174.636H79.9267V182H78.9327V176.148L74.0327 182H73.1367V174.636ZM86.2089 178.164C86.7316 178.285 87.1329 178.495 87.4129 178.794C87.7023 179.093 87.8469 179.457 87.8469 179.886C87.8469 180.315 87.6976 180.698 87.3989 181.034C87.1096 181.37 86.7129 181.631 86.2089 181.818C85.7049 181.995 85.1496 182.084 84.5429 182.084C84.0109 182.084 83.4883 182.009 82.9749 181.86C82.4616 181.701 82.0136 181.473 81.6309 181.174L81.9669 180.432C82.3029 180.684 82.6949 180.88 83.1429 181.02C83.5909 181.16 84.0436 181.23 84.5009 181.23C85.1823 181.23 85.7376 181.104 86.1669 180.852C86.6056 180.591 86.8249 180.241 86.8249 179.802C86.8249 179.41 86.6476 179.107 86.2929 178.892C85.9383 178.668 85.4529 178.556 84.8369 178.556H83.5769V177.828H84.7809C85.3316 177.828 85.7749 177.725 86.1109 177.52C86.4469 177.305 86.6149 177.021 86.6149 176.666C86.6149 176.274 86.4236 175.966 86.0409 175.742C85.6676 175.518 85.1776 175.406 84.5709 175.406C83.7776 175.406 82.9936 175.607 82.2189 176.008L81.9389 175.238C82.8163 174.781 83.7263 174.552 84.6689 174.552C85.2289 174.552 85.7329 174.636 86.1809 174.804C86.6383 174.963 86.9929 175.191 87.2449 175.49C87.5063 175.789 87.6369 176.134 87.6369 176.526C87.6369 176.899 87.5063 177.231 87.2449 177.52C86.9929 177.809 86.6476 178.024 86.2089 178.164ZM93.1415 182.07C92.4321 182.07 91.7928 181.911 91.2235 181.594C90.6541 181.267 90.2061 180.819 89.8795 180.25C89.5528 179.681 89.3895 179.037 89.3895 178.318C89.3895 177.599 89.5528 176.955 89.8795 176.386C90.2061 175.817 90.6541 175.373 91.2235 175.056C91.7928 174.739 92.4321 174.58 93.1415 174.58C93.8508 174.58 94.4901 174.739 95.0595 175.056C95.6288 175.373 96.0721 175.817 96.3895 176.386C96.7161 176.955 96.8795 177.599 96.8795 178.318C96.8795 179.037 96.7161 179.681 96.3895 180.25C96.0721 180.819 95.6288 181.267 95.0595 181.594C94.4901 181.911 93.8508 182.07 93.1415 182.07ZM93.1415 181.188C93.6641 181.188 94.1308 181.071 94.5415 180.838C94.9615 180.595 95.2881 180.255 95.5215 179.816C95.7548 179.377 95.8715 178.878 95.8715 178.318C95.8715 177.758 95.7548 177.259 95.5215 176.82C95.2881 176.381 94.9615 176.045 94.5415 175.812C94.1308 175.569 93.6641 175.448 93.1415 175.448C92.6188 175.448 92.1475 175.569 91.7275 175.812C91.3168 176.045 90.9901 176.381 90.7475 176.82C90.5141 177.259 90.3975 177.758 90.3975 178.318C90.3975 178.878 90.5141 179.377 90.7475 179.816C90.9901 180.255 91.3168 180.595 91.7275 180.838C92.1475 181.071 92.6188 181.188 93.1415 181.188ZM102.798 174.58C103.489 174.58 104.114 174.739 104.674 175.056C105.234 175.364 105.673 175.803 105.99 176.372C106.307 176.941 106.466 177.59 106.466 178.318C106.466 179.055 106.307 179.709 105.99 180.278C105.673 180.847 105.234 181.291 104.674 181.608C104.123 181.916 103.498 182.07 102.798 182.07C102.201 182.07 101.659 181.949 101.174 181.706C100.698 181.454 100.306 181.09 99.9978 180.614V184.716H99.0038V174.636H99.9558V176.092C100.255 175.607 100.647 175.233 101.132 174.972C101.627 174.711 102.182 174.58 102.798 174.58ZM102.728 181.188C103.241 181.188 103.708 181.071 104.128 180.838C104.548 180.595 104.875 180.255 105.108 179.816C105.351 179.377 105.472 178.878 105.472 178.318C105.472 177.758 105.351 177.263 105.108 176.834C104.875 176.395 104.548 176.055 104.128 175.812C103.708 175.569 103.241 175.448 102.728 175.448C102.205 175.448 101.734 175.569 101.314 175.812C100.903 176.055 100.577 176.395 100.334 176.834C100.101 177.263 99.9838 177.758 99.9838 178.318C99.9838 178.878 100.101 179.377 100.334 179.816C100.577 180.255 100.903 180.595 101.314 180.838C101.734 181.071 102.205 181.188 102.728 181.188Z" fill="#1F2041" fill-opacity="0.5"/>
<defs>
<linearGradient id="paint0_linear" x1="12.8284" y1="83.1711" x2="7.1715" y2="88.828" gradientUnits="userSpaceOnUse">
<stop stop-color="#BC9CFF"/>
<stop offset="1" stop-color="#8BA4F9"/>
</linearGradient>
<linearGradient id="paint1_linear" x1="12.8284" y1="83.1711" x2="7.1715" y2="88.828" gradientUnits="userSpaceOnUse">
<stop stop-color="#BC9CFF"/>
<stop offset="1" stop-color="#8BA4F9"/>
</linearGradient>
<linearGradient id="paint2_linear" x1="12.8284" y1="113.171" x2="7.1715" y2="118.828" gradientUnits="userSpaceOnUse">
<stop stop-color="#BC9CFF"/>
<stop offset="1" stop-color="#8BA4F9"/>
</linearGradient>
<linearGradient id="paint3_linear" x1="12.8284" y1="113.171" x2="7.1715" y2="118.828" gradientUnits="userSpaceOnUse">
<stop stop-color="#BC9CFF"/>
<stop offset="1" stop-color="#8BA4F9"/>
</linearGradient>
<linearGradient id="paint4_linear" x1="12.8284" y1="143.171" x2="7.1715" y2="148.828" gradientUnits="userSpaceOnUse">
<stop stop-color="#BC9CFF"/>
<stop offset="1" stop-color="#8BA4F9"/>
</linearGradient>
<linearGradient id="paint5_linear" x1="12.8284" y1="143.171" x2="7.1715" y2="148.828" gradientUnits="userSpaceOnUse">
<stop stop-color="#BC9CFF"/>
<stop offset="1" stop-color="#8BA4F9"/>
</linearGradient>
</defs>
</svg>
