<svg width="292" height="160" viewBox="0 0 292 160" fill="none" xmlns="http://www.w3.org/2000/svg">
<path d="M30.6991 48.2V58H29.6771V53.478H23.5451V58H22.5091V48.2H23.5451V52.568H29.6771V48.2H30.6991ZM40.2092 54.626H34.0492C34.1052 55.3913 34.3992 56.012 34.9312 56.488C35.4632 56.9547 36.1352 57.188 36.9472 57.188C37.4045 57.188 37.8245 57.1087 38.2072 56.95C38.5898 56.782 38.9212 56.5393 39.2012 56.222L39.7612 56.866C39.4345 57.258 39.0238 57.5567 38.5292 57.762C38.0438 57.9673 37.5072 58.07 36.9192 58.07C36.1632 58.07 35.4912 57.9113 34.9032 57.594C34.3245 57.2673 33.8718 56.8193 33.5452 56.25C33.2185 55.6807 33.0552 55.0367 33.0552 54.318C33.0552 53.5993 33.2092 52.9553 33.5172 52.386C33.8345 51.8167 34.2638 51.3733 34.8052 51.056C35.3558 50.7387 35.9718 50.58 36.6532 50.58C37.3345 50.58 37.9458 50.7387 38.4872 51.056C39.0285 51.3733 39.4532 51.8167 39.7612 52.386C40.0692 52.946 40.2232 53.59 40.2232 54.318L40.2092 54.626ZM36.6532 51.434C35.9438 51.434 35.3465 51.6627 34.8612 52.12C34.3852 52.568 34.1145 53.156 34.0492 53.884H39.2712C39.2058 53.156 38.9305 52.568 38.4452 52.12C37.9692 51.6627 37.3718 51.434 36.6532 51.434ZM48.2931 50.636V58H47.2991V51.518H43.7711L43.6731 53.338C43.5984 54.8687 43.4211 56.0447 43.1411 56.866C42.8611 57.6873 42.3617 58.098 41.6431 58.098C41.4471 58.098 41.2091 58.0607 40.9291 57.986L40.9991 57.132C41.1671 57.1693 41.2837 57.188 41.3491 57.188C41.7317 57.188 42.0211 57.0107 42.2171 56.656C42.4131 56.3013 42.5437 55.8627 42.6091 55.34C42.6744 54.8173 42.7304 54.1267 42.7771 53.268L42.9031 50.636H48.2931ZM54.2828 53.24C55.2068 53.2493 55.9068 53.4547 56.3828 53.856C56.8681 54.2573 57.1108 54.836 57.1108 55.592C57.1108 56.376 56.8494 56.978 56.3268 57.398C55.8134 57.818 55.0668 58.0233 54.0868 58.014L51.1188 58V50.636H52.1128V53.212L54.2828 53.24ZM54.0308 57.258C54.7121 57.2673 55.2254 57.132 55.5708 56.852C55.9254 56.5627 56.1028 56.1427 56.1028 55.592C56.1028 55.0507 55.9301 54.6493 55.5848 54.388C55.2394 54.1267 54.7214 53.9913 54.0308 53.982L52.1128 53.954V57.23L54.0308 57.258ZM62.5231 54.164C63.0458 54.2853 63.4471 54.4953 63.7271 54.794C64.0164 55.0927 64.1611 55.4567 64.1611 55.886C64.1611 56.3153 64.0118 56.698 63.7131 57.034C63.4238 57.37 63.0271 57.6313 62.5231 57.818C62.0191 57.9953 61.4638 58.084 60.8571 58.084C60.3251 58.084 59.8024 58.0093 59.2891 57.86C58.7758 57.7013 58.3278 57.4727 57.9451 57.174L58.2811 56.432C58.6171 56.684 59.0091 56.88 59.4571 57.02C59.9051 57.16 60.3578 57.23 60.8151 57.23C61.4964 57.23 62.0518 57.104 62.4811 56.852C62.9198 56.5907 63.1391 56.2407 63.1391 55.802C63.1391 55.41 62.9618 55.1067 62.6071 54.892C62.2524 54.668 61.7671 54.556 61.1511 54.556H59.8911V53.828H61.0951C61.6458 53.828 62.0891 53.7253 62.4251 53.52C62.7611 53.3053 62.9291 53.0207 62.9291 52.666C62.9291 52.274 62.7378 51.966 62.3551 51.742C61.9818 51.518 61.4918 51.406 60.8851 51.406C60.0918 51.406 59.3078 51.6067 58.5331 52.008L58.2531 51.238C59.1304 50.7807 60.0404 50.552 60.9831 50.552C61.5431 50.552 62.0471 50.636 62.4951 50.804C62.9524 50.9627 63.3071 51.1913 63.5591 51.49C63.8204 51.7887 63.9511 52.134 63.9511 52.526C63.9511 52.8993 63.8204 53.2307 63.5591 53.52C63.3071 53.8093 62.9618 54.024 62.5231 54.164ZM72.0736 50.636V58H71.1636V55.564H68.8536H68.5736L66.8656 58H65.7876L67.6216 55.424C67.0523 55.2653 66.6136 54.9947 66.3056 54.612C65.9976 54.2293 65.8436 53.744 65.8436 53.156C65.8436 52.3347 66.1236 51.7093 66.6836 51.28C67.2436 50.8507 68.0089 50.636 68.9796 50.636H72.0736ZM66.8516 53.184C66.8516 54.276 67.5469 54.822 68.9376 54.822H71.1636V51.518H69.0076C67.5703 51.518 66.8516 52.0733 66.8516 53.184ZM81.6519 58.07C80.9239 58.07 80.2706 57.9113 79.6919 57.594C79.1226 57.2767 78.6746 56.8333 78.3479 56.264C78.0212 55.6853 77.8579 55.0367 77.8579 54.318C77.8579 53.5993 78.0212 52.9553 78.3479 52.386C78.6746 51.8167 79.1226 51.3733 79.6919 51.056C80.2706 50.7387 80.9239 50.58 81.6519 50.58C82.2866 50.58 82.8512 50.706 83.3459 50.958C83.8499 51.2007 84.2466 51.56 84.5359 52.036L83.7939 52.54C83.5512 52.176 83.2432 51.9053 82.8699 51.728C82.4966 51.5413 82.0906 51.448 81.6519 51.448C81.1199 51.448 80.6392 51.5693 80.2099 51.812C79.7899 52.0453 79.4586 52.3813 79.2159 52.82C78.9826 53.2587 78.8659 53.758 78.8659 54.318C78.8659 54.8873 78.9826 55.3913 79.2159 55.83C79.4586 56.2593 79.7899 56.5953 80.2099 56.838C80.6392 57.0713 81.1199 57.188 81.6519 57.188C82.0906 57.188 82.4966 57.0993 82.8699 56.922C83.2432 56.7447 83.5512 56.474 83.7939 56.11L84.5359 56.614C84.2466 57.09 83.8499 57.454 83.3459 57.706C82.8419 57.9487 82.2772 58.07 81.6519 58.07ZM96.7326 50.636V58H95.7386V51.518H91.1186V58H90.1246V50.636H96.7326ZM99.5582 50.636H100.552V56.488L105.466 50.636H106.348V58H105.354V52.148L100.454 58H99.5582V50.636ZM114.377 51.518H111.591V58H110.597V51.518H107.811V50.636H114.377V51.518ZM118.51 58.07C117.801 58.07 117.162 57.9113 116.592 57.594C116.023 57.2673 115.575 56.8193 115.248 56.25C114.922 55.6807 114.758 55.0367 114.758 54.318C114.758 53.5993 114.922 52.9553 115.248 52.386C115.575 51.8167 116.023 51.3733 116.592 51.056C117.162 50.7387 117.801 50.58 118.51 50.58C119.22 50.58 119.859 50.7387 120.428 51.056C120.998 51.3733 121.441 51.8167 121.758 52.386C122.085 52.9553 122.248 53.5993 122.248 54.318C122.248 55.0367 122.085 55.6807 121.758 56.25C121.441 56.8193 120.998 57.2673 120.428 57.594C119.859 57.9113 119.22 58.07 118.51 58.07ZM118.51 57.188C119.033 57.188 119.5 57.0713 119.91 56.838C120.33 56.5953 120.657 56.2547 120.89 55.816C121.124 55.3773 121.24 54.878 121.24 54.318C121.24 53.758 121.124 53.2587 120.89 52.82C120.657 52.3813 120.33 52.0453 119.91 51.812C119.5 51.5693 119.033 51.448 118.51 51.448C117.988 51.448 117.516 51.5693 117.096 51.812C116.686 52.0453 116.359 52.3813 116.116 52.82C115.883 53.2587 115.766 53.758 115.766 54.318C115.766 54.878 115.883 55.3773 116.116 55.816C116.359 56.2547 116.686 56.5953 117.096 56.838C117.516 57.0713 117.988 57.188 118.51 57.188ZM132.605 50.636V58H131.695V52.176L128.713 57.104H128.265L125.283 52.162V58H124.373V50.636H125.381L128.503 55.942L131.681 50.636H132.605ZM143.105 57.132V59.848H142.167V58H135.433V50.636H136.427V57.132H140.921V50.636H141.915V57.132H143.105ZM147.538 50.58C148.499 50.58 149.236 50.8227 149.75 51.308C150.263 51.784 150.52 52.4933 150.52 53.436V58H149.568V56.852C149.344 57.2347 149.012 57.5333 148.574 57.748C148.144 57.9627 147.631 58.07 147.034 58.07C146.212 58.07 145.559 57.874 145.074 57.482C144.588 57.09 144.346 56.572 144.346 55.928C144.346 55.3027 144.57 54.7987 145.018 54.416C145.475 54.0333 146.198 53.842 147.188 53.842H149.526V53.394C149.526 52.7593 149.348 52.2787 148.994 51.952C148.639 51.616 148.121 51.448 147.44 51.448C146.973 51.448 146.525 51.5273 146.096 51.686C145.666 51.8353 145.298 52.0453 144.99 52.316L144.542 51.574C144.915 51.2567 145.363 51.014 145.886 50.846C146.408 50.6687 146.959 50.58 147.538 50.58ZM147.188 57.286C147.748 57.286 148.228 57.16 148.63 56.908C149.031 56.6467 149.33 56.2733 149.526 55.788V54.584H147.216C145.956 54.584 145.326 55.0227 145.326 55.9C145.326 56.3293 145.489 56.67 145.816 56.922C146.142 57.1647 146.6 57.286 147.188 57.286ZM161.398 50.636V58H160.488V52.176L157.506 57.104H157.058L154.076 52.162V58H153.166V50.636H154.174L157.296 55.942L160.474 50.636H161.398ZM164.226 50.636H165.22V56.488L170.134 50.636H171.016V58H170.022V52.148L165.122 58H164.226V50.636Z" fill="#1F2041" fill-opacity="0.75"/>
<path d="M22.5091 82.2H29.6771V83.082H23.5311V86.288H26.7371C27.8945 86.288 28.7718 86.526 29.3691 87.002C29.9758 87.478 30.2791 88.1687 30.2791 89.074C30.2791 90.0167 29.9525 90.74 29.2991 91.244C28.6551 91.748 27.7265 92 26.5131 92H22.5091V82.2ZM26.4991 91.174C27.4045 91.174 28.0858 91.0013 28.5431 90.656C29.0098 90.3107 29.2431 89.7973 29.2431 89.116C29.2431 88.444 29.0145 87.9447 28.5571 87.618C28.1091 87.282 27.4231 87.114 26.4991 87.114H23.5311V91.174H26.4991ZM38.883 88.626H32.723C32.779 89.3913 33.073 90.012 33.605 90.488C34.137 90.9547 34.809 91.188 35.621 91.188C36.0783 91.188 36.4983 91.1087 36.881 90.95C37.2637 90.782 37.595 90.5393 37.875 90.222L38.435 90.866C38.1083 91.258 37.6977 91.5567 37.203 91.762C36.7177 91.9673 36.181 92.07 35.593 92.07C34.837 92.07 34.165 91.9113 33.577 91.594C32.9983 91.2673 32.5457 90.8193 32.219 90.25C31.8923 89.6807 31.729 89.0367 31.729 88.318C31.729 87.5993 31.883 86.9553 32.191 86.386C32.5083 85.8167 32.9377 85.3733 33.479 85.056C34.0297 84.7387 34.6457 84.58 35.327 84.58C36.0083 84.58 36.6197 84.7387 37.161 85.056C37.7023 85.3733 38.127 85.8167 38.435 86.386C38.743 86.946 38.897 87.59 38.897 88.318L38.883 88.626ZM35.327 85.434C34.6177 85.434 34.0203 85.6627 33.535 86.12C33.059 86.568 32.7883 87.156 32.723 87.884H37.945C37.8797 87.156 37.6043 86.568 37.119 86.12C36.643 85.6627 36.0457 85.434 35.327 85.434ZM44.4762 88.164C44.9989 88.2853 45.4002 88.4953 45.6802 88.794C45.9695 89.0927 46.1142 89.4567 46.1142 89.886C46.1142 90.3153 45.9649 90.698 45.6662 91.034C45.3769 91.37 44.9802 91.6313 44.4762 91.818C43.9722 91.9953 43.4169 92.084 42.8102 92.084C42.2782 92.084 41.7555 92.0093 41.2422 91.86C40.7289 91.7013 40.2809 91.4727 39.8982 91.174L40.2342 90.432C40.5702 90.684 40.9622 90.88 41.4102 91.02C41.8582 91.16 42.3109 91.23 42.7682 91.23C43.4495 91.23 44.0049 91.104 44.4342 90.852C44.8729 90.5907 45.0922 90.2407 45.0922 89.802C45.0922 89.41 44.9149 89.1067 44.5602 88.892C44.2055 88.668 43.7202 88.556 43.1042 88.556H41.8442V87.828H43.0482C43.5989 87.828 44.0422 87.7253 44.3782 87.52C44.7142 87.3053 44.8822 87.0207 44.8822 86.666C44.8822 86.274 44.6909 85.966 44.3082 85.742C43.9349 85.518 43.4449 85.406 42.8382 85.406C42.0449 85.406 41.2609 85.6067 40.4862 86.008L40.2062 85.238C41.0835 84.7807 41.9935 84.552 42.9362 84.552C43.4962 84.552 44.0002 84.636 44.4482 84.804C44.9055 84.9627 45.2602 85.1913 45.5122 85.49C45.7735 85.7887 45.9042 86.134 45.9042 86.526C45.9042 86.8993 45.7735 87.2307 45.5122 87.52C45.2602 87.8093 44.9149 88.024 44.4762 88.164ZM56.7248 88.192C57.7235 88.4253 58.2228 89.0273 58.2228 89.998C58.2228 90.642 57.9848 91.1367 57.5088 91.482C57.0328 91.8273 56.3235 92 55.3808 92H52.0348V84.636H55.2828C56.1228 84.636 56.7808 84.7993 57.2568 85.126C57.7328 85.4527 57.9708 85.9193 57.9708 86.526C57.9708 86.9273 57.8588 87.2727 57.6348 87.562C57.4201 87.842 57.1168 88.052 56.7248 88.192ZM53.0008 87.912H55.2128C55.7821 87.912 56.2161 87.8047 56.5148 87.59C56.8228 87.3753 56.9768 87.0627 56.9768 86.652C56.9768 86.2413 56.8228 85.9333 56.5148 85.728C56.2161 85.5227 55.7821 85.42 55.2128 85.42H53.0008V87.912ZM55.3388 91.216C55.9735 91.216 56.4495 91.1133 56.7668 90.908C57.0841 90.7027 57.2428 90.3807 57.2428 89.942C57.2428 89.5033 57.0981 89.1813 56.8088 88.976C56.5195 88.7613 56.0621 88.654 55.4368 88.654H53.0008V91.216H55.3388ZM66.9924 88.626H60.8324C60.8884 89.3913 61.1824 90.012 61.7144 90.488C62.2464 90.9547 62.9184 91.188 63.7304 91.188C64.1877 91.188 64.6077 91.1087 64.9904 90.95C65.373 90.782 65.7044 90.5393 65.9844 90.222L66.5444 90.866C66.2177 91.258 65.807 91.5567 65.3124 91.762C64.827 91.9673 64.2904 92.07 63.7024 92.07C62.9464 92.07 62.2744 91.9113 61.6864 91.594C61.1077 91.2673 60.655 90.8193 60.3284 90.25C60.0017 89.6807 59.8384 89.0367 59.8384 88.318C59.8384 87.5993 59.9924 86.9553 60.3004 86.386C60.6177 85.8167 61.047 85.3733 61.5884 85.056C62.139 84.7387 62.755 84.58 63.4364 84.58C64.1177 84.58 64.729 84.7387 65.2704 85.056C65.8117 85.3733 66.2364 85.8167 66.5444 86.386C66.8524 86.946 67.0064 87.59 67.0064 88.318L66.9924 88.626ZM63.4364 85.434C62.727 85.434 62.1297 85.6627 61.6444 86.12C61.1684 86.568 60.8977 87.156 60.8324 87.884H66.0544C65.989 87.156 65.7137 86.568 65.2284 86.12C64.7524 85.6627 64.155 85.434 63.4364 85.434ZM74.7647 84.636V92H73.7707V88.934C72.9213 89.3073 72.086 89.494 71.2647 89.494C70.378 89.494 69.6873 89.2933 69.1927 88.892C68.698 88.4813 68.4507 87.87 68.4507 87.058V84.636H69.4447V87.002C69.4447 87.5527 69.622 87.9727 69.9767 88.262C70.3313 88.542 70.8213 88.682 71.4467 88.682C72.1373 88.682 72.912 88.5 73.7707 88.136V84.636H74.7647ZM84.0275 88.626H77.8675C77.9235 89.3913 78.2175 90.012 78.7495 90.488C79.2815 90.9547 79.9535 91.188 80.7655 91.188C81.2229 91.188 81.6429 91.1087 82.0255 90.95C82.4082 90.782 82.7395 90.5393 83.0195 90.222L83.5795 90.866C83.2529 91.258 82.8422 91.5567 82.3475 91.762C81.8622 91.9673 81.3255 92.07 80.7375 92.07C79.9815 92.07 79.3095 91.9113 78.7215 91.594C78.1429 91.2673 77.6902 90.8193 77.3635 90.25C77.0369 89.6807 76.8735 89.0367 76.8735 88.318C76.8735 87.5993 77.0275 86.9553 77.3355 86.386C77.6529 85.8167 78.0822 85.3733 78.6235 85.056C79.1742 84.7387 79.7902 84.58 80.4715 84.58C81.1529 84.58 81.7642 84.7387 82.3055 85.056C82.8469 85.3733 83.2715 85.8167 83.5795 86.386C83.8875 86.946 84.0415 87.59 84.0415 88.318L84.0275 88.626ZM80.4715 85.434C79.7622 85.434 79.1649 85.6627 78.6795 86.12C78.2035 86.568 77.9329 87.156 77.8675 87.884H83.0895C83.0242 87.156 82.7489 86.568 82.2635 86.12C81.7875 85.6627 81.1902 85.434 80.4715 85.434ZM90.0358 84.58C90.7265 84.58 91.3518 84.7387 91.9118 85.056C92.4718 85.364 92.9105 85.8027 93.2278 86.372C93.5452 86.9413 93.7038 87.59 93.7038 88.318C93.7038 89.0553 93.5452 89.7087 93.2278 90.278C92.9105 90.8473 92.4718 91.2907 91.9118 91.608C91.3612 91.916 90.7358 92.07 90.0358 92.07C89.4385 92.07 88.8972 91.9487 88.4118 91.706C87.9358 91.454 87.5438 91.09 87.2358 90.614V94.716H86.2418V84.636H87.1938V86.092C87.4925 85.6067 87.8845 85.2333 88.3698 84.972C88.8645 84.7107 89.4198 84.58 90.0358 84.58ZM89.9658 91.188C90.4792 91.188 90.9458 91.0713 91.3658 90.838C91.7858 90.5953 92.1125 90.2547 92.3458 89.816C92.5885 89.3773 92.7098 88.878 92.7098 88.318C92.7098 87.758 92.5885 87.2633 92.3458 86.834C92.1125 86.3953 91.7858 86.0547 91.3658 85.812C90.9458 85.5693 90.4792 85.448 89.9658 85.448C89.4432 85.448 88.9718 85.5693 88.5518 85.812C88.1412 86.0547 87.8145 86.3953 87.5718 86.834C87.3385 87.2633 87.2218 87.758 87.2218 88.318C87.2218 88.878 87.3385 89.3773 87.5718 89.816C87.8145 90.2547 88.1412 90.5953 88.5518 90.838C88.9718 91.0713 89.4432 91.188 89.9658 91.188ZM95.8395 84.636H96.8335V90.488L101.747 84.636H102.629V92H101.635V86.148L96.7355 92H95.8395V84.636ZM105.478 84.636H106.472V87.898H111.106V84.636H112.1V92H111.106V88.752H106.472V92H105.478V84.636ZM117.963 92.07C117.254 92.07 116.615 91.9113 116.045 91.594C115.476 91.2673 115.028 90.8193 114.701 90.25C114.375 89.6807 114.211 89.0367 114.211 88.318C114.211 87.5993 114.375 86.9553 114.701 86.386C115.028 85.8167 115.476 85.3733 116.045 85.056C116.615 84.7387 117.254 84.58 117.963 84.58C118.673 84.58 119.312 84.7387 119.881 85.056C120.451 85.3733 120.894 85.8167 121.211 86.386C121.538 86.9553 121.701 87.5993 121.701 88.318C121.701 89.0367 121.538 89.6807 121.211 90.25C120.894 90.8193 120.451 91.2673 119.881 91.594C119.312 91.9113 118.673 92.07 117.963 92.07ZM117.963 91.188C118.486 91.188 118.953 91.0713 119.363 90.838C119.783 90.5953 120.11 90.2547 120.343 89.816C120.577 89.3773 120.693 88.878 120.693 88.318C120.693 87.758 120.577 87.2587 120.343 86.82C120.11 86.3813 119.783 86.0453 119.363 85.812C118.953 85.5693 118.486 85.448 117.963 85.448C117.441 85.448 116.969 85.5693 116.549 85.812C116.139 86.0453 115.812 86.3813 115.569 86.82C115.336 87.2587 115.219 87.758 115.219 88.318C115.219 88.878 115.336 89.3773 115.569 89.816C115.812 90.2547 116.139 90.5953 116.549 90.838C116.969 91.0713 117.441 91.188 117.963 91.188ZM126.5 88.724H124.82V92H123.826V84.636H124.82V87.87H126.514L129.104 84.636H130.182L127.284 88.206L130.392 92H129.216L126.5 88.724ZM135.625 84.636H136.619V90.488L141.533 84.636H142.415V92H141.421V86.148L136.521 92H135.625V84.636ZM157.159 84.636V92H156.249V86.176L153.267 91.104H152.819L149.837 86.162V92H148.927V84.636H149.935L153.057 89.942L156.235 84.636H157.159ZM166.428 88.626H160.268C160.324 89.3913 160.618 90.012 161.15 90.488C161.682 90.9547 162.354 91.188 163.166 91.188C163.623 91.188 164.043 91.1087 164.426 90.95C164.809 90.782 165.14 90.5393 165.42 90.222L165.98 90.866C165.653 91.258 165.243 91.5567 164.748 91.762C164.263 91.9673 163.726 92.07 163.138 92.07C162.382 92.07 161.71 91.9113 161.122 91.594C160.543 91.2673 160.091 90.8193 159.764 90.25C159.437 89.6807 159.274 89.0367 159.274 88.318C159.274 87.5993 159.428 86.9553 159.736 86.386C160.053 85.8167 160.483 85.3733 161.024 85.056C161.575 84.7387 162.191 84.58 162.872 84.58C163.553 84.58 164.165 84.7387 164.706 85.056C165.247 85.3733 165.672 85.8167 165.98 86.386C166.288 86.946 166.442 87.59 166.442 88.318L166.428 88.626ZM162.872 85.434C162.163 85.434 161.565 85.6627 161.08 86.12C160.604 86.568 160.333 87.156 160.268 87.884H165.49C165.425 87.156 165.149 86.568 164.664 86.12C164.188 85.6627 163.591 85.434 162.872 85.434ZM172.436 84.58C173.127 84.58 173.752 84.7387 174.312 85.056C174.872 85.364 175.311 85.8027 175.628 86.372C175.946 86.9413 176.104 87.59 176.104 88.318C176.104 89.0553 175.946 89.7087 175.628 90.278C175.311 90.8473 174.872 91.2907 174.312 91.608C173.762 91.916 173.136 92.07 172.436 92.07C171.839 92.07 171.298 91.9487 170.812 91.706C170.336 91.454 169.944 91.09 169.636 90.614V94.716H168.642V84.636H169.594V86.092C169.893 85.6067 170.285 85.2333 170.77 84.972C171.265 84.7107 171.82 84.58 172.436 84.58ZM172.366 91.188C172.88 91.188 173.346 91.0713 173.766 90.838C174.186 90.5953 174.513 90.2547 174.746 89.816C174.989 89.3773 175.11 88.878 175.11 88.318C175.11 87.758 174.989 87.2633 174.746 86.834C174.513 86.3953 174.186 86.0547 173.766 85.812C173.346 85.5693 172.88 85.448 172.366 85.448C171.844 85.448 171.372 85.5693 170.952 85.812C170.542 86.0547 170.215 86.3953 169.972 86.834C169.739 87.2633 169.622 87.758 169.622 88.318C169.622 88.878 169.739 89.3773 169.972 89.816C170.215 90.2547 170.542 90.5953 170.952 90.838C171.372 91.0713 171.844 91.188 172.366 91.188ZM181.278 92.07C180.569 92.07 179.929 91.9113 179.36 91.594C178.791 91.2673 178.343 90.8193 178.016 90.25C177.689 89.6807 177.526 89.0367 177.526 88.318C177.526 87.5993 177.689 86.9553 178.016 86.386C178.343 85.8167 178.791 85.3733 179.36 85.056C179.929 84.7387 180.569 84.58 181.278 84.58C181.987 84.58 182.627 84.7387 183.196 85.056C183.765 85.3733 184.209 85.8167 184.526 86.386C184.853 86.9553 185.016 87.5993 185.016 88.318C185.016 89.0367 184.853 89.6807 184.526 90.25C184.209 90.8193 183.765 91.2673 183.196 91.594C182.627 91.9113 181.987 92.07 181.278 92.07ZM181.278 91.188C181.801 91.188 182.267 91.0713 182.678 90.838C183.098 90.5953 183.425 90.2547 183.658 89.816C183.891 89.3773 184.008 88.878 184.008 88.318C184.008 87.758 183.891 87.2587 183.658 86.82C183.425 86.3813 183.098 86.0453 182.678 85.812C182.267 85.5693 181.801 85.448 181.278 85.448C180.755 85.448 180.284 85.5693 179.864 85.812C179.453 86.0453 179.127 86.3813 178.884 86.82C178.651 87.2587 178.534 87.758 178.534 88.318C178.534 88.878 178.651 89.3773 178.884 89.816C179.127 90.2547 179.453 90.5953 179.864 90.838C180.284 91.0713 180.755 91.188 181.278 91.188ZM193.748 84.636V92H192.754V85.518H188.134V92H187.14V84.636H193.748ZM200.368 84.58C201.059 84.58 201.684 84.7387 202.244 85.056C202.804 85.364 203.243 85.8027 203.56 86.372C203.877 86.9413 204.036 87.59 204.036 88.318C204.036 89.0553 203.877 89.7087 203.56 90.278C203.243 90.8473 202.804 91.2907 202.244 91.608C201.693 91.916 201.068 92.07 200.368 92.07C199.771 92.07 199.229 91.9487 198.744 91.706C198.268 91.454 197.876 91.09 197.568 90.614V94.716H196.574V84.636H197.526V86.092C197.825 85.6067 198.217 85.2333 198.702 84.972C199.197 84.7107 199.752 84.58 200.368 84.58ZM200.298 91.188C200.811 91.188 201.278 91.0713 201.698 90.838C202.118 90.5953 202.445 90.2547 202.678 89.816C202.921 89.3773 203.042 88.878 203.042 88.318C203.042 87.758 202.921 87.2633 202.678 86.834C202.445 86.3953 202.118 86.0547 201.698 85.812C201.278 85.5693 200.811 85.448 200.298 85.448C199.775 85.448 199.304 85.5693 198.884 85.812C198.473 86.0547 198.147 86.3953 197.904 86.834C197.671 87.2633 197.554 87.758 197.554 88.318C197.554 88.878 197.671 89.3773 197.904 89.816C198.147 90.2547 198.473 90.5953 198.884 90.838C199.304 91.0713 199.775 91.188 200.298 91.188ZM206.172 84.636H207.166V90.488L212.08 84.636H212.962V92H211.968V86.148L207.068 92H206.172V84.636ZM221.466 84.636V92H220.556V89.564H218.246H217.966L216.258 92H215.18L217.014 89.424C216.445 89.2653 216.006 88.9947 215.698 88.612C215.39 88.2293 215.236 87.744 215.236 87.156C215.236 86.3347 215.516 85.7093 216.076 85.28C216.636 84.8507 217.402 84.636 218.372 84.636H221.466ZM216.244 87.184C216.244 88.276 216.94 88.822 218.33 88.822H220.556V85.518H218.4C216.963 85.518 216.244 86.0733 216.244 87.184ZM229.48 85.518H226.694V92H225.7V85.518H222.914V84.636H229.48V85.518ZM230.918 84.636H231.912V90.488L236.826 84.636H237.708V92H236.714V86.148L231.814 92H230.918V84.636ZM240.556 84.636H241.55V90.488L246.464 84.636H247.346V92H246.352V86.148L241.452 92H240.556V84.636ZM243.902 83.572C243.268 83.572 242.764 83.4133 242.39 83.096C242.017 82.7787 241.826 82.3307 241.816 81.752H242.53C242.54 82.116 242.67 82.41 242.922 82.634C243.174 82.8487 243.501 82.956 243.902 82.956C244.304 82.956 244.63 82.8487 244.882 82.634C245.144 82.41 245.279 82.116 245.288 81.752H246.002C245.993 82.3307 245.797 82.7787 245.414 83.096C245.041 83.4133 244.537 83.572 243.902 83.572Z" fill="#1F2041" fill-opacity="0.75"/>
<path d="M28.3191 120.946C29.0005 121.086 29.5185 121.361 29.8731 121.772C30.2278 122.173 30.4051 122.701 30.4051 123.354C30.4051 124.203 30.1018 124.857 29.4951 125.314C28.8978 125.771 28.0158 126 26.8491 126H22.5091V116.2H26.5831C27.6285 116.2 28.4451 116.415 29.0331 116.844C29.6211 117.273 29.9151 117.894 29.9151 118.706C29.9151 119.257 29.7751 119.723 29.4951 120.106C29.2151 120.479 28.8231 120.759 28.3191 120.946ZM23.5311 120.638H26.5271C27.2831 120.638 27.8618 120.484 28.2631 120.176C28.6738 119.868 28.8791 119.42 28.8791 118.832C28.8791 118.244 28.6738 117.796 28.2631 117.488C27.8618 117.18 27.2831 117.026 26.5271 117.026H23.5311V120.638ZM26.8491 125.174C28.5385 125.174 29.3831 124.544 29.3831 123.284C29.3831 122.052 28.5385 121.436 26.8491 121.436H23.5311V125.174H26.8491ZM36.5514 118.58C37.2421 118.58 37.8674 118.739 38.4274 119.056C38.9874 119.364 39.4261 119.803 39.7434 120.372C40.0608 120.941 40.2194 121.59 40.2194 122.318C40.2194 123.055 40.0608 123.709 39.7434 124.278C39.4261 124.847 38.9874 125.291 38.4274 125.608C37.8768 125.916 37.2514 126.07 36.5514 126.07C35.9541 126.07 35.4128 125.949 34.9274 125.706C34.4514 125.454 34.0594 125.09 33.7514 124.614V128.716H32.7574V118.636H33.7094V120.092C34.0081 119.607 34.4001 119.233 34.8854 118.972C35.3801 118.711 35.9354 118.58 36.5514 118.58ZM36.4814 125.188C36.9948 125.188 37.4614 125.071 37.8814 124.838C38.3014 124.595 38.6281 124.255 38.8614 123.816C39.1041 123.377 39.2254 122.878 39.2254 122.318C39.2254 121.758 39.1041 121.263 38.8614 120.834C38.6281 120.395 38.3014 120.055 37.8814 119.812C37.4614 119.569 36.9948 119.448 36.4814 119.448C35.9588 119.448 35.4874 119.569 35.0674 119.812C34.6568 120.055 34.3301 120.395 34.0874 120.834C33.8541 121.263 33.7374 121.758 33.7374 122.318C33.7374 122.878 33.8541 123.377 34.0874 123.816C34.3301 124.255 34.6568 124.595 35.0674 124.838C35.4874 125.071 35.9588 125.188 36.4814 125.188ZM48.7951 122.626H42.6351C42.6911 123.391 42.9851 124.012 43.5171 124.488C44.0491 124.955 44.7211 125.188 45.5331 125.188C45.9904 125.188 46.4104 125.109 46.7931 124.95C47.1758 124.782 47.5071 124.539 47.7871 124.222L48.3471 124.866C48.0204 125.258 47.6098 125.557 47.1151 125.762C46.6298 125.967 46.0931 126.07 45.5051 126.07C44.7491 126.07 44.0771 125.911 43.4891 125.594C42.9104 125.267 42.4578 124.819 42.1311 124.25C41.8044 123.681 41.6411 123.037 41.6411 122.318C41.6411 121.599 41.7951 120.955 42.1031 120.386C42.4204 119.817 42.8498 119.373 43.3911 119.056C43.9418 118.739 44.5578 118.58 45.2391 118.58C45.9204 118.58 46.5318 118.739 47.0731 119.056C47.6144 119.373 48.0391 119.817 48.3471 120.386C48.6551 120.946 48.8091 121.59 48.8091 122.318L48.7951 122.626ZM45.2391 119.434C44.5298 119.434 43.9324 119.663 43.4471 120.12C42.9711 120.568 42.7004 121.156 42.6351 121.884H47.8571C47.7918 121.156 47.5164 120.568 47.0311 120.12C46.5551 119.663 45.9578 119.434 45.2391 119.434ZM59.2414 118.636V126H58.3314V120.176L55.3494 125.104H54.9014L51.9194 120.162V126H51.0094V118.636H52.0174L55.1394 123.942L58.3174 118.636H59.2414ZM67.7259 118.636V126H66.8159V123.564H64.5059H64.2259L62.5179 126H61.4399L63.2739 123.424C62.7046 123.265 62.2659 122.995 61.9579 122.612C61.6499 122.229 61.4959 121.744 61.4959 121.156C61.4959 120.335 61.7759 119.709 62.3359 119.28C62.8959 118.851 63.6613 118.636 64.6319 118.636H67.7259ZM62.5039 121.184C62.5039 122.276 63.1993 122.822 64.5899 122.822H66.8159V119.518H64.6599C63.2226 119.518 62.5039 120.073 62.5039 121.184ZM80.8322 118.636V126H79.8382V119.518H75.2182V126H74.2242V118.636H80.8322ZM87.4518 118.58C88.1425 118.58 88.7678 118.739 89.3278 119.056C89.8878 119.364 90.3265 119.803 90.6438 120.372C90.9612 120.941 91.1198 121.59 91.1198 122.318C91.1198 123.055 90.9612 123.709 90.6438 124.278C90.3265 124.847 89.8878 125.291 89.3278 125.608C88.7772 125.916 88.1518 126.07 87.4518 126.07C86.8545 126.07 86.3132 125.949 85.8278 125.706C85.3518 125.454 84.9598 125.09 84.6518 124.614V128.716H83.6578V118.636H84.6098V120.092C84.9085 119.607 85.3005 119.233 85.7858 118.972C86.2805 118.711 86.8358 118.58 87.4518 118.58ZM87.3818 125.188C87.8952 125.188 88.3618 125.071 88.7818 124.838C89.2018 124.595 89.5285 124.255 89.7618 123.816C90.0045 123.377 90.1258 122.878 90.1258 122.318C90.1258 121.758 90.0045 121.263 89.7618 120.834C89.5285 120.395 89.2018 120.055 88.7818 119.812C88.3618 119.569 87.8952 119.448 87.3818 119.448C86.8592 119.448 86.3878 119.569 85.9678 119.812C85.5572 120.055 85.2305 120.395 84.9878 120.834C84.7545 121.263 84.6378 121.758 84.6378 122.318C84.6378 122.878 84.7545 123.377 84.9878 123.816C85.2305 124.255 85.5572 124.595 85.9678 124.838C86.3878 125.071 86.8592 125.188 87.3818 125.188ZM93.2555 118.636H94.2495V124.488L99.1635 118.636H100.045V126H99.0515V120.148L94.1515 126H93.2555V118.636ZM106.464 118.818C107.145 118.818 107.752 118.972 108.284 119.28C108.825 119.579 109.245 120.003 109.544 120.554C109.843 121.095 109.992 121.716 109.992 122.416C109.992 123.135 109.833 123.774 109.516 124.334C109.208 124.885 108.774 125.314 108.214 125.622C107.654 125.93 107.01 126.084 106.282 126.084C105.059 126.084 104.112 125.655 103.44 124.796C102.768 123.937 102.432 122.752 102.432 121.24C102.432 119.663 102.731 118.454 103.328 117.614C103.935 116.774 104.877 116.205 106.156 115.906L109.46 115.15L109.628 116.06L106.52 116.774C105.465 117.007 104.691 117.423 104.196 118.02C103.701 118.608 103.431 119.481 103.384 120.638C103.683 120.069 104.098 119.625 104.63 119.308C105.162 118.981 105.773 118.818 106.464 118.818ZM106.31 125.258C106.823 125.258 107.281 125.141 107.682 124.908C108.093 124.665 108.41 124.329 108.634 123.9C108.867 123.471 108.984 122.985 108.984 122.444C108.984 121.903 108.872 121.427 108.648 121.016C108.424 120.605 108.107 120.288 107.696 120.064C107.295 119.831 106.833 119.714 106.31 119.714C105.787 119.714 105.321 119.831 104.91 120.064C104.509 120.288 104.191 120.605 103.958 121.016C103.734 121.427 103.622 121.903 103.622 122.444C103.622 122.985 103.734 123.471 103.958 123.9C104.191 124.329 104.513 124.665 104.924 124.908C105.335 125.141 105.797 125.258 106.31 125.258ZM115.217 121.24C116.141 121.249 116.845 121.455 117.331 121.856C117.816 122.257 118.059 122.836 118.059 123.592C118.059 124.376 117.797 124.978 117.275 125.398C116.752 125.818 116.005 126.023 115.035 126.014L112.123 126V118.636H113.117V121.212L115.217 121.24ZM119.291 118.636H120.285V126H119.291V118.636ZM114.979 125.258C115.66 125.267 116.173 125.132 116.519 124.852C116.873 124.563 117.051 124.143 117.051 123.592C117.051 123.051 116.878 122.649 116.533 122.388C116.187 122.127 115.669 121.991 114.979 121.982L113.117 121.954V125.23L114.979 125.258ZM128.295 119.518H125.509V126H124.515V119.518H121.729V118.636H128.295V119.518ZM129.732 118.636H130.726V124.488L135.64 118.636H136.522V126H135.528V120.148L130.628 126H129.732V118.636ZM145.027 118.636V126H144.117V123.564H141.807H141.527L139.819 126H138.741L140.575 123.424C140.005 123.265 139.567 122.995 139.259 122.612C138.951 122.229 138.797 121.744 138.797 121.156C138.797 120.335 139.077 119.709 139.637 119.28C140.197 118.851 140.962 118.636 141.933 118.636H145.027ZM139.805 121.184C139.805 122.276 140.5 122.822 141.891 122.822H144.117V119.518H141.961C140.523 119.518 139.805 120.073 139.805 121.184ZM150.111 121.842H164.111V122.556H150.111V121.842ZM175.797 118.636V126H174.803V119.518H170.183V126H169.189V118.636H175.797ZM181.661 126.07C180.951 126.07 180.312 125.911 179.743 125.594C179.173 125.267 178.725 124.819 178.399 124.25C178.072 123.681 177.909 123.037 177.909 122.318C177.909 121.599 178.072 120.955 178.399 120.386C178.725 119.817 179.173 119.373 179.743 119.056C180.312 118.739 180.951 118.58 181.661 118.58C182.37 118.58 183.009 118.739 183.579 119.056C184.148 119.373 184.591 119.817 184.909 120.386C185.235 120.955 185.399 121.599 185.399 122.318C185.399 123.037 185.235 123.681 184.909 124.25C184.591 124.819 184.148 125.267 183.579 125.594C183.009 125.911 182.37 126.07 181.661 126.07ZM181.661 125.188C182.183 125.188 182.65 125.071 183.061 124.838C183.481 124.595 183.807 124.255 184.041 123.816C184.274 123.377 184.391 122.878 184.391 122.318C184.391 121.758 184.274 121.259 184.041 120.82C183.807 120.381 183.481 120.045 183.061 119.812C182.65 119.569 182.183 119.448 181.661 119.448C181.138 119.448 180.667 119.569 180.247 119.812C179.836 120.045 179.509 120.381 179.267 120.82C179.033 121.259 178.917 121.758 178.917 122.318C178.917 122.878 179.033 123.377 179.267 123.816C179.509 124.255 179.836 124.595 180.247 124.838C180.667 125.071 181.138 125.188 181.661 125.188ZM190.603 126.07C189.875 126.07 189.222 125.911 188.643 125.594C188.074 125.277 187.626 124.833 187.299 124.264C186.972 123.685 186.809 123.037 186.809 122.318C186.809 121.599 186.972 120.955 187.299 120.386C187.626 119.817 188.074 119.373 188.643 119.056C189.222 118.739 189.875 118.58 190.603 118.58C191.238 118.58 191.802 118.706 192.297 118.958C192.801 119.201 193.198 119.56 193.487 120.036L192.745 120.54C192.502 120.176 192.194 119.905 191.821 119.728C191.448 119.541 191.042 119.448 190.603 119.448C190.071 119.448 189.59 119.569 189.161 119.812C188.741 120.045 188.41 120.381 188.167 120.82C187.934 121.259 187.817 121.758 187.817 122.318C187.817 122.887 187.934 123.391 188.167 123.83C188.41 124.259 188.741 124.595 189.161 124.838C189.59 125.071 190.071 125.188 190.603 125.188C191.042 125.188 191.448 125.099 191.821 124.922C192.194 124.745 192.502 124.474 192.745 124.11L193.487 124.614C193.198 125.09 192.801 125.454 192.297 125.706C191.793 125.949 191.228 126.07 190.603 126.07ZM201.186 118.636V126H200.192V119.518H196.664L196.566 121.338C196.491 122.869 196.314 124.045 196.034 124.866C195.754 125.687 195.254 126.098 194.536 126.098C194.34 126.098 194.102 126.061 193.822 125.986L193.892 125.132C194.06 125.169 194.176 125.188 194.242 125.188C194.624 125.188 194.914 125.011 195.11 124.656C195.306 124.301 195.436 123.863 195.502 123.34C195.567 122.817 195.623 122.127 195.67 121.268L195.796 118.636H201.186ZM210.451 122.626H204.291C204.347 123.391 204.641 124.012 205.173 124.488C205.705 124.955 206.377 125.188 207.189 125.188C207.647 125.188 208.067 125.109 208.449 124.95C208.832 124.782 209.163 124.539 209.443 124.222L210.003 124.866C209.677 125.258 209.266 125.557 208.771 125.762C208.286 125.967 207.749 126.07 207.161 126.07C206.405 126.07 205.733 125.911 205.145 125.594C204.567 125.267 204.114 124.819 203.787 124.25C203.461 123.681 203.297 123.037 203.297 122.318C203.297 121.599 203.451 120.955 203.759 120.386C204.077 119.817 204.506 119.373 205.047 119.056C205.598 118.739 206.214 118.58 206.895 118.58C207.577 118.58 208.188 118.739 208.729 119.056C209.271 119.373 209.695 119.817 210.003 120.386C210.311 120.946 210.465 121.59 210.465 122.318L210.451 122.626ZM206.895 119.434C206.186 119.434 205.589 119.663 205.103 120.12C204.627 120.568 204.357 121.156 204.291 121.884H209.513C209.448 121.156 209.173 120.568 208.687 120.12C208.211 119.663 207.614 119.434 206.895 119.434ZM218.36 116.2V126H217.352V117.096H215.042V116.2H218.36ZM224.034 120.4C225.061 120.456 225.84 120.736 226.372 121.24C226.914 121.735 227.184 122.383 227.184 123.186C227.184 123.746 227.049 124.245 226.778 124.684C226.508 125.113 226.106 125.454 225.574 125.706C225.042 125.958 224.394 126.084 223.628 126.084C222.919 126.084 222.247 125.972 221.612 125.748C220.987 125.515 220.483 125.207 220.1 124.824L220.59 124.026C220.917 124.362 221.351 124.637 221.892 124.852C222.434 125.057 223.012 125.16 223.628 125.16C224.431 125.16 225.052 124.987 225.49 124.642C225.929 124.287 226.148 123.802 226.148 123.186C226.148 122.579 225.929 122.103 225.49 121.758C225.052 121.413 224.389 121.24 223.502 121.24H222.802V120.498L225.518 117.096H220.506V116.2H226.806V116.914L224.034 120.4ZM229.361 120.106C229.155 120.106 228.978 120.031 228.829 119.882C228.689 119.733 228.619 119.551 228.619 119.336C228.619 119.121 228.689 118.944 228.829 118.804C228.978 118.655 229.155 118.58 229.361 118.58C229.566 118.58 229.743 118.655 229.893 118.804C230.042 118.944 230.117 119.121 230.117 119.336C230.117 119.551 230.042 119.733 229.893 119.882C229.743 120.031 229.566 120.106 229.361 120.106ZM229.361 126.07C229.155 126.07 228.978 125.995 228.829 125.846C228.689 125.697 228.619 125.515 228.619 125.3C228.619 125.085 228.689 124.908 228.829 124.768C228.978 124.619 229.155 124.544 229.361 124.544C229.566 124.544 229.743 124.619 229.893 124.768C230.042 124.908 230.117 125.085 230.117 125.3C230.117 125.515 230.042 125.697 229.893 125.846C229.743 125.995 229.566 126.07 229.361 126.07ZM235.477 126.084C234.721 126.084 234.045 125.883 233.447 125.482C232.859 125.081 232.397 124.507 232.061 123.76C231.735 123.004 231.571 122.117 231.571 121.1C231.571 120.083 231.735 119.201 232.061 118.454C232.397 117.698 232.859 117.119 233.447 116.718C234.045 116.317 234.721 116.116 235.477 116.116C236.233 116.116 236.905 116.317 237.493 116.718C238.091 117.119 238.557 117.698 238.893 118.454C239.229 119.201 239.397 120.083 239.397 121.1C239.397 122.117 239.229 123.004 238.893 123.76C238.557 124.507 238.091 125.081 237.493 125.482C236.905 125.883 236.233 126.084 235.477 126.084ZM235.477 125.16C236.047 125.16 236.546 125.001 236.975 124.684C237.414 124.367 237.755 123.905 237.997 123.298C238.24 122.691 238.361 121.959 238.361 121.1C238.361 120.241 238.24 119.509 237.997 118.902C237.755 118.295 237.414 117.833 236.975 117.516C236.546 117.199 236.047 117.04 235.477 117.04C234.908 117.04 234.404 117.199 233.965 117.516C233.536 117.833 233.2 118.295 232.957 118.902C232.715 119.509 232.593 120.241 232.593 121.1C232.593 121.959 232.715 122.691 232.957 123.298C233.2 123.905 233.536 124.367 233.965 124.684C234.404 125.001 234.908 125.16 235.477 125.16ZM244.747 126.084C243.991 126.084 243.314 125.883 242.717 125.482C242.129 125.081 241.667 124.507 241.331 123.76C241.004 123.004 240.841 122.117 240.841 121.1C240.841 120.083 241.004 119.201 241.331 118.454C241.667 117.698 242.129 117.119 242.717 116.718C243.314 116.317 243.991 116.116 244.747 116.116C245.503 116.116 246.175 116.317 246.763 116.718C247.36 117.119 247.827 117.698 248.163 118.454C248.499 119.201 248.667 120.083 248.667 121.1C248.667 122.117 248.499 123.004 248.163 123.76C247.827 124.507 247.36 125.081 246.763 125.482C246.175 125.883 245.503 126.084 244.747 126.084ZM244.747 125.16C245.316 125.16 245.816 125.001 246.245 124.684C246.684 124.367 247.024 123.905 247.267 123.298C247.51 122.691 247.631 121.959 247.631 121.1C247.631 120.241 247.51 119.509 247.267 118.902C247.024 118.295 246.684 117.833 246.245 117.516C245.816 117.199 245.316 117.04 244.747 117.04C244.178 117.04 243.674 117.199 243.235 117.516C242.806 117.833 242.47 118.295 242.227 118.902C241.984 119.509 241.863 120.241 241.863 121.1C241.863 121.959 241.984 122.691 242.227 123.298C242.47 123.905 242.806 124.367 243.235 124.684C243.674 125.001 244.178 125.16 244.747 125.16ZM250.73 124.544C250.945 124.544 251.122 124.619 251.262 124.768C251.402 124.908 251.472 125.085 251.472 125.3C251.472 125.412 251.453 125.533 251.416 125.664C251.388 125.795 251.341 125.944 251.276 126.112L250.688 128.044H250.016L250.492 126.014C250.343 125.967 250.221 125.883 250.128 125.762C250.035 125.631 249.988 125.477 249.988 125.3C249.988 125.085 250.058 124.908 250.198 124.768C250.338 124.619 250.515 124.544 250.73 124.544ZM24.8051 142.58C25.7665 142.58 26.5038 142.823 27.0171 143.308C27.5305 143.784 27.7871 144.493 27.7871 145.436V150H26.8351V148.852C26.6111 149.235 26.2798 149.533 25.8411 149.748C25.4118 149.963 24.8985 150.07 24.3011 150.07C23.4798 150.07 22.8265 149.874 22.3411 149.482C21.8558 149.09 21.6131 148.572 21.6131 147.928C21.6131 147.303 21.8371 146.799 22.2851 146.416C22.7425 146.033 23.4658 145.842 24.4551 145.842H26.7931V145.394C26.7931 144.759 26.6158 144.279 26.2611 143.952C25.9065 143.616 25.3885 143.448 24.7071 143.448C24.2405 143.448 23.7925 143.527 23.3631 143.686C22.9338 143.835 22.5651 144.045 22.2571 144.316L21.8091 143.574C22.1825 143.257 22.6305 143.014 23.1531 142.846C23.6758 142.669 24.2265 142.58 24.8051 142.58ZM24.4551 149.286C25.0151 149.286 25.4958 149.16 25.8971 148.908C26.2985 148.647 26.5971 148.273 26.7931 147.788V146.584H24.4831C23.2231 146.584 22.5931 147.023 22.5931 147.9C22.5931 148.329 22.7565 148.67 23.0831 148.922C23.4098 149.165 23.8671 149.286 24.4551 149.286ZM38.7873 146.192C39.786 146.425 40.2853 147.027 40.2853 147.998C40.2853 148.642 40.0473 149.137 39.5713 149.482C39.0953 149.827 38.386 150 37.4433 150H34.0973V142.636H37.3453C38.1853 142.636 38.8433 142.799 39.3193 143.126C39.7953 143.453 40.0333 143.919 40.0333 144.526C40.0333 144.927 39.9213 145.273 39.6973 145.562C39.4826 145.842 39.1793 146.052 38.7873 146.192ZM35.0633 145.912H37.2753C37.8446 145.912 38.2786 145.805 38.5773 145.59C38.8853 145.375 39.0393 145.063 39.0393 144.652C39.0393 144.241 38.8853 143.933 38.5773 143.728C38.2786 143.523 37.8446 143.42 37.2753 143.42H35.0633V145.912ZM37.4013 149.216C38.036 149.216 38.512 149.113 38.8293 148.908C39.1466 148.703 39.3053 148.381 39.3053 147.942C39.3053 147.503 39.1606 147.181 38.8713 146.976C38.582 146.761 38.1246 146.654 37.4993 146.654H35.0633V149.216H37.4013ZM45.7089 145.24C46.6329 145.249 47.3375 145.455 47.8229 145.856C48.3082 146.257 48.5509 146.836 48.5509 147.592C48.5509 148.376 48.2895 148.978 47.7669 149.398C47.2442 149.818 46.4975 150.023 45.5269 150.014L42.6149 150V142.636H43.6089V145.212L45.7089 145.24ZM49.7829 142.636H50.7769V150H49.7829V142.636ZM45.4709 149.258C46.1522 149.267 46.6655 149.132 47.0109 148.852C47.3655 148.563 47.5429 148.143 47.5429 147.592C47.5429 147.051 47.3702 146.649 47.0249 146.388C46.6795 146.127 46.1615 145.991 45.4709 145.982L43.6089 145.954V149.23L45.4709 149.258ZM60.0471 146.626H53.8871C53.9431 147.391 54.2371 148.012 54.7691 148.488C55.3011 148.955 55.9731 149.188 56.7851 149.188C57.2424 149.188 57.6624 149.109 58.0451 148.95C58.4277 148.782 58.7591 148.539 59.0391 148.222L59.5991 148.866C59.2724 149.258 58.8617 149.557 58.3671 149.762C57.8817 149.967 57.3451 150.07 56.7571 150.07C56.0011 150.07 55.3291 149.911 54.7411 149.594C54.1624 149.267 53.7097 148.819 53.3831 148.25C53.0564 147.681 52.8931 147.037 52.8931 146.318C52.8931 145.599 53.0471 144.955 53.3551 144.386C53.6724 143.817 54.1017 143.373 54.6431 143.056C55.1937 142.739 55.8097 142.58 56.4911 142.58C57.1724 142.58 57.7837 142.739 58.3251 143.056C58.8664 143.373 59.2911 143.817 59.5991 144.386C59.9071 144.946 60.0611 145.59 60.0611 146.318L60.0471 146.626ZM56.4911 143.434C55.7817 143.434 55.1844 143.663 54.6991 144.12C54.2231 144.568 53.9524 145.156 53.8871 145.884H59.1091C59.0437 145.156 58.7684 144.568 58.2831 144.12C57.8071 143.663 57.2097 143.434 56.4911 143.434ZM65.6403 146.164C66.1629 146.285 66.5643 146.495 66.8443 146.794C67.1336 147.093 67.2783 147.457 67.2783 147.886C67.2783 148.315 67.1289 148.698 66.8303 149.034C66.5409 149.37 66.1443 149.631 65.6403 149.818C65.1363 149.995 64.5809 150.084 63.9743 150.084C63.4423 150.084 62.9196 150.009 62.4063 149.86C61.8929 149.701 61.4449 149.473 61.0623 149.174L61.3983 148.432C61.7343 148.684 62.1263 148.88 62.5743 149.02C63.0223 149.16 63.4749 149.23 63.9323 149.23C64.6136 149.23 65.1689 149.104 65.5983 148.852C66.0369 148.591 66.2563 148.241 66.2563 147.802C66.2563 147.41 66.0789 147.107 65.7243 146.892C65.3696 146.668 64.8843 146.556 64.2683 146.556H63.0083V145.828H64.2123C64.7629 145.828 65.2063 145.725 65.5423 145.52C65.8783 145.305 66.0463 145.021 66.0463 144.666C66.0463 144.274 65.8549 143.966 65.4723 143.742C65.0989 143.518 64.6089 143.406 64.0023 143.406C63.2089 143.406 62.4249 143.607 61.6503 144.008L61.3703 143.238C62.2476 142.781 63.1576 142.552 64.1003 142.552C64.6603 142.552 65.1643 142.636 65.6123 142.804C66.0696 142.963 66.4243 143.191 66.6763 143.49C66.9376 143.789 67.0683 144.134 67.0683 144.526C67.0683 144.899 66.9376 145.231 66.6763 145.52C66.4243 145.809 66.0789 146.024 65.6403 146.164ZM76.7168 149.132V151.778H75.7788V150H69.1848V151.778H68.2468V149.132H68.6668C69.1615 149.104 69.4975 148.74 69.6748 148.04C69.8521 147.34 69.9735 146.36 70.0388 145.1L70.1368 142.636H75.5688V149.132H76.7168ZM70.9488 145.156C70.9021 146.201 70.8135 147.065 70.6828 147.746C70.5521 148.418 70.3188 148.88 69.9828 149.132H74.5748V143.518H71.0328L70.9488 145.156ZM89.5 149.132V151.778H88.562V150H81.968V151.778H81.03V149.132H81.45C81.9447 149.104 82.2807 148.74 82.458 148.04C82.6353 147.34 82.7567 146.36 82.822 145.1L82.92 142.636H88.352V149.132H89.5ZM83.732 145.156C83.6853 146.201 83.5967 147.065 83.466 147.746C83.3353 148.418 83.102 148.88 82.766 149.132H87.358V143.518H83.816L83.732 145.156ZM94.4751 150.07C93.7658 150.07 93.1265 149.911 92.5571 149.594C91.9878 149.267 91.5398 148.819 91.2131 148.25C90.8865 147.681 90.7231 147.037 90.7231 146.318C90.7231 145.599 90.8865 144.955 91.2131 144.386C91.5398 143.817 91.9878 143.373 92.5571 143.056C93.1265 142.739 93.7658 142.58 94.4751 142.58C95.1845 142.58 95.8238 142.739 96.3931 143.056C96.9625 143.373 97.4058 143.817 97.7231 144.386C98.0498 144.955 98.2131 145.599 98.2131 146.318C98.2131 147.037 98.0498 147.681 97.7231 148.25C97.4058 148.819 96.9625 149.267 96.3931 149.594C95.8238 149.911 95.1845 150.07 94.4751 150.07ZM94.4751 149.188C94.9978 149.188 95.4645 149.071 95.8751 148.838C96.2951 148.595 96.6218 148.255 96.8551 147.816C97.0885 147.377 97.2051 146.878 97.2051 146.318C97.2051 145.758 97.0885 145.259 96.8551 144.82C96.6218 144.381 96.2951 144.045 95.8751 143.812C95.4645 143.569 94.9978 143.448 94.4751 143.448C93.9525 143.448 93.4811 143.569 93.0611 143.812C92.6505 144.045 92.3238 144.381 92.0811 144.82C91.8478 145.259 91.7311 145.758 91.7311 146.318C91.7311 146.878 91.8478 147.377 92.0811 147.816C92.3238 148.255 92.6505 148.595 93.0611 148.838C93.4811 149.071 93.9525 149.188 94.4751 149.188ZM106.032 140.2V150H105.024V141.096H102.714V140.2H106.032ZM115.066 149.104V150H108.192V149.286L112.266 145.296C112.78 144.792 113.125 144.358 113.302 143.994C113.489 143.621 113.582 143.247 113.582 142.874C113.582 142.295 113.382 141.847 112.98 141.53C112.588 141.203 112.024 141.04 111.286 141.04C110.138 141.04 109.247 141.404 108.612 142.132L107.898 141.516C108.281 141.068 108.766 140.723 109.354 140.48C109.952 140.237 110.624 140.116 111.37 140.116C112.369 140.116 113.158 140.354 113.736 140.83C114.324 141.297 114.618 141.941 114.618 142.762C114.618 143.266 114.506 143.751 114.282 144.218C114.058 144.685 113.634 145.221 113.008 145.828L109.676 149.104H115.066ZM117.087 144.106C116.882 144.106 116.705 144.031 116.555 143.882C116.415 143.733 116.345 143.551 116.345 143.336C116.345 143.121 116.415 142.944 116.555 142.804C116.705 142.655 116.882 142.58 117.087 142.58C117.293 142.58 117.47 142.655 117.619 142.804C117.769 142.944 117.843 143.121 117.843 143.336C117.843 143.551 117.769 143.733 117.619 143.882C117.47 144.031 117.293 144.106 117.087 144.106ZM117.087 150.07C116.882 150.07 116.705 149.995 116.555 149.846C116.415 149.697 116.345 149.515 116.345 149.3C116.345 149.085 116.415 148.908 116.555 148.768C116.705 148.619 116.882 148.544 117.087 148.544C117.293 148.544 117.47 148.619 117.619 148.768C117.769 148.908 117.843 149.085 117.843 149.3C117.843 149.515 117.769 149.697 117.619 149.846C117.47 149.995 117.293 150.07 117.087 150.07ZM123.204 150.084C122.448 150.084 121.771 149.883 121.174 149.482C120.586 149.081 120.124 148.507 119.788 147.76C119.461 147.004 119.298 146.117 119.298 145.1C119.298 144.083 119.461 143.201 119.788 142.454C120.124 141.698 120.586 141.119 121.174 140.718C121.771 140.317 122.448 140.116 123.204 140.116C123.96 140.116 124.632 140.317 125.22 140.718C125.817 141.119 126.284 141.698 126.62 142.454C126.956 143.201 127.124 144.083 127.124 145.1C127.124 146.117 126.956 147.004 126.62 147.76C126.284 148.507 125.817 149.081 125.22 149.482C124.632 149.883 123.96 150.084 123.204 150.084ZM123.204 149.16C123.773 149.16 124.273 149.001 124.702 148.684C125.141 148.367 125.481 147.905 125.724 147.298C125.967 146.691 126.088 145.959 126.088 145.1C126.088 144.241 125.967 143.509 125.724 142.902C125.481 142.295 125.141 141.833 124.702 141.516C124.273 141.199 123.773 141.04 123.204 141.04C122.635 141.04 122.131 141.199 121.692 141.516C121.263 141.833 120.927 142.295 120.684 142.902C120.441 143.509 120.32 144.241 120.32 145.1C120.32 145.959 120.441 146.691 120.684 147.298C120.927 147.905 121.263 148.367 121.692 148.684C122.131 149.001 122.635 149.16 123.204 149.16ZM132.474 150.084C131.718 150.084 131.041 149.883 130.444 149.482C129.856 149.081 129.394 148.507 129.058 147.76C128.731 147.004 128.568 146.117 128.568 145.1C128.568 144.083 128.731 143.201 129.058 142.454C129.394 141.698 129.856 141.119 130.444 140.718C131.041 140.317 131.718 140.116 132.474 140.116C133.23 140.116 133.902 140.317 134.49 140.718C135.087 141.119 135.554 141.698 135.89 142.454C136.226 143.201 136.394 144.083 136.394 145.1C136.394 146.117 136.226 147.004 135.89 147.76C135.554 148.507 135.087 149.081 134.49 149.482C133.902 149.883 133.23 150.084 132.474 150.084ZM132.474 149.16C133.043 149.16 133.542 149.001 133.972 148.684C134.41 148.367 134.751 147.905 134.994 147.298C135.236 146.691 135.358 145.959 135.358 145.1C135.358 144.241 135.236 143.509 134.994 142.902C134.751 142.295 134.41 141.833 133.972 141.516C133.542 141.199 133.043 141.04 132.474 141.04C131.904 141.04 131.4 141.199 130.962 141.516C130.532 141.833 130.196 142.295 129.954 142.902C129.711 143.509 129.59 144.241 129.59 145.1C129.59 145.959 129.711 146.691 129.954 147.298C130.196 147.905 130.532 148.367 130.962 148.684C131.4 149.001 131.904 149.16 132.474 149.16Z" fill="#1F2041" fill-opacity="0.75"/>
<ellipse cx="5.21429" cy="121" rx="5.21429" ry="5" fill="#1F2041" fill-opacity="0.25"/>
<ellipse cx="5.21429" cy="87" rx="5.21429" ry="5" fill="#1F2041" fill-opacity="0.25"/>
<ellipse cx="5.21429" cy="53" rx="5.21429" ry="5" fill="#1F2041" fill-opacity="0.25"/>
<path d="M33.298 19H30.4313V7.83008H25.4401V19H22.5641V5.43652H33.298V19ZM42.195 19.1855C40.9766 19.1855 40.021 18.7433 39.3283 17.8589H39.1799C39.2788 18.7248 39.3283 19.2257 39.3283 19.3618V23.5645H36.4987V8.62793H38.7995L39.1984 9.97314H39.3283C39.9901 8.94645 40.9704 8.43311 42.2692 8.43311C43.4938 8.43311 44.4525 8.90625 45.1452 9.85254C45.8379 10.7988 46.1843 12.1131 46.1843 13.7954C46.1843 14.9025 46.0204 15.8643 45.6926 16.6807C45.371 17.4971 44.9102 18.1187 44.3102 18.5454C43.7103 18.9722 43.0052 19.1855 42.195 19.1855ZM41.36 10.6968C40.6612 10.6968 40.1509 10.9132 39.8293 11.3462C39.5077 11.7729 39.3407 12.4811 39.3283 13.4707V13.7769C39.3283 14.8901 39.4922 15.688 39.82 16.1704C40.154 16.6528 40.6797 16.894 41.3972 16.894C42.6651 16.894 43.299 15.8488 43.299 13.7583C43.299 12.7378 43.1413 11.974 42.8259 11.4668C42.5166 10.9535 42.028 10.6968 41.36 10.6968ZM55.1091 19L54.5617 17.5898H54.4875C54.0113 18.1898 53.5196 18.6073 53.0124 18.8423C52.5114 19.0711 51.8558 19.1855 51.0456 19.1855C50.0498 19.1855 49.2643 18.901 48.6891 18.332C48.1201 17.763 47.8356 16.9528 47.8356 15.9014C47.8356 14.8005 48.2191 13.9902 48.986 13.4707C49.7591 12.945 50.9219 12.6543 52.4743 12.5986L54.2741 12.543V12.0884C54.2741 11.0369 53.736 10.5112 52.6599 10.5112C51.8311 10.5112 50.857 10.7617 49.7375 11.2627L48.8005 9.35156C49.9942 8.72689 51.3177 8.41455 52.7712 8.41455C54.1628 8.41455 55.2297 8.71761 55.9719 9.32373C56.7141 9.92985 57.0851 10.8514 57.0851 12.0884V19H55.1091ZM54.2741 14.1943L53.1794 14.2314C52.3568 14.2562 51.7445 14.4046 51.3425 14.6768C50.9405 14.9489 50.7394 15.3633 50.7394 15.9199C50.7394 16.7178 51.1971 17.1167 52.1125 17.1167C52.7681 17.1167 53.2907 16.9281 53.6804 16.5508C54.0762 16.1735 54.2741 15.6725 54.2741 15.0479V14.1943ZM69.5817 11.3462C69.5817 11.9028 69.4055 12.3791 69.0529 12.7749C68.7066 13.1646 68.1932 13.415 67.5129 13.5264V13.6006C68.2489 13.6872 68.8303 13.9408 69.257 14.3613C69.69 14.7757 69.9064 15.2891 69.9064 15.9014C69.9064 16.9095 69.5106 17.6795 68.7189 18.2114C67.9273 18.7371 66.7954 19 65.3234 19H60.0075V8.62793H65.3234C66.746 8.62793 67.8098 8.85986 68.5148 9.32373C69.2261 9.78141 69.5817 10.4556 69.5817 11.3462ZM66.9748 15.7529C66.9748 15.3447 66.8171 15.0509 66.5016 14.8716C66.1862 14.686 65.7131 14.5933 65.0822 14.5933H62.8371V17.0425H65.1379C65.7378 17.0425 66.1924 16.9312 66.5016 16.7085C66.8171 16.4797 66.9748 16.1611 66.9748 15.7529ZM66.715 11.5688C66.715 10.938 66.2141 10.6226 65.2121 10.6226H62.8371V12.6729H64.8874C65.4873 12.6729 65.9419 12.5863 66.2512 12.4131C66.5604 12.2399 66.715 11.9585 66.715 11.5688ZM74.8976 8.62793V12.7285C74.8976 13.1615 74.8265 14.2191 74.6843 15.9014L79.4714 8.62793H82.8762V19H80.1393V14.8623C80.1393 14.1263 80.2012 13.0872 80.3249 11.7451L75.5563 19H72.1608V8.62793H74.8976ZM95.1408 19H92.3112V10.7524H89.7043C89.5064 13.0718 89.2652 14.8035 88.9807 15.9478C88.6961 17.0858 88.3158 17.9115 87.8395 18.4248C87.3695 18.932 86.751 19.1855 85.9841 19.1855C85.3285 19.1855 84.7904 19.0866 84.3698 18.8887V16.625C84.6729 16.7487 84.9759 16.8105 85.279 16.8105C85.6315 16.8105 85.9253 16.557 86.1603 16.0498C86.4016 15.5426 86.6149 14.6984 86.8005 13.5171C86.9922 12.3296 87.1561 10.6999 87.2922 8.62793H95.1408V19ZM104.706 19L104.158 17.5898H104.084C103.608 18.1898 103.116 18.6073 102.609 18.8423C102.108 19.0711 101.452 19.1855 100.642 19.1855C99.6465 19.1855 98.861 18.901 98.2858 18.332C97.7168 17.763 97.4323 16.9528 97.4323 15.9014C97.4323 14.8005 97.8158 13.9902 98.5827 13.4707C99.3558 12.945 100.519 12.6543 102.071 12.5986L103.871 12.543V12.0884C103.871 11.0369 103.333 10.5112 102.257 10.5112C101.428 10.5112 100.454 10.7617 99.3342 11.2627L98.3972 9.35156C99.5908 8.72689 100.914 8.41455 102.368 8.41455C103.759 8.41455 104.826 8.71761 105.569 9.32373C106.311 9.92985 106.682 10.8514 106.682 12.0884V19H104.706ZM103.871 14.1943L102.776 14.2314C101.953 14.2562 101.341 14.4046 100.939 14.6768C100.537 14.9489 100.336 15.3633 100.336 15.9199C100.336 16.7178 100.794 17.1167 101.709 17.1167C102.365 17.1167 102.887 16.9281 103.277 16.5508C103.673 16.1735 103.871 15.6725 103.871 15.0479V14.1943Z" fill="#1F2041"/>
</svg>
